{
date = "2015-12-30 05:57:45 +0000";
designer = "Namrata Goyal (Gurmukhi), Shiva Nallaperumal (Latin)";
familyName = "Roundel";
fontMaster = (
{
alignmentZones = (
"{850, 16}",
"{608, 16}",
"{586, 16}",
"{579, 16}",
"{0, -15}",
"{-350, -16}"
);
ascender = 850;
capHeight = 608;
descender = -350;
guideLines = (
{
position = "{227, -7}";
},
{
position = "{515, 486}";
},
{
position = "{-580, 862}";
},
{
position = "{221, 621}";
},
{
position = "{-516, -283}";
}
);
id = "6FDD6D71-1703-4D62-BB36-645A25EBC0A3";
weight = Light;
weightValue = 0;
xHeight = 579;
},
{
ascender = 850;
capHeight = 603;
descender = -350;
guideLines = (
{
position = "{266, -22}";
},
{
position = "{243, 617}";
},
{
position = "{-616, -328}";
}
);
id = "DC46B086-4DC3-4260-9EBF-C204FB70037C";
weight = Bold;
xHeight = 486;
}
);
glyphs = (
{
glyphname = A;
lastChange = "2015-12-30 05:56:37 +0000";
layers = (
{
layerId = "6FDD6D71-1703-4D62-BB36-645A25EBC0A3";
name = Light;
paths = (
{
closed = 1;
nodes = (
"42 0 LINE",
"330 659 LINE",
"617 0 LINE",
"650 0 LINE",
"346 688 LINE",
"314 688 LINE",
"10 0 LINE"
);
},
{
closed = 1;
nodes = (
"144 253 LINE",
"515 253 LINE",
"515 281 LINE",
"144 281 LINE"
);
}
);
width = 660;
},
{
background = {
paths = (
{
closed = 1;
nodes = (
"307 750 LINE",
"30 0 LINE",
"114 0 LINE",
"387 750 LINE"
);
},
{
closed = 1;
nodes = (
"413 750 LINE",
"331 750 LINE",
"604 0 LINE",
"690 0 LINE"
);
},
{
closed = 1;
nodes = (
"182 236 LINE",
"535 236 LINE",
"535 311 LINE",
"182 311 LINE"
);
}
);
};
layerId = "DC46B086-4DC3-4260-9EBF-C204FB70037C";
name = Bold;
paths = (
{
closed = 1;
nodes = (
"183 0 LINE",
"385 529 LINE",
"585 0 LINE",
"774 0 LINE",
"500 688 LINE",
"271 688 LINE",
"-3 0 LINE"
);
},
{
closed = 1;
nodes = (
"201 152 LINE",
"554 152 LINE",
"554 302 LINE",
"201 302 LINE"
);
}
);
width = 771;
}
);
unicode = 0041;
userData = {
com.typesupply.AccentFactory.yCoordinates = {
bottom = {
name = origin;
type = glyphMetric;
};
top = {
name = capHeight;
type = fontInfo;
};
};
};
},
{
glyphname = Aring;
lastChange = "2015-12-30 05:56:37 +0000";
layers = (
{
components = (
{
name = A;
}
);
layerId = "6FDD6D71-1703-4D62-BB36-645A25EBC0A3";
name = Light;
paths = (
{
closed = 1;
nodes = (
"330 663 CURVE SMOOTH",
"389 663 OFFCURVE",
"433 708 OFFCURVE",
"433 763 CURVE SMOOTH",
"433 818 OFFCURVE",
"389 863 OFFCURVE",
"330 863 CURVE SMOOTH",
"272 863 OFFCURVE",
"227 818 OFFCURVE",
"227 763 CURVE SMOOTH",
"227 708 OFFCURVE",
"272 663 OFFCURVE"
);
},
{
closed = 1;
nodes = (
"331 690 CURVE SMOOTH",
"291 690 OFFCURVE",
"255 720 OFFCURVE",
"255 763 CURVE SMOOTH",
"255 806 OFFCURVE",
"291 837 OFFCURVE",
"331 837 CURVE SMOOTH",
"371 837 OFFCURVE",
"405 806 OFFCURVE",
"405 763 CURVE SMOOTH",
"405 720 OFFCURVE",
"371 690 OFFCURVE"
);
}
);
width = 660;
},
{
components = (
{
name = A;
}
);
layerId = "DC46B086-4DC3-4260-9EBF-C204FB70037C";
name = Bold;
paths = (
{
closed = 1;
nodes = (
"386 609 CURVE SMOOTH",
"458 609 OFFCURVE",
"513 664 OFFCURVE",
"513 732 CURVE SMOOTH",
"513 800 OFFCURVE",
"458 855 OFFCURVE",
"386 855 CURVE SMOOTH",
"314 855 OFFCURVE",
"259 800 OFFCURVE",
"259 732 CURVE SMOOTH",
"259 664 OFFCURVE",
"314 609 OFFCURVE"
);
},
{
closed = 1;
nodes = (
"387 688 CURVE SMOOTH",
"364 688 OFFCURVE",
"345 707 OFFCURVE",
"345 732 CURVE SMOOTH",
"345 757 OFFCURVE",
"364 776 OFFCURVE",
"387 776 CURVE SMOOTH",
"410 776 OFFCURVE",
"429 757 OFFCURVE",
"429 732 CURVE SMOOTH",
"429 707 OFFCURVE",
"410 688 OFFCURVE"
);
}
);
width = 771;
}
);
unicode = 00C5;
userData = {
com.typesupply.AccentFactory.compileType = manual;
};
},
{
glyphname = AE;
lastChange = "2015-12-30 05:56:37 +0000";
layers = (
{
layerId = "6FDD6D71-1703-4D62-BB36-645A25EBC0A3";
name = Light;
paths = (
{
closed = 1;
nodes = (
"521 688 LINE",
"521 0 LINE",
"551 0 LINE",
"551 688 LINE"
);
},
{
closed = 1;
nodes = (
"537 660 LINE",
"972 660 LINE",
"972 688 LINE",
"537 688 LINE"
);
},
{
closed = 1;
nodes = (
"537 0 LINE",
"972 0 LINE",
"972 28 LINE",
"537 28 LINE"
);
},
{
closed = 1;
nodes = (
"537 335 LINE",
"922 335 LINE",
"922 363 LINE",
"537 363 LINE"
);
},
{
closed = 1;
nodes = (
"544 680 LINE",
"525 688 LINE",
"516 688 LINE",
"4 0 LINE",
"39 0 LINE"
);
},
{
closed = 1;
nodes = (
"242 283 LINE",
"527 283 LINE",
"527 311 LINE",
"242 311 LINE"
);
}
);
width = 1026;
},
{
background = {
paths = (
{
closed = 1;
nodes = (
"461 750 LINE",
"461 0 LINE",
"541 0 LINE",
"541 750 LINE"
);
},
{
closed = 1;
nodes = (
"489 670 LINE",
"912 670 LINE",
"912 750 LINE",
"489 750 LINE"
);
},
{
closed = 1;
nodes = (
"489 0 LINE",
"912 0 LINE",
"912 80 LINE",
"489 80 LINE"
);
},
{
closed = 1;
nodes = (
"489 340 LINE",
"862 340 LINE",
"862 420 LINE",
"489 420 LINE"
);
},
{
closed = 1;
nodes = (
"424 750 LINE",
"-33 0 LINE",
"63 0 LINE",
"512 750 LINE"
);
},
{
closed = 1;
nodes = (
"179 231 LINE",
"482 231 LINE",
"482 311 LINE",
"179 311 LINE"
);
}
);
};
layerId = "DC46B086-4DC3-4260-9EBF-C204FB70037C";
name = Bold;
paths = (
{
closed = 1;
nodes = (
"523 688 LINE",
"523 0 LINE",
"693 0 LINE",
"693 688 LINE"
);
},
{
closed = 1;
nodes = (
"556 528 LINE",
"1069 528 LINE",
"1069 688 LINE",
"556 688 LINE"
);
},
{
closed = 1;
nodes = (
"556 0 LINE",
"1069 0 LINE",
"1069 160 LINE",
"556 160 LINE"
);
},
{
closed = 1;
nodes = (
"556 266 LINE",
"1019 266 LINE",
"1019 426 LINE",
"556 426 LINE"
);
},
{
closed = 1;
nodes = (
"527 553 LINE",
"537 688 LINE",
"420 688 LINE",
"0 0 LINE",
"209 0 LINE"
);
},
{
closed = 1;
nodes = (
"236 166 LINE",
"532 166 LINE",
"532 316 LINE",
"236 316 LINE"
);
}
);
width = 1104;
}
);
unicode = 00C6;
userData = {
com.typesupply.AccentFactory.yCoordinates = {
bottom = {
name = origin;
type = glyphMetric;
};
top = {
name = capHeight;
type = fontInfo;
};
};
};
},
{
glyphname = B;
lastChange = "2015-12-30 05:56:37 +0000";
layers = (
{
background = {
paths = (
{
closed = 1;
nodes = (
"104 750 LINE",
"104 0 LINE",
"184 0 LINE",
"184 750 LINE"
);
},
{
closed = 1;
nodes = (
"368 0 LINE",
"541 0 OFFCURVE",
"623 86 OFFCURVE",
"623 210 CURVE",
"623 319 OFFCURVE",
"558 389 OFFCURVE",
"435 405 CURVE",
"517 423 OFFCURVE",
"563 487 OFFCURVE",
"563 566 CURVE",
"563 671 OFFCURVE",
"501 750 OFFCURVE",
"348 750 CURVE",
"134 750 LINE",
"134 675 LINE",
"338 675 LINE",
"448 675 OFFCURVE",
"483 623 OFFCURVE",
"483 555 CURVE",
"483 497 OFFCURVE",
"448 434 OFFCURVE",
"338 434 CURVE",
"134 434 LINE",
"134 362 LINE",
"368 362 LINE",
"488 362 OFFCURVE",
"543 302 OFFCURVE",
"543 215 CURVE SMOOTH",
"543 123 OFFCURVE",
"488 75 OFFCURVE",
"368 75 CURVE",
"164 75 LINE",
"164 0 LINE"
);
}
);
};
layerId = "6FDD6D71-1703-4D62-BB36-645A25EBC0A3";
name = Light;
paths = (
{
closed = 1;
nodes = (
"104 0 LINE",
"364 0 LINE SMOOTH",
"499 0 OFFCURVE",
"599 54 OFFCURVE",
"599 188 CURVE SMOOTH",
"599 288 OFFCURVE",
"538 350 OFFCURVE",
"425 366 CURVE",
"504 386 OFFCURVE",
"554 443 OFFCURVE",
"554 521 CURVE SMOOTH",
"554 645 OFFCURVE",
"467 688 OFFCURVE",
"349 688 CURVE SMOOTH",
"104 688 LINE"
);
},
{
closed = 1;
nodes = (
"349 660 LINE SMOOTH",
"448 660 OFFCURVE",
"524 628 OFFCURVE",
"524 521 CURVE SMOOTH",
"524 423 OFFCURVE",
"443 376 OFFCURVE",
"339 376 CURVE SMOOTH",
"134 376 LINE",
"134 660 LINE"
);
},
{
closed = 1;
nodes = (
"354 348 LINE SMOOTH",
"476 348 OFFCURVE",
"569 301 OFFCURVE",
"569 188 CURVE SMOOTH",
"569 70 OFFCURVE",
"479 28 OFFCURVE",
"364 28 CURVE SMOOTH",
"134 28 LINE",
"134 348 LINE"
);
}
);
width = 653;
},
{
background = {
paths = (
{
closed = 1;
nodes = (
"65 750 LINE",
"65 0 LINE",
"145 0 LINE",
"145 750 LINE"
);
},
{
closed = 1;
nodes = (
"329 0 LINE",
"502 0 OFFCURVE",
"584 86 OFFCURVE",
"584 210 CURVE",
"584 319 OFFCURVE",
"519 389 OFFCURVE",
"396 405 CURVE",
"478 423 OFFCURVE",
"524 487 OFFCURVE",
"524 566 CURVE",
"524 671 OFFCURVE",
"462 750 OFFCURVE",
"309 750 CURVE",
"95 750 LINE",
"95 675 LINE",
"299 675 LINE",
"409 675 OFFCURVE",
"444 613 OFFCURVE",
"444 555 CURVE",
"444 497 OFFCURVE",
"409 434 OFFCURVE",
"299 434 CURVE",
"95 434 LINE",
"95 362 LINE",
"329 362 LINE",
"449 362 OFFCURVE",
"504 302 OFFCURVE",
"504 215 CURVE SMOOTH",
"504 133 OFFCURVE",
"449 75 OFFCURVE",
"329 75 CURVE",
"125 75 LINE",
"125 0 LINE"
);
}
);
};
guideLines = (
{
position = "{160, 375}";
},
{
position = "{370, 523}";
}
);
layerId = "DC46B086-4DC3-4260-9EBF-C204FB70037C";
name = Bold;
paths = (
{
closed = 1;
nodes = (
"60 0 LINE",
"432 0 LINE",
"591 0 OFFCURVE",
"680 68 OFFCURVE",
"680 181 CURVE SMOOTH",
"680 279 OFFCURVE",
"610 350 OFFCURVE",
"490 363 CURVE",
"554 363 OFFCURVE",
"640 408 OFFCURVE",
"640 512 CURVE SMOOTH",
"640 635 OFFCURVE",
"531 688 OFFCURVE",
"402 688 CURVE",
"60 688 LINE"
);
},
{
closed = 1;
nodes = (
"384 528 LINE",
"431 528 OFFCURVE",
"453 509 OFFCURVE",
"453 476 CURVE",
"453 441 OFFCURVE",
"431 425 OFFCURVE",
"384 425 CURVE",
"230 425 LINE",
"230 528 LINE"
);
},
{
closed = 1;
nodes = (
"413 285 LINE",
"459 285 OFFCURVE",
"492 265 OFFCURVE",
"492 222 CURVE",
"492 176 OFFCURVE",
"459 160 OFFCURVE",
"413 160 CURVE",
"230 160 LINE",
"230 285 LINE"
);
}
);
width = 710;
}
);
unicode = 0042;
userData = {
com.typemytype.robofont.layerData = {
background = {
anchors = (
);
components = (
);
contours = (
{
points = (
{
segmentType = line;
smooth = 0;
x = 104;
y = 750;
},
{
segmentType = line;
smooth = 0;
x = 104;
y = 0;
},
{
segmentType = line;
smooth = 0;
x = 184;
y = 0;
},
{
segmentType = line;
smooth = 0;
x = 184;
y = 750;
}
);
},
{
points = (
{
segmentType = line;
smooth = 0;
x = 368;
y = 0;
},
{
smooth = 0;
x = 541;
y = 0;
},
{
smooth = 0;
x = 623;
y = 86;
},
{
segmentType = curve;
smooth = 0;
x = 623;
y = 210;
},
{
smooth = 0;
x = 623;
y = 319;
},
{
smooth = 0;
x = 558;
y = 389;
},
{
segmentType = curve;
smooth = 0;
x = 435;
y = 405;
},
{
smooth = 0;
x = 517;
y = 423;
},
{
smooth = 0;
x = 563;
y = 487;
},
{
segmentType = curve;
smooth = 0;
x = 563;
y = 566;
},
{
smooth = 0;
x = 563;
y = 671;
},
{
smooth = 0;
x = 501;
y = 750;
},
{
segmentType = curve;
smooth = 0;
x = 348;
y = 750;
},
{
segmentType = line;
smooth = 0;
x = 134;
y = 750;
},
{
segmentType = line;
smooth = 0;
x = 134;
y = 675;
},
{
segmentType = line;
smooth = 0;
x = 338;
y = 675;
},
{
smooth = 0;
x = 448;
y = 675;
},
{
smooth = 0;
x = 483;
y = 623;
},
{
segmentType = curve;
smooth = 0;
x = 483;
y = 555;
},
{
smooth = 0;
x = 483;
y = 497;
},
{
smooth = 0;
x = 448;
y = 434;
},
{
segmentType = curve;
smooth = 0;
x = 338;
y = 434;
},
{
segmentType = line;
smooth = 0;
x = 134;
y = 434;
},
{
segmentType = line;
smooth = 0;
x = 134;
y = 362;
},
{
segmentType = line;
smooth = 0;
x = 368;
y = 362;
},
{
smooth = 0;
x = 488;
y = 362;
},
{
smooth = 0;
x = 543;
y = 302;
},
{
segmentType = curve;
smooth = 1;
x = 543;
y = 215;
},
{
smooth = 0;
x = 543;
y = 123;
},
{
smooth = 0;
x = 488;
y = 75;
},
{
segmentType = curve;
smooth = 0;
x = 368;
y = 75;
},
{
segmentType = line;
smooth = 0;
x = 164;
y = 75;
},
{
segmentType = line;
smooth = 0;
x = 164;
y = 0;
}
);
}
);
lib = {
};
name = B;
unicodes = (
);
width = 653;
};
};
com.typesupply.AccentFactory.yCoordinates = {
bottom = {
name = origin;
type = glyphMetric;
};
top = {
name = capHeight;
type = fontInfo;
};
};
};
},
{
glyphname = C;
lastChange = "2015-12-30 05:56:37 +0000";
layers = (
{
anchors = (
{
name = center;
position = "{419, 344}";
}
);
background = {
paths = (
{
closed = 1;
nodes = (
"655 147 LINE",
"602 96 OFFCURVE",
"510 65 OFFCURVE",
"420 65 CURVE",
"258 65 OFFCURVE",
"125 189 OFFCURVE",
"125 375 CURVE",
"125 561 OFFCURVE",
"258 685 OFFCURVE",
"420 685 CURVE",
"510 685 OFFCURVE",
"602 654 OFFCURVE",
"655 603 CURVE",
"655 690 LINE",
"606 729 OFFCURVE",
"515 760 OFFCURVE",
"420 760 CURVE",
"213 760 OFFCURVE",
"44 601 OFFCURVE",
"44 374 CURVE",
"44 149 OFFCURVE",
"213 -10 OFFCURVE",
"420 -10 CURVE",
"541 -10 OFFCURVE",
"618 29 OFFCURVE",
"655 59 CURVE"
);
}
);
};
guideLines = (
{
angle = 90;
position = "{661, 647}";
}
);
layerId = "6FDD6D71-1703-4D62-BB36-645A25EBC0A3";
name = Light;
paths = (
{
closed = 1;
nodes = (
"410 -10 CURVE",
"510 -10 OFFCURVE",
"590 19 OFFCURVE",
"655 61 CURVE",
"655 97 LINE",
"593 54 OFFCURVE",
"512 18 OFFCURVE",
"410 18 CURVE",
"231 18 OFFCURVE",
"94 153 OFFCURVE",
"94 343 CURVE SMOOTH",
"94 534 OFFCURVE",
"231 670 OFFCURVE",
"410 670 CURVE",
"512 670 OFFCURVE",
"593 634 OFFCURVE",
"655 591 CURVE",
"655 627 LINE",
"590 669 OFFCURVE",
"510 698 OFFCURVE",
"410 698 CURVE",
"215 698 OFFCURVE",
"64 551 OFFCURVE",
"64 343 CURVE SMOOTH",
"64 136 OFFCURVE",
"215 -10 OFFCURVE"
);
}
);
width = 684;
},
{
anchors = (
{
name = center;
position = "{394, 343}";
}
);
background = {
paths = (
{
closed = 1;
nodes = (
"636 147 LINE",
"583 96 OFFCURVE",
"491 65 OFFCURVE",
"401 65 CURVE",
"239 65 OFFCURVE",
"106 189 OFFCURVE",
"106 375 CURVE",
"106 561 OFFCURVE",
"239 685 OFFCURVE",
"401 685 CURVE",
"491 685 OFFCURVE",
"583 654 OFFCURVE",
"636 603 CURVE",
"636 690 LINE",
"587 729 OFFCURVE",
"496 760 OFFCURVE",
"401 760 CURVE",
"194 760 OFFCURVE",
"25 601 OFFCURVE",
"25 374 CURVE",
"25 149 OFFCURVE",
"194 -10 OFFCURVE",
"401 -10 CURVE",
"522 -10 OFFCURVE",
"599 29 OFFCURVE",
"636 59 CURVE"
);
}
);
};
layerId = "DC46B086-4DC3-4260-9EBF-C204FB70037C";
name = Bold;
paths = (
{
closed = 1;
nodes = (
"401 -12 CURVE SMOOTH",
"503 -12 OFFCURVE",
"564 12 OFFCURVE",
"618 42 CURVE",
"618 216 LINE",
"573 183 OFFCURVE",
"503 148 OFFCURVE",
"411 148 CURVE",
"291 148 OFFCURVE",
"210 223 OFFCURVE",
"210 343 CURVE",
"210 463 OFFCURVE",
"291 538 OFFCURVE",
"411 538 CURVE",
"503 538 OFFCURVE",
"573 503 OFFCURVE",
"618 470 CURVE",
"618 644 LINE",
"564 674 OFFCURVE",
"503 698 OFFCURVE",
"401 698 CURVE SMOOTH",
"187 698 OFFCURVE",
"30 552 OFFCURVE",
"30 343 CURVE",
"30 134 OFFCURVE",
"187 -12 OFFCURVE"
);
}
);
width = 648;
}
);
unicode = 0043;
userData = {
com.typemytype.robofont.guides = (
{
angle = 90;
isGlobal = 0;
magnetic = 5;
x = 661;
y = 647;
}
);
com.typemytype.robofont.layerData = {
background = {
anchors = (
);
components = (
);
contours = (
{
points = (
{
segmentType = line;
smooth = 0;
x = 655;
y = 147;
},
{
smooth = 0;
x = 602;
y = 96;
},
{
smooth = 0;
x = 510;
y = 65;
},
{
segmentType = curve;
smooth = 0;
x = 420;
y = 65;
},
{
smooth = 0;
x = 258;
y = 65;
},
{
smooth = 0;
x = 125;
y = 189;
},
{
segmentType = curve;
smooth = 0;
x = 125;
y = 375;
},
{
smooth = 0;
x = 125;
y = 561;
},
{
smooth = 0;
x = 258;
y = 685;
},
{
segmentType = curve;
smooth = 0;
x = 420;
y = 685;
},
{
smooth = 0;
x = 510;
y = 685;
},
{
smooth = 0;
x = 602;
y = 654;
},
{
segmentType = curve;
smooth = 0;
x = 655;
y = 603;
},
{
segmentType = line;
smooth = 0;
x = 655;
y = 690;
},
{
smooth = 0;
x = 606;
y = 729;
},
{
smooth = 0;
x = 515;
y = 760;
},
{
segmentType = curve;
smooth = 0;
x = 420;
y = 760;
},
{
smooth = 0;
x = 213;
y = 760;
},
{
smooth = 0;
x = 44;
y = 601;
},
{
segmentType = curve;
smooth = 0;
x = 44;
y = 374;
},
{
smooth = 0;
x = 44;
y = 149;
},
{
smooth = 0;
x = 213;
y = -10;
},
{
segmentType = curve;
smooth = 0;
x = 420;
y = -10;
},
{
smooth = 0;
x = 541;
y = -10;
},
{
smooth = 0;
x = 618;
y = 29;
},
{
segmentType = curve;
smooth = 0;
x = 655;
y = 59;
}
);
}
);
lib = {
};
name = C;
unicodes = (
);
width = 684;
};
};
com.typesupply.AccentFactory.yCoordinates = {
bottom = {
name = origin;
type = glyphMetric;
};
top = {
name = capHeight;
type = fontInfo;
};
};
};
},
{
glyphname = D;
lastChange = "2015-12-30 05:56:37 +0000";
layers = (
{
anchors = (
{
name = center;
position = "{356, 344}";
}
);
layerId = "6FDD6D71-1703-4D62-BB36-645A25EBC0A3";
name = Light;
paths = (
{
closed = 1;
nodes = (
"104 688 LINE",
"104 0 LINE",
"134 0 LINE",
"134 688 LINE"
);
},
{
closed = 1;
nodes = (
"122 28 LINE",
"122 0 LINE",
"312 0 LINE SMOOTH",
"539 0 OFFCURVE",
"688 136 OFFCURVE",
"688 343 CURVE SMOOTH",
"688 552 OFFCURVE",
"539 688 OFFCURVE",
"312 688 CURVE SMOOTH",
"122 688 LINE",
"122 660 LINE",
"312 660 LINE SMOOTH",
"521 660 OFFCURVE",
"658 534 OFFCURVE",
"658 343 CURVE SMOOTH",
"658 154 OFFCURVE",
"521 28 OFFCURVE",
"312 28 CURVE SMOOTH"
);
}
);
width = 752;
},
{
anchors = (
{
name = center;
position = "{337, 344}";
}
);
background = {
paths = (
{
closed = 1;
nodes = (
"273 0 LINE",
"500 0 OFFCURVE",
"649 148 OFFCURVE",
"649 374 CURVE",
"649 602 OFFCURVE",
"500 750 OFFCURVE",
"273 750 CURVE",
"83 750 LINE",
"83 675 LINE",
"273 675 LINE",
"455 675 OFFCURVE",
"568 562 OFFCURVE",
"568 375 CURVE",
"568 188 OFFCURVE",
"455 75 OFFCURVE",
"273 75 CURVE",
"83 75 LINE",
"83 0 LINE"
);
},
{
closed = 1;
nodes = (
"65 750 LINE",
"65 0 LINE",
"145 0 LINE",
"145 750 LINE"
);
}
);
};
layerId = "DC46B086-4DC3-4260-9EBF-C204FB70037C";
name = Bold;
paths = (
{
closed = 1;
nodes = (
"60 688 LINE",
"60 0 LINE",
"230 0 LINE",
"230 688 LINE"
);
},
{
closed = 1;
nodes = (
"190 160 LINE",
"190 0 LINE",
"340 0 LINE",
"544 0 OFFCURVE",
"695 142 OFFCURVE",
"695 343 CURVE SMOOTH",
"695 546 OFFCURVE",
"544 688 OFFCURVE",
"340 688 CURVE",
"190 688 LINE",
"190 528 LINE",
"340 528 LINE",
"446 528 OFFCURVE",
"525 457 OFFCURVE",
"525 343 CURVE SMOOTH",
"525 230 OFFCURVE",
"446 160 OFFCURVE",
"340 160 CURVE"
);
}
);
width = 725;
}
);
unicode = 0044;
userData = {
com.typesupply.AccentFactory.yCoordinates = {
bottom = {
name = origin;
type = glyphMetric;
};
top = {
name = capHeight;
type = fontInfo;
};
};
};
},
{
glyphname = Eth;
lastChange = "2015-12-30 05:56:37 +0000";
layers = (
{
layerId = "6FDD6D71-1703-4D62-BB36-645A25EBC0A3";
name = Light;
paths = (
{
closed = 1;
nodes = (
"9 330 LINE",
"399 330 LINE",
"399 358 LINE",
"9 358 LINE"
);
},
{
closed = 1;
nodes = (
"99 688 LINE",
"99 0 LINE",
"129 0 LINE",
"129 688 LINE"
);
},
{
closed = 1;
nodes = (
"117 28 LINE",
"117 0 LINE",
"307 0 LINE SMOOTH",
"534 0 OFFCURVE",
"683 136 OFFCURVE",
"683 343 CURVE SMOOTH",
"683 552 OFFCURVE",
"534 688 OFFCURVE",
"307 688 CURVE SMOOTH",
"117 688 LINE",
"117 660 LINE",
"307 660 LINE SMOOTH",
"516 660 OFFCURVE",
"653 534 OFFCURVE",
"653 343 CURVE SMOOTH",
"653 154 OFFCURVE",
"516 28 OFFCURVE",
"307 28 CURVE SMOOTH"
);
}
);
width = 747;
},
{
layerId = "DC46B086-4DC3-4260-9EBF-C204FB70037C";
name = Bold;
paths = (
{
closed = 1;
nodes = (
"10 274 LINE",
"437 274 LINE",
"437 414 LINE",
"10 414 LINE"
);
},
{
closed = 1;
nodes = (
"80 688 LINE",
"80 0 LINE",
"250 0 LINE",
"250 688 LINE"
);
},
{
closed = 1;
nodes = (
"210 160 LINE",
"210 0 LINE",
"360 0 LINE",
"564 0 OFFCURVE",
"715 142 OFFCURVE",
"715 343 CURVE SMOOTH",
"715 546 OFFCURVE",
"564 688 OFFCURVE",
"360 688 CURVE",
"210 688 LINE",
"210 528 LINE",
"360 528 LINE",
"466 528 OFFCURVE",
"545 457 OFFCURVE",
"545 343 CURVE SMOOTH",
"545 230 OFFCURVE",
"466 160 OFFCURVE",
"360 160 CURVE"
);
}
);
width = 745;
}
);
unicode = 00D0;
},
{
glyphname = Dcroat;
lastChange = "2015-12-30 05:56:37 +0000";
layers = (
{
layerId = "6FDD6D71-1703-4D62-BB36-645A25EBC0A3";
name = Light;
paths = (
{
closed = 1;
nodes = (
"9 330 LINE",
"399 330 LINE",
"399 358 LINE",
"9 358 LINE"
);
},
{
closed = 1;
nodes = (
"99 688 LINE",
"99 0 LINE",
"129 0 LINE",
"129 688 LINE"
);
},
{
closed = 1;
nodes = (
"117 28 LINE",
"117 0 LINE",
"307 0 LINE SMOOTH",
"534 0 OFFCURVE",
"683 136 OFFCURVE",
"683 343 CURVE SMOOTH",
"683 552 OFFCURVE",
"534 688 OFFCURVE",
"307 688 CURVE SMOOTH",
"117 688 LINE",
"117 660 LINE",
"307 660 LINE SMOOTH",
"516 660 OFFCURVE",
"653 534 OFFCURVE",
"653 343 CURVE SMOOTH",
"653 154 OFFCURVE",
"516 28 OFFCURVE",
"307 28 CURVE SMOOTH"
);
}
);
width = 747;
},
{
layerId = "DC46B086-4DC3-4260-9EBF-C204FB70037C";
name = Bold;
paths = (
{
closed = 1;
nodes = (
"10 274 LINE",
"437 274 LINE",
"437 414 LINE",
"10 414 LINE"
);
},
{
closed = 1;
nodes = (
"80 688 LINE",
"80 0 LINE",
"250 0 LINE",
"250 688 LINE"
);
},
{
closed = 1;
nodes = (
"210 160 LINE",
"210 0 LINE",
"360 0 LINE",
"564 0 OFFCURVE",
"715 142 OFFCURVE",
"715 343 CURVE SMOOTH",
"715 546 OFFCURVE",
"564 688 OFFCURVE",
"360 688 CURVE",
"210 688 LINE",
"210 528 LINE",
"360 528 LINE",
"466 528 OFFCURVE",
"545 457 OFFCURVE",
"545 343 CURVE SMOOTH",
"545 230 OFFCURVE",
"466 160 OFFCURVE",
"360 160 CURVE"
);
}
);
width = 745;
}
);
unicode = 0110;
},
{
glyphname = E;
lastChange = "2015-12-30 05:56:37 +0000";
layers = (
{
layerId = "6FDD6D71-1703-4D62-BB36-645A25EBC0A3";
name = Light;
paths = (
{
closed = 1;
nodes = (
"104 688 LINE",
"104 0 LINE",
"134 0 LINE",
"134 688 LINE"
);
},
{
closed = 1;
nodes = (
"120 660 LINE",
"555 660 LINE",
"555 688 LINE",
"120 688 LINE"
);
},
{
closed = 1;
nodes = (
"120 0 LINE",
"555 0 LINE",
"555 28 LINE",
"120 28 LINE"
);
},
{
closed = 1;
nodes = (
"120 336 LINE",
"505 336 LINE",
"505 364 LINE",
"120 364 LINE"
);
}
);
width = 609;
},
{
background = {
paths = (
{
closed = 1;
nodes = (
"75 750 LINE",
"75 0 LINE",
"155 0 LINE",
"155 750 LINE"
);
},
{
closed = 1;
nodes = (
"103 675 LINE",
"526 675 LINE",
"526 750 LINE",
"103 750 LINE"
);
},
{
closed = 1;
nodes = (
"103 0 LINE",
"526 0 LINE",
"526 75 LINE",
"103 75 LINE"
);
},
{
closed = 1;
nodes = (
"103 345 LINE",
"476 345 LINE",
"476 420 LINE",
"103 420 LINE"
);
}
);
};
layerId = "DC46B086-4DC3-4260-9EBF-C204FB70037C";
name = Bold;
paths = (
{
closed = 1;
nodes = (
"60 688 LINE",
"60 0 LINE",
"230 0 LINE",
"230 688 LINE"
);
},
{
closed = 1;
nodes = (
"93 528 LINE",
"606 528 LINE",
"606 688 LINE",
"93 688 LINE"
);
},
{
closed = 1;
nodes = (
"93 0 LINE",
"606 0 LINE",
"606 160 LINE",
"93 160 LINE"
);
},
{
closed = 1;
nodes = (
"93 266 LINE",
"556 266 LINE",
"556 426 LINE",
"93 426 LINE"
);
}
);
width = 641;
}
);
unicode = 0045;
userData = {
com.typesupply.AccentFactory.yCoordinates = {
bottom = {
name = origin;
type = glyphMetric;
};
top = {
name = capHeight;
type = fontInfo;
};
};
};
},
{
glyphname = F;
lastChange = "2015-12-30 05:56:37 +0000";
layers = (
{
layerId = "6FDD6D71-1703-4D62-BB36-645A25EBC0A3";
name = Light;
paths = (
{
closed = 1;
nodes = (
"104 688 LINE",
"104 0 LINE",
"134 0 LINE",
"134 688 LINE"
);
},
{
closed = 1;
nodes = (
"120 660 LINE",
"555 660 LINE",
"555 688 LINE",
"120 688 LINE"
);
},
{
closed = 1;
nodes = (
"120 316 LINE",
"505 316 LINE",
"505 344 LINE",
"120 344 LINE"
);
}
);
width = 594;
},
{
layerId = "DC46B086-4DC3-4260-9EBF-C204FB70037C";
name = Bold;
paths = (
{
closed = 1;
nodes = (
"60 688 LINE",
"60 0 LINE",
"230 0 LINE",
"230 688 LINE"
);
},
{
closed = 1;
nodes = (
"93 528 LINE",
"596 528 LINE",
"596 688 LINE",
"93 688 LINE"
);
},
{
closed = 1;
nodes = (
"93 249 LINE",
"546 249 LINE",
"546 409 LINE",
"93 409 LINE"
);
}
);
width = 621;
}
);
unicode = 0046;
userData = {
com.typesupply.AccentFactory.yCoordinates = {
bottom = {
name = origin;
type = glyphMetric;
};
top = {
name = capHeight;
type = fontInfo;
};
};
};
},
{
glyphname = G;
lastChange = "2015-12-30 05:56:37 +0000";
layers = (
{
anchors = (
{
name = center;
position = "{414, 344}";
}
);
background = {
paths = (
{
closed = 1;
nodes = (
"665 72 LINE",
"612 33 OFFCURVE",
"515 1 OFFCURVE",
"420 1 CURVE",
"248 1 OFFCURVE",
"115 124 OFFCURVE",
"115 375 CURVE",
"115 626 OFFCURVE",
"248 749 OFFCURVE",
"420 749 CURVE",
"500 749 OFFCURVE",
"595 729 OFFCURVE",
"665 668 CURVE",
"665 680 LINE",
"596 739 OFFCURVE",
"505 760 OFFCURVE",
"420 760 CURVE",
"203 760 OFFCURVE",
"34 601 OFFCURVE",
"34 374 CURVE",
"34 149 OFFCURVE",
"203 -10 OFFCURVE",
"420 -10 CURVE",
"531 -10 OFFCURVE",
"618 29 OFFCURVE",
"665 59 CURVE"
);
},
{
closed = 1;
nodes = (
"585 25 LINE",
"665 65 LINE",
"665 384 LINE",
"355 384 LINE",
"355 373 LINE",
"585 373 LINE"
);
}
);
};
guideLines = (
{
angle = 90;
position = "{671, 351}";
}
);
layerId = "6FDD6D71-1703-4D62-BB36-645A25EBC0A3";
name = Light;
paths = (
{
closed = 1;
nodes = (
"420 18 CURVE",
"522 18 OFFCURVE",
"603 54 OFFCURVE",
"665 97 CURVE",
"665 61 LINE",
"600 19 OFFCURVE",
"520 -10 OFFCURVE",
"420 -10 CURVE",
"212 -10 OFFCURVE",
"64 136 OFFCURVE",
"64 343 CURVE SMOOTH",
"64 552 OFFCURVE",
"212 698 OFFCURVE",
"420 698 CURVE",
"520 698 OFFCURVE",
"600 669 OFFCURVE",
"665 627 CURVE",
"665 591 LINE",
"603 634 OFFCURVE",
"522 670 OFFCURVE",
"420 670 CURVE",
"228 670 OFFCURVE",
"94 535 OFFCURVE",
"94 343 CURVE SMOOTH",
"94 153 OFFCURVE",
"228 18 OFFCURVE"
);
},
{
closed = 1;
nodes = (
"635 61 LINE",
"635 331 LINE",
"355 331 LINE",
"355 359 LINE",
"665 359 LINE",
"665 75 LINE"
);
}
);
width = 739;
},
{
anchors = (
{
name = center;
position = "{402, 343}";
}
);
background = {
paths = (
{
closed = 1;
nodes = (
"613 147 LINE",
"550 90 OFFCURVE",
"458 65 OFFCURVE",
"368 65 CURVE",
"196 65 OFFCURVE",
"63 189 OFFCURVE",
"63 375 CURVE",
"63 561 OFFCURVE",
"196 685 OFFCURVE",
"368 685 CURVE",
"448 685 OFFCURVE",
"550 654 OFFCURVE",
"613 603 CURVE",
"613 690 LINE",
"554 729 OFFCURVE",
"463 760 OFFCURVE",
"368 760 CURVE",
"151 760 OFFCURVE",
"-18 601 OFFCURVE",
"-18 374 CURVE",
"-18 149 OFFCURVE",
"151 -10 OFFCURVE",
"368 -10 CURVE",
"489 -10 OFFCURVE",
"572 29 OFFCURVE",
"613 59 CURVE"
);
},
{
closed = 1;
nodes = (
"533 85 LINE",
"613 85 LINE",
"613 384 LINE",
"303 384 LINE",
"303 309 LINE",
"533 309 LINE"
);
}
);
};
layerId = "DC46B086-4DC3-4260-9EBF-C204FB70037C";
name = Bold;
paths = (
{
closed = 1;
nodes = (
"416 148 CURVE",
"513 148 OFFCURVE",
"588 182 OFFCURVE",
"635 216 CURVE",
"635 42 LINE",
"581 12 OFFCURVE",
"520 -12 OFFCURVE",
"418 -12 CURVE SMOOTH",
"194 -12 OFFCURVE",
"30 134 OFFCURVE",
"30 343 CURVE",
"30 552 OFFCURVE",
"194 698 OFFCURVE",
"408 698 CURVE",
"510 698 OFFCURVE",
"581 674 OFFCURVE",
"635 644 CURVE",
"635 470 LINE",
"588 504 OFFCURVE",
"514 538 OFFCURVE",
"417 538 CURVE",
"294 538 OFFCURVE",
"210 463 OFFCURVE",
"210 343 CURVE",
"210 223 OFFCURVE",
"293 148 OFFCURVE"
);
},
{
closed = 1;
nodes = (
"465 90 LINE",
"465 259 LINE",
"316 259 LINE",
"316 397 LINE",
"635 397 LINE",
"635 90 LINE"
);
}
);
width = 680;
}
);
unicode = 0047;
userData = {
com.typemytype.robofont.guides = (
{
angle = 90;
isGlobal = 0;
magnetic = 5;
x = 671;
y = 351;
}
);
com.typemytype.robofont.layerData = {
background = {
anchors = (
);
components = (
);
contours = (
{
points = (
{
segmentType = line;
smooth = 0;
x = 665;
y = 72;
},
{
smooth = 0;
x = 612;
y = 33;
},
{
smooth = 0;
x = 515;
y = 1;
},
{
segmentType = curve;
smooth = 0;
x = 420;
y = 1;
},
{
smooth = 0;
x = 248;
y = 1;
},
{
smooth = 0;
x = 115;
y = 124;
},
{
segmentType = curve;
smooth = 0;
x = 115;
y = 375;
},
{
smooth = 0;
x = 115;
y = 626;
},
{
smooth = 0;
x = 248;
y = 749;
},
{
segmentType = curve;
smooth = 0;
x = 420;
y = 749;
},
{
smooth = 0;
x = 500;
y = 749;
},
{
smooth = 0;
x = 595;
y = 729;
},
{
segmentType = curve;
smooth = 0;
x = 665;
y = 668;
},
{
segmentType = line;
smooth = 0;
x = 665;
y = 680;
},
{
smooth = 0;
x = 596;
y = 739;
},
{
smooth = 0;
x = 505;
y = 760;
},
{
segmentType = curve;
smooth = 0;
x = 420;
y = 760;
},
{
smooth = 0;
x = 203;
y = 760;
},
{
smooth = 0;
x = 34;
y = 601;
},
{
segmentType = curve;
smooth = 0;
x = 34;
y = 374;
},
{
smooth = 0;
x = 34;
y = 149;
},
{
smooth = 0;
x = 203;
y = -10;
},
{
segmentType = curve;
smooth = 0;
x = 420;
y = -10;
},
{
smooth = 0;
x = 531;
y = -10;
},
{
smooth = 0;
x = 618;
y = 29;
},
{
segmentType = curve;
smooth = 0;
x = 665;
y = 59;
}
);
},
{
points = (
{
segmentType = line;
smooth = 0;
x = 585;
y = 25;
},
{
segmentType = line;
smooth = 0;
x = 665;
y = 65;
},
{
segmentType = line;
smooth = 0;
x = 665;
y = 384;
},
{
segmentType = line;
smooth = 0;
x = 355;
y = 384;
},
{
segmentType = line;
smooth = 0;
x = 355;
y = 373;
},
{
segmentType = line;
smooth = 0;
x = 585;
y = 373;
}
);
}
);
lib = {
};
name = G;
unicodes = (
);
width = 739;
};
};
com.typesupply.AccentFactory.yCoordinates = {
bottom = {
name = origin;
type = glyphMetric;
};
top = {
name = capHeight;
type = fontInfo;
};
};
};
},
{
glyphname = H;
lastChange = "2015-12-30 05:56:37 +0000";
layers = (
{
layerId = "6FDD6D71-1703-4D62-BB36-645A25EBC0A3";
name = Light;
paths = (
{
closed = 1;
nodes = (
"104 688 LINE",
"104 0 LINE",
"134 0 LINE",
"134 688 LINE"
);
},
{
closed = 1;
nodes = (
"601 688 LINE",
"601 0 LINE",
"631 0 LINE",
"631 688 LINE"
);
},
{
closed = 1;
nodes = (
"122 339 LINE",
"615 339 LINE",
"615 367 LINE",
"122 367 LINE"
);
}
);
width = 735;
},
{
background = {
paths = (
{
closed = 1;
nodes = (
"512 750 LINE",
"512 0 LINE",
"592 0 LINE",
"592 750 LINE"
);
},
{
closed = 1;
nodes = (
"65 750 LINE",
"65 0 LINE",
"145 0 LINE",
"145 750 LINE"
);
},
{
closed = 1;
nodes = (
"113 356 LINE",
"526 356 LINE",
"526 431 LINE",
"113 431 LINE"
);
}
);
};
layerId = "DC46B086-4DC3-4260-9EBF-C204FB70037C";
name = Bold;
paths = (
{
closed = 1;
nodes = (
"60 688 LINE",
"60 0 LINE",
"230 0 LINE",
"230 688 LINE"
);
},
{
closed = 1;
nodes = (
"510 688 LINE",
"510 0 LINE",
"680 0 LINE",
"680 688 LINE"
);
},
{
closed = 1;
nodes = (
"123 266 LINE",
"586 266 LINE",
"586 426 LINE",
"123 426 LINE"
);
}
);
width = 740;
}
);
unicode = 0048;
userData = {
com.typesupply.AccentFactory.yCoordinates = {
bottom = {
name = origin;
type = glyphMetric;
};
top = {
name = capHeight;
type = fontInfo;
};
};
};
},
{
glyphname = Hbar;
lastChange = "2015-12-30 05:56:37 +0000";
layers = (
{
layerId = "6FDD6D71-1703-4D62-BB36-645A25EBC0A3";
name = Light;
paths = (
{
closed = 1;
nodes = (
"646 688 LINE",
"646 0 LINE",
"676 0 LINE",
"676 688 LINE"
);
},
{
closed = 1;
nodes = (
"149 688 LINE",
"149 0 LINE",
"179 0 LINE",
"179 688 LINE"
);
},
{
closed = 1;
nodes = (
"167 341 LINE",
"660 341 LINE",
"660 369 LINE",
"167 369 LINE"
);
},
{
closed = 1;
nodes = (
"49 519 LINE",
"776 519 LINE",
"776 547 LINE",
"49 547 LINE"
);
}
);
width = 825;
},
{
layerId = "DC46B086-4DC3-4260-9EBF-C204FB70037C";
name = Bold;
paths = (
{
closed = 1;
nodes = (
"510 688 LINE",
"510 0 LINE",
"680 0 LINE",
"680 688 LINE"
);
},
{
closed = 1;
nodes = (
"60 688 LINE",
"60 0 LINE",
"230 0 LINE",
"230 688 LINE"
);
},
{
closed = 1;
nodes = (
"123 266 LINE",
"586 266 LINE",
"586 426 LINE",
"123 426 LINE"
);
},
{
closed = 1;
nodes = (
"10 484 LINE",
"750 484 LINE",
"750 624 LINE",
"10 624 LINE"
);
}
);
width = 760;
}
);
unicode = 0126;
},
{
glyphname = I;
lastChange = "2015-12-30 05:56:37 +0000";
layers = (
{
layerId = "6FDD6D71-1703-4D62-BB36-645A25EBC0A3";
name = Light;
paths = (
{
closed = 1;
nodes = (
"104 688 LINE",
"104 0 LINE",
"134 0 LINE",
"134 688 LINE"
);
}
);
width = 238;
},
{
layerId = "DC46B086-4DC3-4260-9EBF-C204FB70037C";
name = Bold;
paths = (
{
closed = 1;
nodes = (
"60 688 LINE",
"60 0 LINE",
"230 0 LINE",
"230 688 LINE"
);
}
);
width = 290;
}
);
unicode = 0049;
userData = {
com.typesupply.AccentFactory.yCoordinates = {
bottom = {
name = origin;
type = glyphMetric;
};
top = {
name = capHeight;
type = fontInfo;
};
};
};
},
{
glyphname = IJ;
lastChange = "2015-12-30 05:56:37 +0000";
layers = (
{
layerId = "6FDD6D71-1703-4D62-BB36-645A25EBC0A3";
name = Light;
paths = (
{
closed = 1;
nodes = (
"104 688 LINE",
"104 0 LINE",
"134 0 LINE",
"134 688 LINE"
);
},
{
closed = 1;
nodes = (
"269 102 LINE",
"307 65 OFFCURVE",
"388 20 OFFCURVE",
"479 20 CURVE SMOOTH",
"574 20 OFFCURVE",
"650 68 OFFCURVE",
"650 191 CURVE",
"650 688 LINE",
"680 688 LINE",
"680 193 LINE",
"680 45 OFFCURVE",
"585 -10 OFFCURVE",
"479 -10 CURVE SMOOTH",
"395 -10 OFFCURVE",
"317 26 OFFCURVE",
"269 65 CURVE"
);
}
);
width = 774;
},
{
layerId = "DC46B086-4DC3-4260-9EBF-C204FB70037C";
name = Bold;
paths = (
{
closed = 1;
nodes = (
"60 688 LINE",
"60 0 LINE",
"230 0 LINE",
"230 688 LINE"
);
},
{
closed = 1;
nodes = (
"300 236 LINE",
"367 177 OFFCURVE",
"447 148 OFFCURVE",
"516 148 CURVE",
"572 148 OFFCURVE",
"611 171 OFFCURVE",
"611 236 CURVE",
"611 688 LINE",
"781 688 LINE",
"781 230 LINE",
"781 89 OFFCURVE",
"693 -12 OFFCURVE",
"520 -12 CURVE",
"409 -12 OFFCURVE",
"343 31 OFFCURVE",
"300 61 CURVE"
);
}
);
width = 836;
}
);
unicode = 0132;
},
{
glyphname = J;
lastChange = "2015-12-30 05:56:37 +0000";
layers = (
{
guideLines = (
{
angle = 90;
position = "{32, 65}";
}
);
layerId = "6FDD6D71-1703-4D62-BB36-645A25EBC0A3";
name = Light;
paths = (
{
closed = 1;
nodes = (
"19 102 LINE",
"57 65 OFFCURVE",
"138 20 OFFCURVE",
"229 20 CURVE SMOOTH",
"324 20 OFFCURVE",
"400 68 OFFCURVE",
"400 191 CURVE",
"400 688 LINE",
"430 688 LINE",
"430 193 LINE",
"430 45 OFFCURVE",
"335 -10 OFFCURVE",
"229 -10 CURVE SMOOTH",
"145 -10 OFFCURVE",
"67 26 OFFCURVE",
"19 65 CURVE"
);
}
);
width = 524;
},
{
background = {
paths = (
{
closed = 1;
nodes = (
"451 264 LINE",
"451 51 OFFCURVE",
"341 -10 OFFCURVE",
"215 -10 CURVE",
"98 -10 OFFCURVE",
"8 49 OFFCURVE",
"-24 81 CURVE",
"-24 172 LINE",
"11 130 OFFCURVE",
"105 65 OFFCURVE",
"215 65 CURVE SMOOTH",
"315 65 OFFCURVE",
"370 121 OFFCURVE",
"370 256 CURVE",
"370 750 LINE",
"451 750 LINE"
);
}
);
};
layerId = "DC46B086-4DC3-4260-9EBF-C204FB70037C";
name = Bold;
paths = (
{
closed = 1;
nodes = (
"10 236 LINE",
"77 177 OFFCURVE",
"157 148 OFFCURVE",
"226 148 CURVE",
"282 148 OFFCURVE",
"321 171 OFFCURVE",
"321 236 CURVE",
"321 688 LINE",
"491 688 LINE",
"491 230 LINE",
"491 89 OFFCURVE",
"403 -12 OFFCURVE",
"230 -12 CURVE",
"119 -12 OFFCURVE",
"53 31 OFFCURVE",
"10 61 CURVE"
);
}
);
width = 546;
}
);
unicode = 004A;
userData = {
com.typemytype.robofont.guides = (
{
angle = 90;
isGlobal = 0;
magnetic = 5;
x = 32;
y = 65;
}
);
com.typesupply.AccentFactory.yCoordinates = {
bottom = {
name = origin;
type = glyphMetric;
};
top = {
name = capHeight;
type = fontInfo;
};
};
};
},
{
glyphname = Jcircumflex;
lastChange = "2015-12-30 05:56:37 +0000";
layers = (
{
components = (
{
name = circumflex.uc;
transform = "{1, 0, 0, 1, 202, 0}";
}
);
layerId = "6FDD6D71-1703-4D62-BB36-645A25EBC0A3";
name = Light;
paths = (
{
closed = 1;
nodes = (
"19 102 LINE",
"57 65 OFFCURVE",
"138 20 OFFCURVE",
"229 20 CURVE SMOOTH",
"324 20 OFFCURVE",
"400 68 OFFCURVE",
"400 191 CURVE",
"400 688 LINE",
"430 688 LINE",
"430 193 LINE",
"430 45 OFFCURVE",
"335 -10 OFFCURVE",
"229 -10 CURVE SMOOTH",
"145 -10 OFFCURVE",
"67 26 OFFCURVE",
"19 65 CURVE"
);
}
);
width = 524;
},
{
components = (
{
name = circumflex.uc;
transform = "{1, 0, 0, 1, 192, 0}";
}
);
layerId = "DC46B086-4DC3-4260-9EBF-C204FB70037C";
name = Bold;
paths = (
{
closed = 1;
nodes = (
"10 236 LINE",
"77 177 OFFCURVE",
"157 148 OFFCURVE",
"226 148 CURVE",
"282 148 OFFCURVE",
"321 171 OFFCURVE",
"321 236 CURVE",
"321 688 LINE",
"491 688 LINE",
"491 230 LINE",
"491 89 OFFCURVE",
"403 -12 OFFCURVE",
"230 -12 CURVE",
"119 -12 OFFCURVE",
"53 31 OFFCURVE",
"10 61 CURVE"
);
}
);
width = 556;
}
);
unicode = 0134;
},
{
glyphname = K;
lastChange = "2015-12-30 05:56:37 +0000";
layers = (
{
anchors = (
{
name = center;
position = "{307, 344}";
}
);
layerId = "6FDD6D71-1703-4D62-BB36-645A25EBC0A3";
name = Light;
paths = (
{
closed = 1;
nodes = (
"104 688 LINE",
"104 0 LINE",
"134 0 LINE",
"134 688 LINE"
);
},
{
closed = 1;
nodes = (
"590 0 LINE",
"333 355 LINE",
"571 688 LINE",
"535 688 LINE",
"298 354 LINE",
"556 0 LINE"
);
},
{
closed = 1;
nodes = (
"111 340 LINE",
"328 340 LINE",
"328 368 LINE",
"111 368 LINE"
);
}
);
width = 600;
},
{
anchors = (
{
name = center;
position = "{357, 344}";
}
);
background = {
paths = (
{
closed = 1;
nodes = (
"45 750 LINE",
"45 0 LINE",
"125 0 LINE",
"125 750 LINE"
);
},
{
closed = 1;
nodes = (
"557 0 LINE",
"257 394 LINE",
"538 750 LINE",
"443 750 LINE",
"170 390 LINE",
"464 0 LINE"
);
}
);
};
layerId = "DC46B086-4DC3-4260-9EBF-C204FB70037C";
name = Bold;
paths = (
{
closed = 1;
nodes = (
"60 688 LINE",
"60 0 LINE",
"230 0 LINE",
"230 688 LINE"
);
},
{
closed = 1;
nodes = (
"694 0 LINE",
"469 361 LINE",
"680 688 LINE",
"488 688 LINE",
"288 350 LINE",
"491 0 LINE"
);
},
{
closed = 1;
nodes = (
"157 266 LINE",
"389 266 LINE",
"389 416 LINE",
"157 416 LINE"
);
}
);
width = 699;
}
);
unicode = 004B;
userData = {
com.typesupply.AccentFactory.yCoordinates = {
bottom = {
name = origin;
type = glyphMetric;
};
top = {
name = capHeight;
type = fontInfo;
};
};
};
},
{
glyphname = L;
lastChange = "2015-12-30 05:56:37 +0000";
layers = (
{
layerId = "6FDD6D71-1703-4D62-BB36-645A25EBC0A3";
name = Light;
paths = (
{
closed = 1;
nodes = (
"104 688 LINE",
"104 0 LINE",
"134 0 LINE",
"134 688 LINE"
);
},
{
closed = 1;
nodes = (
"120 0 LINE",
"555 0 LINE",
"555 28 LINE",
"120 28 LINE"
);
}
);
width = 574;
},
{
layerId = "DC46B086-4DC3-4260-9EBF-C204FB70037C";
name = Bold;
paths = (
{
closed = 1;
nodes = (
"60 688 LINE",
"60 0 LINE",
"230 0 LINE",
"230 688 LINE"
);
},
{
closed = 1;
nodes = (
"93 0 LINE",
"566 0 LINE",
"566 160 LINE",
"93 160 LINE"
);
}
);
width = 586;
}
);
unicode = 004C;
userData = {
com.typesupply.AccentFactory.yCoordinates = {
bottom = {
name = origin;
type = glyphMetric;
};
top = {
name = capHeight;
type = fontInfo;
};
};
};
},
{
glyphname = Lslash;
lastChange = "2015-12-30 05:56:37 +0000";
layers = (
{
layerId = "6FDD6D71-1703-4D62-BB36-645A25EBC0A3";
name = Light;
paths = (
{
closed = 1;
nodes = (
"24 356 LINE",
"324 516 LINE",
"324 549 LINE",
"24 389 LINE"
);
},
{
closed = 1;
nodes = (
"119 688 LINE",
"119 0 LINE",
"149 0 LINE",
"149 688 LINE"
);
},
{
closed = 1;
nodes = (
"135 0 LINE",
"570 0 LINE",
"570 28 LINE",
"135 28 LINE"
);
}
);
width = 589;
},
{
layerId = "DC46B086-4DC3-4260-9EBF-C204FB70037C";
name = Bold;
paths = (
{
closed = 1;
nodes = (
"10 295 LINE",
"382 410 LINE",
"382 540 LINE",
"10 425 LINE"
);
},
{
closed = 1;
nodes = (
"80 688 LINE",
"80 0 LINE",
"250 0 LINE",
"250 688 LINE"
);
},
{
closed = 1;
nodes = (
"113 0 LINE",
"586 0 LINE",
"586 160 LINE",
"113 160 LINE"
);
}
);
width = 606;
}
);
unicode = 0141;
},
{
glyphname = M;
lastChange = "2015-12-30 05:56:37 +0000";
layers = (
{
background = {
paths = (
{
closed = 1;
nodes = (
"539 0 LINE",
"789 575 LINE",
"789 0 LINE",
"869 0 LINE",
"869 750 LINE",
"780 750 LINE",
"494 86 LINE",
"208 750 LINE",
"119 750 LINE",
"119 0 LINE",
"199 0 LINE",
"199 575 LINE",
"449 0 LINE"
);
}
);
};
layerId = "6FDD6D71-1703-4D62-BB36-645A25EBC0A3";
name = Light;
paths = (
{
closed = 1;
nodes = (
"463 0 LINE",
"495 0 LINE",
"824 636 LINE",
"824 0 LINE",
"854 0 LINE",
"854 688 LINE",
"816 688 LINE",
"479 34 LINE",
"142 688 LINE",
"104 688 LINE",
"104 0 LINE",
"134 0 LINE",
"134 636 LINE"
);
}
);
width = 958;
},
{
associatedMasterId = "6FDD6D71-1703-4D62-BB36-645A25EBC0A3";
layerId = "5865084C-3DA6-4BCF-8323-F911EEE343EE";
name = Experiment;
paths = (
{
closed = 1;
nodes = (
"539 0 LINE",
"728 428 LINE SMOOTH",
"763 506 OFFCURVE",
"789 565 OFFCURVE",
"801 620 CURVE",
"789 565 OFFCURVE",
"789 500 OFFCURVE",
"789 415 CURVE SMOOTH",
"789 0 LINE",
"869 0 LINE",
"869 750 LINE",
"780 750 LINE",
"553 224 LINE SMOOTH",
"522 153 OFFCURVE",
"494 85 OFFCURVE",
"494 49 CURVE",
"494 85 OFFCURVE",
"466 153 OFFCURVE",
"435 224 CURVE SMOOTH",
"208 750 LINE",
"119 750 LINE",
"119 0 LINE",
"199 0 LINE",
"199 415 LINE SMOOTH",
"199 500 OFFCURVE",
"199 565 OFFCURVE",
"187 620 CURVE",
"199 565 OFFCURVE",
"225 506 OFFCURVE",
"260 428 CURVE SMOOTH",
"449 0 LINE"
);
}
);
width = 958;
},
{
background = {
paths = (
{
closed = 1;
nodes = (
"535 0 LINE",
"724 428 LINE SMOOTH",
"759 506 OFFCURVE",
"785 565 OFFCURVE",
"797 620 CURVE",
"785 565 OFFCURVE",
"785 500 OFFCURVE",
"785 415 CURVE SMOOTH",
"785 0 LINE",
"865 0 LINE",
"865 750 LINE",
"776 750 LINE",
"549 224 LINE SMOOTH",
"518 153 OFFCURVE",
"490 85 OFFCURVE",
"490 49 CURVE",
"490 85 OFFCURVE",
"462 153 OFFCURVE",
"431 224 CURVE SMOOTH",
"204 750 LINE",
"115 750 LINE",
"115 0 LINE",
"195 0 LINE",
"195 415 LINE SMOOTH",
"195 500 OFFCURVE",
"195 565 OFFCURVE",
"183 620 CURVE",
"195 565 OFFCURVE",
"221 506 OFFCURVE",
"256 428 CURVE SMOOTH",
"445 0 LINE"
);
}
);
};
layerId = "DC46B086-4DC3-4260-9EBF-C204FB70037C";
name = Bold;
paths = (
{
closed = 1;
nodes = (
"380 0 LINE",
"570 0 LINE",
"720 417 LINE",
"720 0 LINE",
"890 0 LINE",
"890 688 LINE",
"656 688 LINE",
"475 162 LINE",
"294 688 LINE",
"60 688 LINE",
"60 0 LINE",
"230 0 LINE",
"230 417 LINE"
);
}
);
width = 950;
}
);
unicode = 004D;
userData = {
com.typemytype.robofont.layerData = {
Experiment = {
anchors = (
);
components = (
);
contours = (
{
points = (
{
segmentType = line;
smooth = 0;
x = 539;
y = 0;
},
{
segmentType = line;
smooth = 1;
x = 728;
y = 428;
},
{
smooth = 0;
x = 763;
y = 506;
},
{
smooth = 0;
x = 789;
y = 565;
},
{
segmentType = curve;
smooth = 0;
x = 801;
y = 620;
},
{
smooth = 0;
x = 789;
y = 565;
},
{
smooth = 0;
x = 789;
y = 500;
},
{
segmentType = curve;
smooth = 1;
x = 789;
y = 415;
},
{
segmentType = line;
smooth = 0;
x = 789;
y = 0;
},
{
segmentType = line;
smooth = 0;
x = 869;
y = 0;
},
{
segmentType = line;
smooth = 0;
x = 869;
y = 750;
},
{
segmentType = line;
smooth = 0;
x = 780;
y = 750;
},
{
segmentType = line;
smooth = 1;
x = 553;
y = 224;
},
{
smooth = 0;
x = 522;
y = 153;
},
{
smooth = 0;
x = 494;
y = 85;
},
{
segmentType = curve;
smooth = 0;
x = 494;
y = 49;
},
{
smooth = 0;
x = 494;
y = 85;
},
{
smooth = 0;
x = 466;
y = 153;
},
{
segmentType = curve;
smooth = 1;
x = 435;
y = 224;
},
{
segmentType = line;
smooth = 0;
x = 208;
y = 750;
},
{
segmentType = line;
smooth = 0;
x = 119;
y = 750;
},
{
segmentType = line;
smooth = 0;
x = 119;
y = 0;
},
{
segmentType = line;
smooth = 0;
x = 199;
y = 0;
},
{
segmentType = line;
smooth = 1;
x = 199;
y = 415;
},
{
smooth = 0;
x = 199;
y = 500;
},
{
smooth = 0;
x = 199;
y = 565;
},
{
segmentType = curve;
smooth = 0;
x = 187;
y = 620;
},
{
smooth = 0;
x = 199;
y = 565;
},
{
smooth = 0;
x = 225;
y = 506;
},
{
segmentType = curve;
smooth = 1;
x = 260;
y = 428;
},
{
segmentType = line;
smooth = 0;
x = 449;
y = 0;
}
);
}
);
lib = {
};
name = M;
unicodes = (
);
width = 958;
};
background = {
anchors = (
);
components = (
);
contours = (
{
points = (
{
segmentType = line;
smooth = 0;
x = 539;
y = 0;
},
{
segmentType = line;
smooth = 0;
x = 789;
y = 575;
},
{
segmentType = line;
smooth = 0;
x = 789;
y = 0;
},
{
segmentType = line;
smooth = 0;
x = 869;
y = 0;
},
{
segmentType = line;
smooth = 0;
x = 869;
y = 750;
},
{
segmentType = line;
smooth = 0;
x = 780;
y = 750;
},
{
segmentType = line;
smooth = 0;
x = 494;
y = 86;
},
{
segmentType = line;
smooth = 0;
x = 208;
y = 750;
},
{
segmentType = line;
smooth = 0;
x = 119;
y = 750;
},
{
segmentType = line;
smooth = 0;
x = 119;
y = 0;
},
{
segmentType = line;
smooth = 0;
x = 199;
y = 0;
},
{
segmentType = line;
smooth = 0;
x = 199;
y = 575;
},
{
segmentType = line;
smooth = 0;
x = 449;
y = 0;
}
);
}
);
lib = {
};
name = M;
unicodes = (
);
width = 958;
};
};
com.typesupply.AccentFactory.yCoordinates = {
bottom = {
name = origin;
type = glyphMetric;
};
top = {
name = capHeight;
type = fontInfo;
};
};
};
},
{
glyphname = N;
lastChange = "2015-12-30 05:56:37 +0000";
layers = (
{
background = {
paths = (
{
closed = 1;
nodes = (
"535 212 CURVE SMOOTH",
"189 750 LINE",
"99 750 LINE",
"99 0 LINE",
"179 0 LINE",
"179 533 LINE",
"179 567 OFFCURVE",
"176 606 OFFCURVE",
"172 638 CURVE",
"187 608 OFFCURVE",
"196 591 OFFCURVE",
"210 570 CURVE SMOOTH",
"576 0 LINE",
"646 0 LINE",
"646 750 LINE",
"566 750 LINE",
"566 249 LINE",
"566 215 OFFCURVE",
"569 176 OFFCURVE",
"573 144 CURVE",
"558 174 OFFCURVE",
"549 191 OFFCURVE"
);
}
);
};
layerId = "6FDD6D71-1703-4D62-BB36-645A25EBC0A3";
name = Light;
paths = (
{
closed = 1;
nodes = (
"127 688 LINE",
"99 688 LINE",
"99 0 LINE",
"129 0 LINE",
"129 634 LINE",
"598 0 LINE",
"626 0 LINE",
"626 688 LINE",
"596 688 LINE",
"596 54 LINE"
);
}
);
width = 725;
},
{
background = {
paths = (
{
closed = 1;
nodes = (
"526 212 CURVE SMOOTH",
"180 750 LINE",
"90 750 LINE",
"90 0 LINE",
"170 0 LINE",
"170 533 LINE",
"170 567 OFFCURVE",
"167 606 OFFCURVE",
"163 638 CURVE",
"178 608 OFFCURVE",
"187 591 OFFCURVE",
"201 570 CURVE SMOOTH",
"567 0 LINE",
"637 0 LINE",
"637 750 LINE",
"557 750 LINE",
"557 249 LINE",
"557 215 OFFCURVE",
"560 176 OFFCURVE",
"564 144 CURVE",
"549 174 OFFCURVE",
"540 191 OFFCURVE"
);
}
);
};
layerId = "DC46B086-4DC3-4260-9EBF-C204FB70037C";
name = Bold;
paths = (
{
closed = 1;
nodes = (
"220 688 LINE",
"50 688 LINE",
"50 0 LINE",
"220 0 LINE",
"220 394 LINE",
"506 0 LINE",
"667 0 LINE",
"667 688 LINE",
"497 688 LINE",
"497 284 LINE"
);
}
);
width = 727;
}
);
unicode = 004E;
userData = {
com.typemytype.robofont.layerData = {
background = {
anchors = (
);
components = (
);
contours = (
{
points = (
{
segmentType = curve;
smooth = 1;
x = 535;
y = 212;
},
{
segmentType = line;
smooth = 0;
x = 189;
y = 750;
},
{
segmentType = line;
smooth = 0;
x = 99;
y = 750;
},
{
segmentType = line;
smooth = 0;
x = 99;
y = 0;
},
{
segmentType = line;
smooth = 0;
x = 179;
y = 0;
},
{
segmentType = line;
smooth = 0;
x = 179;
y = 533;
},
{
smooth = 0;
x = 179;
y = 567;
},
{
smooth = 0;
x = 176;
y = 606;
},
{
segmentType = curve;
smooth = 0;
x = 172;
y = 638;
},
{
smooth = 0;
x = 187;
y = 608;
},
{
smooth = 0;
x = 196;
y = 591;
},
{
segmentType = curve;
smooth = 1;
x = 210;
y = 570;
},
{
segmentType = line;
smooth = 0;
x = 576;
y = 0;
},
{
segmentType = line;
smooth = 0;
x = 646;
y = 0;
},
{
segmentType = line;
smooth = 0;
x = 646;
y = 750;
},
{
segmentType = line;
smooth = 0;
x = 566;
y = 750;
},
{
segmentType = line;
smooth = 0;
x = 566;
y = 249;
},
{
smooth = 0;
x = 566;
y = 215;
},
{
smooth = 0;
x = 569;
y = 176;
},
{
segmentType = curve;
smooth = 0;
x = 573;
y = 144;
},
{
smooth = 0;
x = 558;
y = 174;
},
{
smooth = 0;
x = 549;
y = 191;
}
);
}
);
lib = {
};
name = N;
unicodes = (
);
width = 725;
};
};
com.typesupply.AccentFactory.yCoordinates = {
bottom = {
name = origin;
type = glyphMetric;
};
top = {
name = capHeight;
type = fontInfo;
};
};
};
},
{
glyphname = Eng;
lastChange = "2015-12-30 05:56:37 +0000";
layers = (
{
layerId = "6FDD6D71-1703-4D62-BB36-645A25EBC0A3";
name = Light;
paths = (
{
closed = 1;
nodes = (
"631 -38 CURVE",
"631 688 LINE",
"601 688 LINE",
"601 54 LINE",
"132 688 LINE",
"104 688 LINE",
"104 0 LINE",
"134 0 LINE",
"134 634 LINE",
"601 3 LINE",
"601 -40 LINE",
"601 -89 OFFCURVE",
"578 -122 OFFCURVE",
"534 -143 CURVE",
"552 -168 LINE",
"595 -145 OFFCURVE",
"631 -107 OFFCURVE"
);
}
);
width = 735;
},
{
layerId = "DC46B086-4DC3-4260-9EBF-C204FB70037C";
name = Bold;
paths = (
{
closed = 1;
nodes = (
"657 57 CURVE",
"657 688 LINE",
"487 688 LINE",
"487 299 LINE",
"220 688 LINE",
"50 688 LINE",
"50 0 LINE",
"220 0 LINE",
"220 394 LINE",
"497 28 LINE",
"497 24 LINE SMOOTH",
"497 -6 OFFCURVE",
"470 -23 OFFCURVE",
"402 -39 CURVE",
"441 -168 LINE",
"566 -156 OFFCURVE",
"657 -86 OFFCURVE"
);
}
);
width = 717;
}
);
unicode = 014A;
},
{
glyphname = O;
lastChange = "2015-12-30 05:56:37 +0000";
layers = (
{
guideLines = (
{
position = "{430, 669}";
},
{
position = "{432, 81}";
},
{
angle = 90;
position = "{429, 360}";
},
{
position = "{432, 375}";
}
);
layerId = "6FDD6D71-1703-4D62-BB36-645A25EBC0A3";
name = Light;
paths = (
{
closed = 1;
nodes = (
"410 -10 CURVE SMOOTH",
"214 -10 OFFCURVE",
"64 136 OFFCURVE",
"64 343 CURVE SMOOTH",
"64 552 OFFCURVE",
"214 698 OFFCURVE",
"410 698 CURVE SMOOTH",
"605 698 OFFCURVE",
"755 552 OFFCURVE",
"755 343 CURVE SMOOTH",
"755 136 OFFCURVE",
"605 -10 OFFCURVE"
);
},
{
closed = 1;
nodes = (
"410 20 CURVE SMOOTH",
"589 20 OFFCURVE",
"725 154 OFFCURVE",
"725 343 CURVE SMOOTH",
"725 534 OFFCURVE",
"589 668 OFFCURVE",
"410 668 CURVE SMOOTH",
"230 668 OFFCURVE",
"94 534 OFFCURVE",
"94 343 CURVE SMOOTH",
"94 154 OFFCURVE",
"230 20 OFFCURVE"
);
}
);
width = 819;
},
{
background = {
paths = (
{
closed = 1;
nodes = (
"386 -10 CURVE",
"592 -10 OFFCURVE",
"761 149 OFFCURVE",
"761 374 CURVE",
"761 601 OFFCURVE",
"592 760 OFFCURVE",
"386 760 CURVE",
"179 760 OFFCURVE",
"10 601 OFFCURVE",
"10 374 CURVE",
"10 149 OFFCURVE",
"179 -10 OFFCURVE"
);
},
{
closed = 1;
nodes = (
"386 65 CURVE",
"224 65 OFFCURVE",
"91 189 OFFCURVE",
"91 375 CURVE",
"91 561 OFFCURVE",
"224 685 OFFCURVE",
"386 685 CURVE",
"548 685 OFFCURVE",
"680 561 OFFCURVE",
"680 375 CURVE",
"680 189 OFFCURVE",
"548 65 OFFCURVE"
);
}
);
};
layerId = "DC46B086-4DC3-4260-9EBF-C204FB70037C";
name = Bold;
paths = (
{
closed = 1;
nodes = (
"386 -10 CURVE SMOOTH",
"181 -10 OFFCURVE",
"30 136 OFFCURVE",
"30 343 CURVE SMOOTH",
"30 552 OFFCURVE",
"181 698 OFFCURVE",
"386 698 CURVE SMOOTH",
"590 698 OFFCURVE",
"741 552 OFFCURVE",
"741 343 CURVE SMOOTH",
"741 136 OFFCURVE",
"590 -10 OFFCURVE"
);
},
{
closed = 1;
nodes = (
"386 160 CURVE SMOOTH",
"486 160 OFFCURVE",
"561 230.166 OFFCURVE",
"561 343 CURVE SMOOTH",
"561 456.846 OFFCURVE",
"486 528 OFFCURVE",
"386 528 CURVE SMOOTH",
"285 528 OFFCURVE",
"210 456.846 OFFCURVE",
"210 343 CURVE",
"210 230.166 OFFCURVE",
"286 160 OFFCURVE"
);
}
);
width = 771;
}
);
unicode = 004F;
userData = {
com.typemytype.robofont.guides = (
{
angle = 0;
isGlobal = 0;
magnetic = 5;
x = 430;
y = 669;
},
{
angle = 0;
isGlobal = 0;
magnetic = 5;
x = 432;
y = 81;
},
{
angle = 90;
isGlobal = 0;
magnetic = 5;
x = 429;
y = 360;
},
{
angle = 0;
isGlobal = 0;
magnetic = 5;
x = 432;
y = 375;
}
);
com.typesupply.AccentFactory.yCoordinates = {
bottom = {
name = origin;
type = glyphMetric;
};
top = {
name = capHeight;
type = fontInfo;
};
};
};
},
{
glyphname = Oslash;
lastChange = "2015-12-30 05:56:37 +0000";
layers = (
{
guideLines = (
{
angle = 90;
position = "{75, 293}";
},
{
position = "{513, -10}";
},
{
angle = 90;
position = "{826, 585}";
},
{
position = "{607, 760}";
}
);
layerId = "6FDD6D71-1703-4D62-BB36-645A25EBC0A3";
name = Light;
paths = (
{
closed = 1;
nodes = (
"428 -10 CURVE SMOOTH",
"232 -10 OFFCURVE",
"82 136 OFFCURVE",
"82 343 CURVE SMOOTH",
"82 552 OFFCURVE",
"232 698 OFFCURVE",
"428 698 CURVE SMOOTH",
"623 698 OFFCURVE",
"773 552 OFFCURVE",
"773 343 CURVE SMOOTH",
"773 136 OFFCURVE",
"623 -10 OFFCURVE"
);
},
{
closed = 1;
nodes = (
"801 688 LINE",
"92 0 LINE",
"54 0 LINE",
"764 688 LINE"
);
},
{
closed = 1;
nodes = (
"428 20 CURVE SMOOTH",
"607 20 OFFCURVE",
"743 154 OFFCURVE",
"743 343 CURVE SMOOTH",
"743 534 OFFCURVE",
"607 668 OFFCURVE",
"428 668 CURVE SMOOTH",
"248 668 OFFCURVE",
"112 534 OFFCURVE",
"112 343 CURVE SMOOTH",
"112 154 OFFCURVE",
"248 20 OFFCURVE"
);
}
);
width = 855;
},
{
background = {
paths = (
{
closed = 1;
nodes = (
"793 787 LINE",
"890 686 LINE",
"78 -100 LINE",
"-19 1 LINE"
);
}
);
};
guideLines = (
{
angle = 90;
position = "{30, 285}";
},
{
angle = 90;
position = "{741, 244}";
}
);
layerId = "DC46B086-4DC3-4260-9EBF-C204FB70037C";
name = Bold;
paths = (
{
closed = 1;
nodes = (
"436 -10 CURVE SMOOTH",
"231 -10 OFFCURVE",
"80 136 OFFCURVE",
"80 343 CURVE SMOOTH",
"80 552 OFFCURVE",
"231 698 OFFCURVE",
"436 698 CURVE SMOOTH",
"640 698 OFFCURVE",
"791 552 OFFCURVE",
"791 343 CURVE SMOOTH",
"791 136 OFFCURVE",
"640 -10 OFFCURVE"
);
},
{
closed = 1;
nodes = (
"892 688 LINE",
"181 0 LINE",
"-20 0 LINE",
"691 688 LINE"
);
},
{
closed = 1;
nodes = (
"436 150 CURVE SMOOTH",
"542 150 OFFCURVE",
"621 224 OFFCURVE",
"621 343 CURVE SMOOTH",
"621 463 OFFCURVE",
"542 538 OFFCURVE",
"436 538 CURVE SMOOTH",
"329 538 OFFCURVE",
"250 463 OFFCURVE",
"250 343 CURVE",
"250 224 OFFCURVE",
"330 150 OFFCURVE"
);
}
);
width = 872;
}
);
unicode = 00D8;
userData = {
com.typemytype.robofont.guides = (
{
angle = 90;
isGlobal = 0;
magnetic = 5;
x = 75;
y = 293;
},
{
angle = 0;
isGlobal = 0;
magnetic = 5;
x = 513;
y = -10;
},
{
angle = 90;
isGlobal = 0;
magnetic = 5;
x = 826;
y = 585;
},
{
angle = 0;
isGlobal = 0;
magnetic = 5;
x = 607;
y = 760;
}
);
};
},
{
glyphname = Oslashacute;
lastChange = "2015-12-30 05:56:37 +0000";
layers = (
{
components = (
{
name = acute.uc;
transform = "{1, 0, 0, 1, 345, 0}";
}
);
layerId = "6FDD6D71-1703-4D62-BB36-645A25EBC0A3";
name = Light;
paths = (
{
closed = 1;
nodes = (
"428 -10 CURVE SMOOTH",
"232 -10 OFFCURVE",
"82 136 OFFCURVE",
"82 343 CURVE SMOOTH",
"82 552 OFFCURVE",
"232 698 OFFCURVE",
"428 698 CURVE SMOOTH",
"623 698 OFFCURVE",
"773 552 OFFCURVE",
"773 343 CURVE SMOOTH",
"773 136 OFFCURVE",
"623 -10 OFFCURVE"
);
},
{
closed = 1;
nodes = (
"801 688 LINE",
"92 0 LINE",
"54 0 LINE",
"764 688 LINE"
);
},
{
closed = 1;
nodes = (
"428 20 CURVE SMOOTH",
"607 20 OFFCURVE",
"743 154 OFFCURVE",
"743 343 CURVE SMOOTH",
"743 534 OFFCURVE",
"607 668 OFFCURVE",
"428 668 CURVE SMOOTH",
"248 668 OFFCURVE",
"112 534 OFFCURVE",
"112 343 CURVE SMOOTH",
"112 154 OFFCURVE",
"248 20 OFFCURVE"
);
}
);
width = 855;
},
{
components = (
{
name = acute.uc;
transform = "{1, 0, 0, 1, 327, 0}";
}
);
layerId = "DC46B086-4DC3-4260-9EBF-C204FB70037C";
name = Bold;
paths = (
{
closed = 1;
nodes = (
"436 -10 CURVE SMOOTH",
"231 -10 OFFCURVE",
"80 136 OFFCURVE",
"80 343 CURVE SMOOTH",
"80 552 OFFCURVE",
"231 698 OFFCURVE",
"436 698 CURVE SMOOTH",
"640 698 OFFCURVE",
"791 552 OFFCURVE",
"791 343 CURVE SMOOTH",
"791 136 OFFCURVE",
"640 -10 OFFCURVE"
);
},
{
closed = 1;
nodes = (
"892 688 LINE",
"181 0 LINE",
"-20 0 LINE",
"691 688 LINE"
);
},
{
closed = 1;
nodes = (
"436 150 CURVE SMOOTH",
"542 150 OFFCURVE",
"621 224 OFFCURVE",
"621 343 CURVE SMOOTH",
"621 463 OFFCURVE",
"542 538 OFFCURVE",
"436 538 CURVE SMOOTH",
"329 538 OFFCURVE",
"250 463 OFFCURVE",
"250 343 CURVE",
"250 224 OFFCURVE",
"330 150 OFFCURVE"
);
}
);
width = 872;
}
);
unicode = 01FE;
},
{
glyphname = OE;
lastChange = "2015-12-30 05:56:37 +0000";
layers = (
{
layerId = "6FDD6D71-1703-4D62-BB36-645A25EBC0A3";
name = Light;
paths = (
{
closed = 1;
nodes = (
"410 -10 CURVE SMOOTH",
"214 -10 OFFCURVE",
"64 136 OFFCURVE",
"64 343 CURVE SMOOTH",
"64 552 OFFCURVE",
"214 698 OFFCURVE",
"410 698 CURVE SMOOTH",
"605 698 OFFCURVE",
"755 552 OFFCURVE",
"755 343 CURVE SMOOTH",
"755 136 OFFCURVE",
"605 -10 OFFCURVE"
);
},
{
closed = 1;
nodes = (
"410 20 CURVE SMOOTH",
"589 20 OFFCURVE",
"725 154 OFFCURVE",
"725 343 CURVE SMOOTH",
"725 534 OFFCURVE",
"589 668 OFFCURVE",
"410 668 CURVE SMOOTH",
"230 668 OFFCURVE",
"94 534 OFFCURVE",
"94 343 CURVE SMOOTH",
"94 154 OFFCURVE",
"230 20 OFFCURVE"
);
},
{
closed = 1;
nodes = (
"490 660 LINE",
"490 688 LINE",
"1106 688 LINE",
"1106 660 LINE"
);
},
{
closed = 1;
nodes = (
"490 0 LINE",
"490 28 LINE",
"1106 28 LINE",
"1106 0 LINE"
);
},
{
closed = 1;
nodes = (
"739 336 LINE",
"739 364 LINE",
"1056 364 LINE",
"1056 336 LINE"
);
}
);
width = 1160;
},
{
layerId = "DC46B086-4DC3-4260-9EBF-C204FB70037C";
name = Bold;
paths = (
{
closed = 1;
nodes = (
"386 -10 CURVE SMOOTH",
"181 -10 OFFCURVE",
"30 136 OFFCURVE",
"30 343 CURVE SMOOTH",
"30 552 OFFCURVE",
"181 698 OFFCURVE",
"386 698 CURVE SMOOTH",
"590 698 OFFCURVE",
"741 552 OFFCURVE",
"741 343 CURVE SMOOTH",
"741 136 OFFCURVE",
"590 -10 OFFCURVE"
);
},
{
closed = 1;
nodes = (
"386 150 CURVE SMOOTH",
"492 150 OFFCURVE",
"571 224 OFFCURVE",
"571 343 CURVE SMOOTH",
"571 463 OFFCURVE",
"492 538 OFFCURVE",
"386 538 CURVE SMOOTH",
"279 538 OFFCURVE",
"200 463 OFFCURVE",
"200 343 CURVE",
"200 224 OFFCURVE",
"280 150 OFFCURVE"
);
},
{
closed = 1;
nodes = (
"456 528 LINE",
"456 688 LINE",
"1067 688 LINE",
"1067 528 LINE"
);
},
{
closed = 1;
nodes = (
"456 0 LINE",
"456 160 LINE",
"1067 160 LINE",
"1067 0 LINE"
);
},
{
closed = 1;
nodes = (
"604 265 LINE",
"604 425 LINE",
"1017 425 LINE",
"1017 265 LINE"
);
}
);
width = 1102;
}
);
unicode = 0152;
userData = {
com.typesupply.AccentFactory.yCoordinates = {
bottom = {
name = origin;
type = glyphMetric;
};
top = {
name = capHeight;
type = fontInfo;
};
};
};
},
{
glyphname = P;
lastChange = "2015-12-30 05:56:37 +0000";
layers = (
{
background = {
paths = (
{
closed = 1;
nodes = (
"104 750 LINE",
"104 0 LINE",
"184 0 LINE",
"184 750 LINE"
);
},
{
closed = 1;
nodes = (
"513 510 CURVE",
"513 403 OFFCURVE",
"448 345 OFFCURVE",
"308 345 CURVE",
"134 345 LINE",
"134 270 LINE",
"308 270 LINE",
"491 270 OFFCURVE",
"593 351 OFFCURVE",
"593 510 CURVE",
"593 669 OFFCURVE",
"491 750 OFFCURVE",
"308 750 CURVE",
"134 750 LINE",
"134 675 LINE",
"308 675 LINE",
"448 675 OFFCURVE",
"513 617 OFFCURVE"
);
}
);
};
layerId = "6FDD6D71-1703-4D62-BB36-645A25EBC0A3";
name = Light;
paths = (
{
closed = 1;
nodes = (
"104 688 LINE",
"104 0 LINE",
"134 0 LINE",
"134 688 LINE"
);
},
{
closed = 1;
nodes = (
"124 301 LINE",
"124 273 LINE",
"358 273 LINE SMOOTH",
"493 273 OFFCURVE",
"593 342 OFFCURVE",
"593 478 CURVE SMOOTH",
"593 623 OFFCURVE",
"493 688 OFFCURVE",
"358 688 CURVE SMOOTH",
"124 688 LINE",
"124 660 LINE",
"358 660 LINE SMOOTH",
"477 660 OFFCURVE",
"563 607 OFFCURVE",
"563 478 CURVE SMOOTH",
"563 358 OFFCURVE",
"476 301 OFFCURVE",
"358 301 CURVE SMOOTH"
);
}
);
width = 637;
},
{
background = {
paths = (
{
closed = 1;
nodes = (
"76 750 LINE",
"76 0 LINE",
"156 0 LINE",
"156 750 LINE"
);
},
{
closed = 1;
nodes = (
"485 510 CURVE",
"485 403 OFFCURVE",
"420 345 OFFCURVE",
"280 345 CURVE",
"106 345 LINE",
"106 270 LINE",
"280 270 LINE",
"463 270 OFFCURVE",
"565 351 OFFCURVE",
"565 510 CURVE",
"565 669 OFFCURVE",
"463 750 OFFCURVE",
"280 750 CURVE",
"106 750 LINE",
"106 675 LINE",
"280 675 LINE",
"420 675 OFFCURVE",
"485 617 OFFCURVE"
);
}
);
};
guideLines = (
{
position = "{461, 487}";
}
);
layerId = "DC46B086-4DC3-4260-9EBF-C204FB70037C";
name = Bold;
paths = (
{
closed = 1;
nodes = (
"60 688 LINE",
"60 0 LINE",
"230 0 LINE",
"230 688 LINE"
);
},
{
closed = 1;
nodes = (
"190 353 LINE",
"190 193 LINE",
"366 193 LINE",
"535 193 OFFCURVE",
"650 280 OFFCURVE",
"650 440 CURVE SMOOTH",
"650 604 OFFCURVE",
"535 688 OFFCURVE",
"366 688 CURVE",
"190 688 LINE",
"190 528 LINE",
"351 528 LINE",
"424 528 OFFCURVE",
"470 503 OFFCURVE",
"470 440 CURVE SMOOTH",
"470 379 OFFCURVE",
"424 353 OFFCURVE",
"351 353 CURVE"
);
}
);
width = 670;
}
);
unicode = 0050;
userData = {
com.typemytype.robofont.layerData = {
background = {
anchors = (
);
components = (
);
contours = (
{
points = (
{
segmentType = line;
smooth = 0;
x = 104;
y = 750;
},
{
segmentType = line;
smooth = 0;
x = 104;
y = 0;
},
{
segmentType = line;
smooth = 0;
x = 184;
y = 0;
},
{
segmentType = line;
smooth = 0;
x = 184;
y = 750;
}
);
},
{
points = (
{
segmentType = curve;
smooth = 0;
x = 513;
y = 510;
},
{
smooth = 0;
x = 513;
y = 403;
},
{
smooth = 0;
x = 448;
y = 345;
},
{
segmentType = curve;
smooth = 0;
x = 308;
y = 345;
},
{
segmentType = line;
smooth = 0;
x = 134;
y = 345;
},
{
segmentType = line;
smooth = 0;
x = 134;
y = 270;
},
{
segmentType = line;
smooth = 0;
x = 308;
y = 270;
},
{
smooth = 0;
x = 491;
y = 270;
},
{
smooth = 0;
x = 593;
y = 351;
},
{
segmentType = curve;
smooth = 0;
x = 593;
y = 510;
},
{
smooth = 0;
x = 593;
y = 669;
},
{
smooth = 0;
x = 491;
y = 750;
},
{
segmentType = curve;
smooth = 0;
x = 308;
y = 750;
},
{
segmentType = line;
smooth = 0;
x = 134;
y = 750;
},
{
segmentType = line;
smooth = 0;
x = 134;
y = 675;
},
{
segmentType = line;
smooth = 0;
x = 308;
y = 675;
},
{
smooth = 0;
x = 448;
y = 675;
},
{
smooth = 0;
x = 513;
y = 617;
}
);
}
);
lib = {
};
name = P;
unicodes = (
);
width = 637;
};
};
com.typesupply.AccentFactory.yCoordinates = {
bottom = {
name = origin;
type = glyphMetric;
};
top = {
name = capHeight;
type = fontInfo;
};
};
};
},
{
glyphname = Thorn;
lastChange = "2015-12-30 05:56:37 +0000";
layers = (
{
layerId = "6FDD6D71-1703-4D62-BB36-645A25EBC0A3";
name = Light;
paths = (
{
closed = 1;
nodes = (
"104 688 LINE",
"104 0 LINE",
"134 0 LINE",
"134 688 LINE"
);
},
{
closed = 1;
nodes = (
"124 145 LINE",
"124 117 LINE",
"338 117 LINE SMOOTH",
"485 117 OFFCURVE",
"593 193 OFFCURVE",
"593 342 CURVE SMOOTH",
"593 501 OFFCURVE",
"485 572 OFFCURVE",
"338 572 CURVE SMOOTH",
"124 572 LINE",
"124 544 LINE",
"338 544 LINE SMOOTH",
"469 544 OFFCURVE",
"563 485 OFFCURVE",
"563 342 CURVE SMOOTH",
"563 208 OFFCURVE",
"468 145 OFFCURVE",
"338 145 CURVE SMOOTH"
);
}
);
width = 637;
},
{
layerId = "DC46B086-4DC3-4260-9EBF-C204FB70037C";
name = Bold;
paths = (
{
closed = 1;
nodes = (
"60 688 LINE",
"60 0 LINE",
"230 0 LINE",
"230 688 LINE"
);
},
{
closed = 1;
nodes = (
"190 257 LINE",
"190 97 LINE",
"366 97 LINE",
"535 97 OFFCURVE",
"650 184 OFFCURVE",
"650 344 CURVE SMOOTH",
"650 508 OFFCURVE",
"535 592 OFFCURVE",
"366 592 CURVE",
"190 592 LINE",
"190 432 LINE",
"351 432 LINE",
"424 432 OFFCURVE",
"470 407 OFFCURVE",
"470 344 CURVE SMOOTH",
"470 283 OFFCURVE",
"424 257 OFFCURVE",
"351 257 CURVE"
);
}
);
width = 670;
}
);
unicode = 00DE;
},
{
glyphname = Q;
lastChange = "2015-12-30 05:56:37 +0000";
layers = (
{
layerId = "6FDD6D71-1703-4D62-BB36-645A25EBC0A3";
name = Light;
paths = (
{
closed = 1;
nodes = (
"410 -10 CURVE SMOOTH",
"605 -10 OFFCURVE",
"755 136 OFFCURVE",
"755 343 CURVE SMOOTH",
"755 552 OFFCURVE",
"605 698 OFFCURVE",
"410 698 CURVE SMOOTH",
"214 698 OFFCURVE",
"64 552 OFFCURVE",
"64 343 CURVE SMOOTH",
"64 136 OFFCURVE",
"214 -10 OFFCURVE"
);
},
{
closed = 1;
nodes = (
"410 20 CURVE SMOOTH",
"230 20 OFFCURVE",
"94 154 OFFCURVE",
"94 343 CURVE SMOOTH",
"94 534 OFFCURVE",
"230 668 OFFCURVE",
"410 668 CURVE SMOOTH",
"589 668 OFFCURVE",
"725 534 OFFCURVE",
"725 343 CURVE SMOOTH",
"725 154 OFFCURVE",
"589 20 OFFCURVE"
);
},
{
closed = 1;
nodes = (
"375 305 LINE",
"745 0 LINE",
"789 0 LINE",
"419 305 LINE"
);
}
);
width = 819;
},
{
background = {
paths = (
{
closed = 1;
nodes = (
"386 160 CURVE SMOOTH",
"486 160 OFFCURVE",
"561 230 OFFCURVE",
"561 343 CURVE SMOOTH",
"561 457 OFFCURVE",
"486 528 OFFCURVE",
"386 528 CURVE SMOOTH",
"285 528 OFFCURVE",
"210 457 OFFCURVE",
"210 343 CURVE",
"210 230 OFFCURVE",
"286 160 OFFCURVE"
);
},
{
closed = 1;
nodes = (
"386 -10 LINE",
"181 -10 OFFCURVE",
"30 136 OFFCURVE",
"30 343 CURVE SMOOTH",
"30 552 OFFCURVE",
"181 698 OFFCURVE",
"386 698 CURVE SMOOTH",
"590 698 OFFCURVE",
"741 552 OFFCURVE",
"741 343 CURVE SMOOTH",
"741 168 OFFCURVE",
"623 56 OFFCURVE",
"446 30 CURVE"
);
},
{
closed = 1;
nodes = (
"397 74 LINE SMOOTH",
"619 14 LINE SMOOTH",
"642 8 OFFCURVE",
"670 3 OFFCURVE",
"699 3 CURVE SMOOTH",
"741 3 OFFCURVE",
"785 12 OFFCURVE",
"824 39 CURVE",
"824 -139 LINE",
"778 -159 OFFCURVE",
"738 -168 OFFCURVE",
"696 -168 CURVE SMOOTH",
"636 -168 OFFCURVE",
"576 -149 OFFCURVE",
"496 -109 CURVE SMOOTH",
"233 21 LINE"
);
}
);
};
guideLines = (
{
position = "{218, 29}";
}
);
layerId = "DC46B086-4DC3-4260-9EBF-C204FB70037C";
name = Bold;
paths = (
{
closed = 1;
nodes = (
"386 -10 CURVE SMOOTH",
"590 -10 OFFCURVE",
"741 136 OFFCURVE",
"741 343 CURVE SMOOTH",
"741 552 OFFCURVE",
"590 698 OFFCURVE",
"386 698 CURVE SMOOTH",
"181 698 OFFCURVE",
"30 552 OFFCURVE",
"30 343 CURVE SMOOTH",
"30 136 OFFCURVE",
"181 -10 OFFCURVE"
);
},
{
closed = 1;
nodes = (
"386 160 CURVE SMOOTH",
"286 160 OFFCURVE",
"210 230 OFFCURVE",
"210 343 CURVE",
"210 457 OFFCURVE",
"285 528 OFFCURVE",
"386 528 CURVE SMOOTH",
"486 528 OFFCURVE",
"561 457 OFFCURVE",
"561 343 CURVE SMOOTH",
"561 230 OFFCURVE",
"486 160 OFFCURVE"
);
},
{
closed = 1;
nodes = (
"292 324 LINE",
"609 0 LINE",
"799 0 LINE",
"482 324 LINE"
);
}
);
width = 771;
}
);
unicode = 0051;
userData = {
com.typesupply.AccentFactory.yCoordinates = {
bottom = {
name = origin;
type = glyphMetric;
};
top = {
name = capHeight;
type = fontInfo;
};
};
};
},
{
glyphname = R;
lastChange = "2015-12-30 05:56:37 +0000";
layers = (
{
anchors = (
{
name = center;
position = "{321, 344}";
}
);
background = {
paths = (
{
closed = 1;
nodes = (
"104 750 LINE",
"104 0 LINE",
"184 0 LINE",
"184 750 LINE"
);
},
{
closed = 1;
nodes = (
"305 304 LINE",
"400 147 OFFCURVE",
"525 40 OFFCURVE",
"618 -21 CURVE",
"659 49 LINE",
"552 117 OFFCURVE",
"451 212 OFFCURVE",
"398 320 CURVE"
);
},
{
closed = 1;
nodes = (
"593 520 CURVE",
"593 674 OFFCURVE",
"481 750 OFFCURVE",
"328 750 CURVE",
"134 750 LINE",
"134 670 LINE",
"328 670 LINE",
"438 670 OFFCURVE",
"513 622 OFFCURVE",
"513 520 CURVE",
"513 418 OFFCURVE",
"438 370 OFFCURVE",
"328 370 CURVE",
"134 370 LINE",
"134 290 LINE",
"328 290 LINE",
"481 290 OFFCURVE",
"593 366 OFFCURVE"
);
}
);
};
layerId = "6FDD6D71-1703-4D62-BB36-645A25EBC0A3";
name = Light;
paths = (
{
closed = 1;
nodes = (
"104 688 LINE",
"104 0 LINE",
"134 0 LINE",
"134 688 LINE"
);
},
{
closed = 1;
nodes = (
"128 313 LINE",
"363 313 LINE SMOOTH",
"505 313 OFFCURVE",
"593 375 OFFCURVE",
"593 498 CURVE SMOOTH",
"593 629 OFFCURVE",
"505 688 OFFCURVE",
"363 688 CURVE SMOOTH",
"124 688 LINE",
"124 660 LINE",
"363 660 LINE SMOOTH",
"486 660 OFFCURVE",
"563 613 OFFCURVE",
"563 498 CURVE SMOOTH",
"563 392 OFFCURVE",
"485 341 OFFCURVE",
"363 341 CURVE SMOOTH",
"128 341 LINE"
);
},
{
closed = 1;
nodes = (
"278 317 LINE",
"561 0 LINE",
"599 0 LINE",
"313 317 LINE"
);
}
);
width = 660;
},
{
associatedMasterId = "6FDD6D71-1703-4D62-BB36-645A25EBC0A3";
layerId = "1AF1E099-358B-4429-BD74-89B35ABC34B5";
name = Experiment;
paths = (
{
closed = 1;
nodes = (
"124 363 LINE",
"338 363 LINE SMOOTH",
"457.755 363 OFFCURVE",
"551 420 OFFCURVE",
"551 540 CURVE SMOOTH",
"551 668.842 OFFCURVE",
"458.67 722 OFFCURVE",
"338 722 CURVE SMOOTH",
"124 722 LINE",
"124 750 LINE",
"338 750 LINE SMOOTH",
"479.453 750 OFFCURVE",
"583 685.174 OFFCURVE",
"583 540 CURVE SMOOTH",
"583 404 OFFCURVE",
"479.453 335 OFFCURVE",
"338 335 CURVE SMOOTH",
"124 335 LINE"
);
}
);
width = 660;
},
{
anchors = (
{
name = center;
position = "{348, 344}";
}
);
background = {
paths = (
{
closed = 1;
nodes = (
"65 750 LINE",
"65 0 LINE",
"145 0 LINE",
"145 750 LINE"
);
},
{
closed = 1;
nodes = (
"263 304 LINE",
"464 0 LINE",
"564 0 LINE",
"344 320 LINE"
);
},
{
closed = 1;
nodes = (
"554 520 CURVE",
"554 679 OFFCURVE",
"442 750 OFFCURVE",
"289 750 CURVE",
"95 750 LINE",
"95 675 LINE",
"289 675 LINE",
"399 675 OFFCURVE",
"474 627 OFFCURVE",
"474 520 CURVE",
"474 418 OFFCURVE",
"399 370 OFFCURVE",
"289 370 CURVE",
"95 370 LINE",
"95 295 LINE",
"289 295 LINE",
"442 295 OFFCURVE",
"554 371 OFFCURVE"
);
}
);
};
layerId = "DC46B086-4DC3-4260-9EBF-C204FB70037C";
name = Bold;
paths = (
{
closed = 1;
nodes = (
"60 688 LINE",
"60 0 LINE",
"230 0 LINE",
"230 688 LINE"
);
},
{
closed = 1;
nodes = (
"220 242 LINE",
"432 242 LINE SMOOTH",
"562 242 OFFCURVE",
"664 321 OFFCURVE",
"664 453 CURVE",
"664 614 OFFCURVE",
"553 688 OFFCURVE",
"386 688 CURVE",
"190 688 LINE",
"190 528 LINE",
"380 528 LINE",
"446 528 OFFCURVE",
"486 504 OFFCURVE",
"486 451 CURVE",
"486 395 OFFCURVE",
"446 371 OFFCURVE",
"380 371 CURVE",
"220 371 LINE"
);
},
{
closed = 1;
nodes = (
"285 246 LINE",
"463 0 LINE",
"676 0 LINE",
"475 246 LINE"
);
}
);
width = 691;
}
);
unicode = 0052;
userData = {
com.typemytype.robofont.layerData = {
Experiment = {
anchors = (
);
components = (
);
contours = (
{
points = (
{
segmentType = line;
smooth = 0;
x = 124;
y = 363;
},
{
segmentType = line;
smooth = 1;
x = 338;
y = 363;
},
{
smooth = 0;
x = 457.755;
y = 363;
},
{
smooth = 0;
x = 551;
y = 420;
},
{
segmentType = curve;
smooth = 1;
x = 551;
y = 540;
},
{
smooth = 0;
x = 551;
y = 668.842;
},
{
smooth = 0;
x = 458.67;
y = 722;
},
{
segmentType = curve;
smooth = 1;
x = 338;
y = 722;
},
{
segmentType = line;
smooth = 0;
x = 124;
y = 722;
},
{
segmentType = line;
smooth = 0;
x = 124;
y = 750;
},
{
segmentType = line;
smooth = 1;
x = 338;
y = 750;
},
{
smooth = 0;
x = 479.453;
y = 750;
},
{
smooth = 0;
x = 583;
y = 685.174;
},
{
segmentType = curve;
smooth = 1;
x = 583;
y = 540;
},
{
smooth = 0;
x = 583;
y = 404;
},
{
smooth = 0;
x = 479.453;
y = 335;
},
{
segmentType = curve;
smooth = 1;
x = 338;
y = 335;
},
{
segmentType = line;
smooth = 0;
x = 124;
y = 335;
}
);
}
);
lib = {
};
name = R;
unicodes = (
);
width = 660;
};
background = {
anchors = (
);
components = (
);
contours = (
{
points = (
{
segmentType = line;
smooth = 0;
x = 104;
y = 750;
},
{
segmentType = line;
smooth = 0;
x = 104;
y = 0;
},
{
segmentType = line;
smooth = 0;
x = 184;
y = 0;
},
{
segmentType = line;
smooth = 0;
x = 184;
y = 750;
}
);
},
{
points = (
{
segmentType = line;
smooth = 0;
x = 305;
y = 304;
},
{
smooth = 0;
x = 400;
y = 147;
},
{
smooth = 0;
x = 525;
y = 40;
},
{
segmentType = curve;
smooth = 0;
x = 618;
y = -21;
},
{
segmentType = line;
smooth = 0;
x = 659;
y = 49;
},
{
smooth = 0;
x = 552;
y = 117;
},
{
smooth = 0;
x = 451;
y = 212;
},
{
segmentType = curve;
smooth = 0;
x = 398;
y = 320;
}
);
},
{
points = (
{
segmentType = curve;
smooth = 0;
x = 593;
y = 520;
},
{
smooth = 0;
x = 593;
y = 674;
},
{
smooth = 0;
x = 481;
y = 750;
},
{
segmentType = curve;
smooth = 0;
x = 328;
y = 750;
},
{
segmentType = line;
smooth = 0;
x = 134;
y = 750;
},
{
segmentType = line;
smooth = 0;
x = 134;
y = 670;
},
{
segmentType = line;
smooth = 0;
x = 328;
y = 670;
},
{
smooth = 0;
x = 438;
y = 670;
},
{
smooth = 0;
x = 513;
y = 622;
},
{
segmentType = curve;
smooth = 0;
x = 513;
y = 520;
},
{
smooth = 0;
x = 513;
y = 418;
},
{
smooth = 0;
x = 438;
y = 370;
},
{
segmentType = curve;
smooth = 0;
x = 328;
y = 370;
},
{
segmentType = line;
smooth = 0;
x = 134;
y = 370;
},
{
segmentType = line;
smooth = 0;
x = 134;
y = 290;
},
{
segmentType = line;
smooth = 0;
x = 328;
y = 290;
},
{
smooth = 0;
x = 481;
y = 290;
},
{
smooth = 0;
x = 593;
y = 366;
}
);
}
);
lib = {
};
name = R;
unicodes = (
);
width = 660;
};
};
com.typesupply.AccentFactory.yCoordinates = {
bottom = {
name = origin;
type = glyphMetric;
};
top = {
name = capHeight;
type = fontInfo;
};
};
};
},
{
glyphname = S;
lastChange = "2015-12-30 05:56:37 +0000";
layers = (
{
background = {
paths = (
{
closed = 1;
nodes = (
"323 415 LINE SMOOTH",
"453 376 OFFCURVE",
"515 312 OFFCURVE",
"513 194 CURVE SMOOTH",
"511 63 OFFCURVE",
"414 -8 OFFCURVE",
"293 -10 CURVE SMOOTH",
"175 -12 OFFCURVE",
"90 37 OFFCURVE",
"38 81 CURVE",
"38 176 LINE",
"83 132 OFFCURVE",
"172 73 OFFCURVE",
"282 69 CURVE SMOOTH",
"373 66 OFFCURVE",
"428 108 OFFCURVE",
"432 186 CURVE SMOOTH",
"436 263 OFFCURVE",
"393 312 OFFCURVE",
"291 340 CURVE SMOOTH",
"218 360 LINE SMOOTH",
"99 393 OFFCURVE",
"31 467 OFFCURVE",
"31 564 CURVE SMOOTH",
"31 698 OFFCURVE",
"117 771 OFFCURVE",
"242 777 CURVE SMOOTH",
"375 783 OFFCURVE",
"458 715 OFFCURVE",
"478 694 CURVE",
"478 594 LINE",
"452 623 OFFCURVE",
"369 701 OFFCURVE",
"249 697 CURVE SMOOTH",
"159 694 OFFCURVE",
"111 644 OFFCURVE",
"111 573 CURVE SMOOTH",
"111 504 OFFCURVE",
"158 465 OFFCURVE",
"253 436 CURVE SMOOTH"
);
}
);
};
layerId = "6FDD6D71-1703-4D62-BB36-645A25EBC0A3";
name = Light;
paths = (
{
closed = 1;
nodes = (
"487 157 CURVE",
"487 75 OFFCURVE",
"429 18 OFFCURVE",
"305 18 CURVE",
"204 18 OFFCURVE",
"114 58 OFFCURVE",
"54 98 CURVE",
"54 65 LINE",
"116 24 OFFCURVE",
"209 -10 OFFCURVE",
"308 -10 CURVE",
"429 -10 OFFCURVE",
"517 47 OFFCURVE",
"517 157 CURVE",
"517 267 OFFCURVE",
"452 303 OFFCURVE",
"327 346 CURVE SMOOTH",
"252 372 LINE SMOOTH",
"160 404 OFFCURVE",
"86 434 OFFCURVE",
"86 529 CURVE",
"86 608 OFFCURVE",
"149 670 OFFCURVE",
"272 670 CURVE",
"369 670 OFFCURVE",
"446 630 OFFCURVE",
"489 597 CURVE",
"489 633 LINE",
"449 665 OFFCURVE",
"369 698 OFFCURVE",
"272 698 CURVE",
"154 698 OFFCURVE",
"56 640 OFFCURVE",
"56 527 CURVE",
"56 419 OFFCURVE",
"142 381 OFFCURVE",
"225 352 CURVE SMOOTH",
"320 319 LINE SMOOTH",
"431 281 OFFCURVE",
"487 247 OFFCURVE"
);
}
);
width = 571;
},
{
associatedMasterId = "6FDD6D71-1703-4D62-BB36-645A25EBC0A3";
layerId = "AB097141-6708-4343-A870-505300174E55";
name = Experiment;
paths = (
{
closed = 1;
nodes = (
"325 403 LINE SMOOTH",
"443 356 OFFCURVE",
"513 307 OFFCURVE",
"513 194 CURVE SMOOTH",
"513 63 OFFCURVE",
"418 -10 OFFCURVE",
"291 -10 CURVE",
"178 -10 OFFCURVE",
"72 44 OFFCURVE",
"33 81 CURVE",
"33 167 LINE",
"87 121 OFFCURVE",
"190 66 OFFCURVE",
"290 66 CURVE",
"380 66 OFFCURVE",
"430 110 OFFCURVE",
"430 186 CURVE SMOOTH",
"430 256 OFFCURVE",
"386 294 OFFCURVE",
"291 330 CURVE SMOOTH",
"217 358 LINE SMOOTH",
"102 401 OFFCURVE",
"31 454 OFFCURVE",
"31 560 CURVE SMOOTH",
"31 696 OFFCURVE",
"137 760 OFFCURVE",
"261 760 CURVE",
"364 760 OFFCURVE",
"444 720 OFFCURVE",
"484 687 CURVE",
"484 601 LINE",
"446 630 OFFCURVE",
"362 683 OFFCURVE",
"262 683 CURVE",
"176 683 OFFCURVE",
"113 647 OFFCURVE",
"113 569 CURVE SMOOTH",
"113 491 OFFCURVE",
"176 463 OFFCURVE",
"260 429 CURVE SMOOTH"
);
}
);
width = 571;
},
{
background = {
paths = (
{
closed = 1;
nodes = (
"355 409 LINE SMOOTH",
"476 370 OFFCURVE",
"543 312 OFFCURVE",
"543 194 CURVE SMOOTH",
"543 63 OFFCURVE",
"433 -10 OFFCURVE",
"321 -10 CURVE",
"193 -10 OFFCURVE",
"104 49 OFFCURVE",
"68 81 CURVE",
"68 171 LINE",
"112 127 OFFCURVE",
"210 64 OFFCURVE",
"320 64 CURVE",
"394 64 OFFCURVE",
"460 101 OFFCURVE",
"460 186 CURVE SMOOTH",
"460 263 OFFCURVE",
"418 304 OFFCURVE",
"321 333 CURVE SMOOTH",
"248 355 LINE SMOOTH",
"130 391 OFFCURVE",
"61 448 OFFCURVE",
"61 554 CURVE SMOOTH",
"61 690 OFFCURVE",
"161 760 OFFCURVE",
"285 760 CURVE",
"418 760 OFFCURVE",
"488 698 OFFCURVE",
"508 677 CURVE",
"508 582 LINE",
"482 611 OFFCURVE",
"406 685 OFFCURVE",
"286 685 CURVE",
"207 685 OFFCURVE",
"143 641 OFFCURVE",
"143 563 CURVE SMOOTH",
"143 485 OFFCURVE",
"195 461 OFFCURVE",
"290 430 CURVE SMOOTH"
);
}
);
};
layerId = "DC46B086-4DC3-4260-9EBF-C204FB70037C";
name = Bold;
paths = (
{
closed = 1;
nodes = (
"433 189 CURVE",
"433 223.138 OFFCURVE",
"393.226 234.368 OFFCURVE",
"334 249 CURVE SMOOTH",
"249 270 LINE SMOOTH",
"133 299 OFFCURVE",
"29 341 OFFCURVE",
"29 481 CURVE",
"29 622 OFFCURVE",
"152 700 OFFCURVE",
"300 700 CURVE SMOOTH",
"431 700 OFFCURVE",
"514 663 OFFCURVE",
"559 637 CURVE",
"559 456 LINE",
"492 498 OFFCURVE",
"382 537 OFFCURVE",
"294 537 CURVE",
"242 537 OFFCURVE",
"211 524 OFFCURVE",
"211 494 CURVE",
"211 459 OFFCURVE",
"252 448 OFFCURVE",
"320 430 CURVE SMOOTH",
"394 410 LINE SMOOTH",
"498 382 OFFCURVE",
"608 344 OFFCURVE",
"608 200 CURVE SMOOTH",
"608 64 OFFCURVE",
"489 -10 OFFCURVE",
"330 -10 CURVE SMOOTH",
"205 -10 OFFCURVE",
"104 30 OFFCURVE",
"58 63 CURVE",
"58 238 LINE",
"126 188 OFFCURVE",
"250 147 OFFCURVE",
"341 147 CURVE",
"411 147 OFFCURVE",
"433 162.273 OFFCURVE"
);
}
);
width = 633;
}
);
unicode = 0053;
userData = {
com.typemytype.robofont.guides = (
);
com.typemytype.robofont.layerData = {
Experiment = {
anchors = (
);
components = (
);
contours = (
{
points = (
{
segmentType = line;
smooth = 1;
x = 325;
y = 403;
},
{
smooth = 0;
x = 443;
y = 356;
},
{
smooth = 0;
x = 513;
y = 307;
},
{
segmentType = curve;
smooth = 1;
x = 513;
y = 194;
},
{
smooth = 0;
x = 513;
y = 63;
},
{
smooth = 0;
x = 418;
y = -10;
},
{
segmentType = curve;
smooth = 0;
x = 291;
y = -10;
},
{
smooth = 0;
x = 178;
y = -10;
},
{
smooth = 0;
x = 72;
y = 44;
},
{
segmentType = curve;
smooth = 0;
x = 33;
y = 81;
},
{
segmentType = line;
smooth = 0;
x = 33;
y = 167;
},
{
smooth = 0;
x = 87;
y = 121;
},
{
smooth = 0;
x = 190;
y = 66;
},
{
segmentType = curve;
smooth = 0;
x = 290;
y = 66;
},
{
smooth = 0;
x = 380;
y = 66;
},
{
smooth = 0;
x = 430;
y = 110;
},
{
segmentType = curve;
smooth = 1;
x = 430;
y = 186;
},
{
smooth = 0;
x = 430;
y = 256;
},
{
smooth = 0;
x = 386;
y = 294;
},
{
segmentType = curve;
smooth = 1;
x = 291;
y = 330;
},
{
segmentType = line;
smooth = 1;
x = 217;
y = 358;
},
{
smooth = 0;
x = 102;
y = 401;
},
{
smooth = 0;
x = 31;
y = 454;
},
{
segmentType = curve;
smooth = 1;
x = 31;
y = 560;
},
{
smooth = 0;
x = 31;
y = 696;
},
{
smooth = 0;
x = 137;
y = 760;
},
{
segmentType = curve;
smooth = 0;
x = 261;
y = 760;
},
{
smooth = 0;
x = 364;
y = 760;
},
{
smooth = 0;
x = 444;
y = 720;
},
{
segmentType = curve;
smooth = 0;
x = 484;
y = 687;
},
{
segmentType = line;
smooth = 0;
x = 484;
y = 601;
},
{
smooth = 0;
x = 446;
y = 630;
},
{
smooth = 0;
x = 362;
y = 683;
},
{
segmentType = curve;
smooth = 0;
x = 262;
y = 683;
},
{
smooth = 0;
x = 176;
y = 683;
},
{
smooth = 0;
x = 113;
y = 647;
},
{
segmentType = curve;
smooth = 1;
x = 113;
y = 569;
},
{
smooth = 0;
x = 113;
y = 491;
},
{
smooth = 0;
x = 176;
y = 463;
},
{
segmentType = curve;
smooth = 1;
x = 260;
y = 429;
}
);
}
);
lib = {
};
name = S;
unicodes = (
);
width = 571;
};
background = {
anchors = (
);
components = (
);
contours = (
{
points = (
{
segmentType = line;
smooth = 1;
x = 323;
y = 415;
},
{
smooth = 0;
x = 453;
y = 376;
},
{
smooth = 0;
x = 515;
y = 312;
},
{
segmentType = curve;
smooth = 1;
x = 513;
y = 194;
},
{
smooth = 0;
x = 511;
y = 63;
},
{
smooth = 0;
x = 414;
y = -8;
},
{
segmentType = curve;
smooth = 1;
x = 293;
y = -10;
},
{
smooth = 0;
x = 175;
y = -12;
},
{
smooth = 0;
x = 90;
y = 37;
},
{
segmentType = curve;
smooth = 0;
x = 38;
y = 81;
},
{
segmentType = line;
smooth = 0;
x = 38;
y = 176;
},
{
smooth = 0;
x = 83;
y = 132;
},
{
smooth = 0;
x = 172;
y = 73;
},
{
segmentType = curve;
smooth = 1;
x = 282;
y = 69;
},
{
smooth = 0;
x = 373;
y = 66;
},
{
smooth = 0;
x = 428;
y = 108;
},
{
segmentType = curve;
smooth = 1;
x = 432;
y = 186;
},
{
smooth = 0;
x = 436;
y = 263;
},
{
smooth = 0;
x = 393;
y = 312;
},
{
segmentType = curve;
smooth = 1;
x = 291;
y = 340;
},
{
segmentType = line;
smooth = 1;
x = 218;
y = 360;
},
{
smooth = 0;
x = 99;
y = 393;
},
{
smooth = 0;
x = 31;
y = 467;
},
{
segmentType = curve;
smooth = 1;
x = 31;
y = 564;
},
{
smooth = 0;
x = 31;
y = 698;
},
{
smooth = 0;
x = 117;
y = 771;
},
{
segmentType = curve;
smooth = 1;
x = 242;
y = 777;
},
{
smooth = 0;
x = 375;
y = 783;
},
{
smooth = 0;
x = 458;
y = 715;
},
{
segmentType = curve;
smooth = 0;
x = 478;
y = 694;
},
{
segmentType = line;
smooth = 0;
x = 478;
y = 594;
},
{
smooth = 0;
x = 452;
y = 623;
},
{
smooth = 0;
x = 369;
y = 701;
},
{
segmentType = curve;
smooth = 1;
x = 249;
y = 697;
},
{
smooth = 0;
x = 159;
y = 694;
},
{
smooth = 0;
x = 111;
y = 644;
},
{
segmentType = curve;
smooth = 1;
x = 111;
y = 573;
},
{
smooth = 0;
x = 111;
y = 504;
},
{
smooth = 0;
x = 158;
y = 465;
},
{
segmentType = curve;
smooth = 1;
x = 253;
y = 436;
}
);
}
);
lib = {
};
name = S;
unicodes = (
);
width = 571;
};
};
com.typesupply.AccentFactory.yCoordinates = {
bottom = {
name = origin;
type = glyphMetric;
};
top = {
name = capHeight;
type = fontInfo;
};
};
};
},
{
glyphname = T;
lastChange = "2015-12-30 05:56:37 +0000";
layers = (
{
layerId = "6FDD6D71-1703-4D62-BB36-645A25EBC0A3";
name = Light;
paths = (
{
closed = 1;
nodes = (
"262 688 LINE",
"262 0 LINE",
"292 0 LINE",
"292 688 LINE"
);
},
{
closed = 1;
nodes = (
"9 660 LINE",
"545 660 LINE",
"545 688 LINE",
"9 688 LINE"
);
}
);
width = 554;
},
{
layerId = "DC46B086-4DC3-4260-9EBF-C204FB70037C";
name = Bold;
paths = (
{
closed = 1;
nodes = (
"216 688 LINE",
"216 0 LINE",
"386 0 LINE",
"386 688 LINE"
);
},
{
closed = 1;
nodes = (
"10 528 LINE",
"592 528 LINE",
"592 688 LINE",
"10 688 LINE"
);
}
);
width = 602;
}
);
unicode = 0054;
userData = {
com.typesupply.AccentFactory.yCoordinates = {
bottom = {
name = origin;
type = glyphMetric;
};
top = {
name = capHeight;
type = fontInfo;
};
};
};
},
{
glyphname = Tbar;
lastChange = "2015-12-30 05:56:37 +0000";
layers = (
{
layerId = "6FDD6D71-1703-4D62-BB36-645A25EBC0A3";
name = Light;
paths = (
{
closed = 1;
nodes = (
"262 688 LINE",
"262 0 LINE",
"292 0 LINE",
"292 688 LINE"
);
},
{
closed = 1;
nodes = (
"9 660 LINE",
"545 660 LINE",
"545 688 LINE",
"9 688 LINE"
);
},
{
closed = 1;
nodes = (
"92 330 LINE",
"462 330 LINE",
"462 358 LINE",
"92 358 LINE"
);
}
);
width = 554;
},
{
layerId = "DC46B086-4DC3-4260-9EBF-C204FB70037C";
name = Bold;
paths = (
{
closed = 1;
nodes = (
"216 688 LINE",
"216 0 LINE",
"386 0 LINE",
"386 688 LINE"
);
},
{
closed = 1;
nodes = (
"10 528 LINE",
"592 528 LINE",
"592 688 LINE",
"10 688 LINE"
);
},
{
closed = 1;
nodes = (
"88 274 LINE",
"514 274 LINE",
"514 414 LINE",
"88 414 LINE"
);
}
);
width = 602;
}
);
unicode = 0166;
},
{
glyphname = U;
lastChange = "2015-12-30 05:56:37 +0000";
layers = (
{
layerId = "6FDD6D71-1703-4D62-BB36-645A25EBC0A3";
name = Light;
paths = (
{
closed = 1;
nodes = (
"634 688 LINE",
"604 688 LINE",
"604 285 LINE SMOOTH",
"604 129 OFFCURVE",
"531 18 OFFCURVE",
"364 18 CURVE SMOOTH",
"197 18 OFFCURVE",
"124 129 OFFCURVE",
"124 285 CURVE SMOOTH",
"124 688 LINE",
"94 688 LINE",
"94 285 LINE SMOOTH",
"94 112 OFFCURVE",
"177 -10 OFFCURVE",
"364 -10 CURVE SMOOTH",
"551 -10 OFFCURVE",
"634 112 OFFCURVE",
"634 285 CURVE SMOOTH"
);
}
);
width = 728;
},
{
guideLines = (
{
angle = 90;
position = "{348, 213}";
}
);
layerId = "DC46B086-4DC3-4260-9EBF-C204FB70037C";
name = Bold;
paths = (
{
closed = 1;
nodes = (
"661 688 LINE",
"481 688 LINE",
"481 282 LINE",
"481 198 OFFCURVE",
"440 160 OFFCURVE",
"358 160 CURVE",
"276 160 OFFCURVE",
"235 198 OFFCURVE",
"235 282 CURVE",
"235 688 LINE",
"55 688 LINE",
"55 285 LINE",
"55 108 OFFCURVE",
"145 -10 OFFCURVE",
"358 -10 CURVE",
"571 -10 OFFCURVE",
"661 108 OFFCURVE",
"661 285 CURVE"
);
}
);
width = 716;
}
);
unicode = 0055;
userData = {
com.typesupply.AccentFactory.yCoordinates = {
bottom = {
name = origin;
type = glyphMetric;
};
top = {
name = capHeight;
type = fontInfo;
};
};
};
},
{
glyphname = V;
lastChange = "2015-12-30 05:56:37 +0000";
layers = (
{
layerId = "6FDD6D71-1703-4D62-BB36-645A25EBC0A3";
name = Light;
paths = (
{
closed = 1;
nodes = (
"314 0 LINE",
"346 0 LINE",
"650 688 LINE",
"618 688 LINE",
"330 32 LINE",
"42 688 LINE",
"10 688 LINE"
);
}
);
width = 660;
},
{
guideLines = (
{
angle = 90;
position = "{379, 245}";
}
);
layerId = "DC46B086-4DC3-4260-9EBF-C204FB70037C";
name = Bold;
paths = (
{
closed = 1;
nodes = (
"274 0 LINE",
"485 0 LINE",
"756 688 LINE",
"558 688 LINE",
"381 171 LINE",
"206 688 LINE",
"5 688 LINE"
);
}
);
width = 761;
}
);
unicode = 0056;
userData = {
com.typesupply.AccentFactory.yCoordinates = {
bottom = {
name = origin;
type = glyphMetric;
};
top = {
name = capHeight;
type = fontInfo;
};
};
};
},
{
glyphname = W;
lastChange = "2015-12-30 05:56:37 +0000";
layers = (
{
background = {
paths = (
{
closed = 1;
nodes = (
"232 0 LINE",
"331 0 LINE",
"491 510 LINE SMOOTH",
"513 581 OFFCURVE",
"533 656 OFFCURVE",
"533 683 CURVE",
"533 656 OFFCURVE",
"556 581 OFFCURVE",
"578 510 CURVE SMOOTH",
"738 0 LINE",
"837 0 LINE",
"1034 750 LINE",
"941 750 LINE",
"821 245 LINE SMOOTH",
"804 172 OFFCURVE",
"790 100 OFFCURVE",
"787 69 CURVE",
"786 98 OFFCURVE",
"767 171 OFFCURVE",
"744 242 CURVE SMOOTH",
"583 750 LINE",
"486 750 LINE",
"326 242 LINE SMOOTH",
"304 171 OFFCURVE",
"284 98 OFFCURVE",
"280 69 CURVE",
"280 101 OFFCURVE",
"266 172 OFFCURVE",
"249 245 CURVE SMOOTH",
"128 750 LINE",
"35 750 LINE"
);
}
);
};
layerId = "6FDD6D71-1703-4D62-BB36-645A25EBC0A3";
name = Light;
paths = (
{
closed = 1;
nodes = (
"229 0 LINE",
"262 0 LINE",
"504 654 LINE",
"746 0 LINE",
"778 0 LINE",
"982 688 LINE",
"950 688 LINE",
"761 41 LINE",
"522 688 LINE",
"485 688 LINE",
"246 39 LINE",
"57 688 LINE",
"25 688 LINE"
);
}
);
width = 1007;
},
{
background = {
paths = (
{
closed = 1;
nodes = (
"132 0 LINE",
"231 0 LINE",
"391 510 LINE SMOOTH",
"413 581 OFFCURVE",
"433 656 OFFCURVE",
"433 683 CURVE",
"433 656 OFFCURVE",
"456 581 OFFCURVE",
"478 510 CURVE SMOOTH",
"638 0 LINE",
"737 0 LINE",
"934 750 LINE",
"841 750 LINE",
"721 245 LINE SMOOTH",
"704 172 OFFCURVE",
"690 100 OFFCURVE",
"687 69 CURVE",
"686 98 OFFCURVE",
"667 171 OFFCURVE",
"644 242 CURVE SMOOTH",
"483 750 LINE",
"386 750 LINE",
"226 242 LINE SMOOTH",
"204 171 OFFCURVE",
"184 98 OFFCURVE",
"180 69 CURVE",
"180 101 OFFCURVE",
"166 172 OFFCURVE",
"149 245 CURVE SMOOTH",
"28 750 LINE",
"-65 750 LINE"
);
}
);
};
layerId = "DC46B086-4DC3-4260-9EBF-C204FB70037C";
name = Bold;
paths = (
{
closed = 1;
nodes = (
"177 0 LINE",
"406 0 LINE",
"516 481 LINE",
"626 0 LINE",
"855 0 LINE",
"1017 688 LINE",
"812 688 LINE",
"738 177 LINE",
"614 688 LINE",
"419 688 LINE",
"294 177 LINE",
"220 688 LINE",
"15 688 LINE"
);
}
);
width = 1032;
}
);
unicode = 0057;
userData = {
com.typemytype.robofont.layerData = {
background = {
anchors = (
);
components = (
);
contours = (
{
points = (
{
segmentType = line;
smooth = 0;
x = 232;
y = 0;
},
{
segmentType = line;
smooth = 0;
x = 331;
y = 0;
},
{
segmentType = line;
smooth = 1;
x = 491;
y = 510;
},
{
smooth = 0;
x = 513;
y = 581;
},
{
smooth = 0;
x = 533;
y = 656;
},
{
segmentType = curve;
smooth = 0;
x = 533;
y = 683;
},
{
smooth = 0;
x = 533;
y = 656;
},
{
smooth = 0;
x = 556;
y = 581;
},
{
segmentType = curve;
smooth = 1;
x = 578;
y = 510;
},
{
segmentType = line;
smooth = 0;
x = 738;
y = 0;
},
{
segmentType = line;
smooth = 0;
x = 837;
y = 0;
},
{
segmentType = line;
smooth = 0;
x = 1034;
y = 750;
},
{
segmentType = line;
smooth = 0;
x = 941;
y = 750;
},
{
segmentType = line;
smooth = 1;
x = 821;
y = 245;
},
{
smooth = 0;
x = 804;
y = 172;
},
{
smooth = 0;
x = 790;
y = 100;
},
{
segmentType = curve;
smooth = 0;
x = 787;
y = 69;
},
{
smooth = 0;
x = 786;
y = 98;
},
{
smooth = 0;
x = 767;
y = 171;
},
{
segmentType = curve;
smooth = 1;
x = 744;
y = 242;
},
{
segmentType = line;
smooth = 0;
x = 583;
y = 750;
},
{
segmentType = line;
smooth = 0;
x = 486;
y = 750;
},
{
segmentType = line;
smooth = 1;
x = 326;
y = 242;
},
{
smooth = 0;
x = 304;
y = 171;
},
{
smooth = 0;
x = 284;
y = 98;
},
{
segmentType = curve;
smooth = 0;
x = 280;
y = 69;
},
{
smooth = 0;
x = 280;
y = 101;
},
{
smooth = 0;
x = 266;
y = 172;
},
{
segmentType = curve;
smooth = 1;
x = 249;
y = 245;
},
{
segmentType = line;
smooth = 0;
x = 128;
y = 750;
},
{
segmentType = line;
smooth = 0;
x = 35;
y = 750;
}
);
}
);
lib = {
};
name = W;
unicodes = (
);
width = 1007;
};
};
com.typesupply.AccentFactory.yCoordinates = {
bottom = {
name = origin;
type = glyphMetric;
};
top = {
name = capHeight;
type = fontInfo;
};
};
};
},
{
glyphname = X;
lastChange = "2015-12-30 05:56:37 +0000";
layers = (
{
guideLines = (
{
position = "{338, 375}";
}
);
layerId = "6FDD6D71-1703-4D62-BB36-645A25EBC0A3";
name = Light;
paths = (
{
closed = 1;
nodes = (
"53 0 LINE",
"300 340 LINE",
"309 340 LINE",
"572 688 LINE",
"535 688 LINE",
"294 367 LINE",
"281 361 LINE",
"20 0 LINE"
);
},
{
closed = 1;
nodes = (
"539 0 LINE",
"572 0 LINE",
"311 361 LINE",
"300 367 LINE",
"57 688 LINE",
"20 688 LINE",
"283 340 LINE",
"290 340 LINE"
);
}
);
width = 592;
},
{
background = {
paths = (
{
closed = 1;
nodes = (
"542 0 LINE",
"636 0 LINE",
"373 392 LINE",
"345 399 LINE",
"103 750 LINE",
"5 750 LINE",
"270 372 LINE",
"294 371 LINE"
);
},
{
closed = 1;
nodes = (
"96 0 LINE",
"344 371 LINE",
"368 372 LINE",
"633 750 LINE",
"537 750 LINE",
"295 399 LINE",
"267 392 LINE",
"4 0 LINE"
);
}
);
};
guideLines = (
{
position = "{338, 375}";
}
);
layerId = "DC46B086-4DC3-4260-9EBF-C204FB70037C";
name = Bold;
paths = (
{
closed = 1;
nodes = (
"200 0 LINE",
"388 320 LINE",
"446 314 LINE",
"691 688 LINE",
"498 688 LINE",
"310 368 LINE",
"252 374 LINE",
"7 0 LINE"
);
},
{
closed = 1;
nodes = (
"494 0 LINE",
"689 0 LINE",
"443 374 LINE",
"399 370 LINE",
"200 688 LINE",
"5 688 LINE",
"251 314 LINE",
"295 318 LINE"
);
}
);
width = 696;
}
);
unicode = 0058;
userData = {
com.typemytype.robofont.guides = (
{
angle = 0;
isGlobal = 0;
magnetic = 5;
x = 338;
y = 375;
}
);
com.typesupply.AccentFactory.yCoordinates = {
bottom = {
name = origin;
type = glyphMetric;
};
top = {
name = capHeight;
type = fontInfo;
};
};
};
},
{
glyphname = Y;
lastChange = "2015-12-30 05:56:37 +0000";
layers = (
{
background = {
paths = (
{
closed = 1;
nodes = (
"255 310 LINE",
"255 0 LINE",
"335 0 LINE",
"335 310 LINE"
);
},
{
closed = 1;
nodes = (
"266 265 LINE",
"324 265 LINE",
"615 750 LINE",
"525 750 LINE",
"297 360 LINE",
"67 750 LINE",
"-25 750 LINE"
);
}
);
};
layerId = "6FDD6D71-1703-4D62-BB36-645A25EBC0A3";
name = Light;
paths = (
{
closed = 1;
nodes = (
"300 293 LINE",
"565 688 LINE",
"532 688 LINE",
"285 322 LINE",
"38 688 LINE",
"5 688 LINE",
"270 293 LINE",
"270 0 LINE",
"300 0 LINE"
);
}
);
width = 570;
},
{
layerId = "DC46B086-4DC3-4260-9EBF-C204FB70037C";
name = Bold;
paths = (
{
closed = 1;
nodes = (
"443 241 LINE",
"715 688 LINE",
"522 688 LINE",
"360 395 LINE",
"195 688 LINE",
"0 688 LINE",
"273 239 LINE",
"273 0 LINE",
"443 0 LINE"
);
}
);
width = 715;
}
);
unicode = 0059;
userData = {
com.typemytype.robofont.layerData = {
background = {
anchors = (
);
components = (
);
contours = (
{
points = (
{
segmentType = line;
smooth = 0;
x = 255;
y = 310;
},
{
segmentType = line;
smooth = 0;
x = 255;
y = 0;
},
{
segmentType = line;
smooth = 0;
x = 335;
y = 0;
},
{
segmentType = line;
smooth = 0;
x = 335;
y = 310;
}
);
},
{
points = (
{
segmentType = line;
smooth = 0;
x = 266;
y = 265;
},
{
segmentType = line;
smooth = 0;
x = 324;
y = 265;
},
{
segmentType = line;
smooth = 0;
x = 615;
y = 750;
},
{
segmentType = line;
smooth = 0;
x = 525;
y = 750;
},
{
segmentType = line;
smooth = 0;
x = 297;
y = 360;
},
{
segmentType = line;
smooth = 0;
x = 67;
y = 750;
},
{
segmentType = line;
smooth = 0;
x = -25;
y = 750;
}
);
}
);
lib = {
};
name = Y;
unicodes = (
);
width = 570;
};
};
com.typesupply.AccentFactory.yCoordinates = {
bottom = {
name = origin;
type = glyphMetric;
};
top = {
name = capHeight;
type = fontInfo;
};
};
};
},
{
glyphname = Z;
lastChange = "2015-12-30 05:56:37 +0000";
layers = (
{
layerId = "6FDD6D71-1703-4D62-BB36-645A25EBC0A3";
name = Light;
paths = (
{
closed = 1;
nodes = (
"39 26 LINE",
"39 0 LINE",
"620 0 LINE",
"620 28 LINE",
"75 28 LINE",
"590 662 LINE",
"590 688 LINE",
"78 688 LINE",
"78 660 LINE",
"551 660 LINE"
);
}
);
width = 659;
},
{
layerId = "DC46B086-4DC3-4260-9EBF-C204FB70037C";
name = Bold;
paths = (
{
closed = 1;
nodes = (
"35 140 LINE",
"35 0 LINE",
"628 0 LINE",
"628 160 LINE",
"255 160 LINE",
"608 548 LINE",
"608 688 LINE",
"55 688 LINE",
"55 528 LINE",
"387 528 LINE"
);
}
);
width = 663;
}
);
unicode = 005A;
userData = {
com.typesupply.AccentFactory.yCoordinates = {
bottom = {
name = origin;
type = glyphMetric;
};
top = {
name = capHeight;
type = fontInfo;
};
};
};
},
{
glyphname = a;
lastChange = "2015-12-30 05:56:37 +0000";
layers = (
{
background = {
paths = (
{
closed = 1;
nodes = (
"446 146 LINE",
"407.125 88.711 OFFCURVE",
"295.68 60 OFFCURVE",
"225 60 CURVE SMOOTH",
"149.516 60 OFFCURVE",
"69 82 OFFCURVE",
"69 133 CURVE SMOOTH",
"69 183 OFFCURVE",
"151 232 OFFCURVE",
"351 232 CURVE SMOOTH",
"380.091 232 OFFCURVE",
"412.154 232.904 OFFCURVE",
"447 230 CURVE",
"448 292 LINE",
"412.177 294.756 OFFCURVE",
"369.354 295 OFFCURVE",
"339 295 CURVE SMOOTH",
"140 295 OFFCURVE",
"64 208 OFFCURVE",
"64 125 CURVE SMOOTH",
"64 39 OFFCURVE",
"150.458 -10 OFFCURVE",
"239 -10 CURVE",
"331.874 -10 OFFCURVE",
"411 42 OFFCURVE",
"447 143 CURVE"
);
},
{
closed = 1;
nodes = (
"445 349 CURVE",
"445 0 LINE",
"450 0 LINE",
"450 328 LINE",
"450 453 OFFCURVE",
"421 540 OFFCURVE",
"268 540 CURVE SMOOTH",
"177 540 OFFCURVE",
"106 501 OFFCURVE",
"67 461 CURVE",
"67 371 LINE",
"108 413 OFFCURVE",
"190 465 OFFCURVE",
"276 465 CURVE SMOOTH",
"381 465 OFFCURVE",
"445 424 OFFCURVE"
);
}
);
};
guideLines = (
{
position = "{190, 540}";
}
);
layerId = "6FDD6D71-1703-4D62-BB36-645A25EBC0A3";
name = Light;
paths = (
{
closed = 1;
nodes = (
"437 131 LINE",
"380 71 OFFCURVE",
"307 18 OFFCURVE",
"218 18 CURVE",
"147 18 OFFCURVE",
"89 48 OFFCURVE",
"89 122 CURVE",
"89 197 OFFCURVE",
"157 257 OFFCURVE",
"306 257 CURVE",
"357 257 OFFCURVE",
"411 245 OFFCURVE",
"435 235 CURVE",
"433 263 LINE",
"407 272 OFFCURVE",
"357 283 OFFCURVE",
"294 283 CURVE",
"138 283 OFFCURVE",
"59 209 OFFCURVE",
"59 122 CURVE",
"59 46 OFFCURVE",
"109 -10 OFFCURVE",
"218 -10 CURVE",
"315 -10 OFFCURVE",
"391 47 OFFCURVE",
"439 105 CURVE"
);
},
{
closed = 1;
nodes = (
"425 349 CURVE",
"425 108 LINE",
"427 104 LINE",
"427 0 LINE",
"455 0 LINE",
"455 344 LINE",
"455 488 OFFCURVE",
"361 540 OFFCURVE",
"262 540 CURVE",
"168 540 OFFCURVE",
"93 491 OFFCURVE",
"60 453 CURVE",
"60 418 LINE",
"104 467 OFFCURVE",
"170 512 OFFCURVE",
"262 512 CURVE",
"345 512 OFFCURVE",
"425 469 OFFCURVE"
);
}
);
width = 539;
},
{
background = {
paths = (
{
closed = 1;
nodes = (
"380 146 LINE",
"342 90 OFFCURVE",
"229 60 OFFCURVE",
"171 60 CURVE SMOOTH",
"104 60 OFFCURVE",
"33 82 OFFCURVE",
"33 133 CURVE SMOOTH",
"33 183 OFFCURVE",
"115 232 OFFCURVE",
"315 232 CURVE SMOOTH",
"335 232 OFFCURVE",
"357 232 OFFCURVE",
"381 230 CURVE",
"382 292 LINE",
"356 294 OFFCURVE",
"325 295 OFFCURVE",
"303 295 CURVE SMOOTH",
"104 295 OFFCURVE",
"28 208 OFFCURVE",
"28 125 CURVE SMOOTH",
"28 39 OFFCURVE",
"103 -10 OFFCURVE",
"179 -10 CURVE SMOOTH",
"260 -10 OFFCURVE",
"340 38 OFFCURVE",
"381 113 CURVE"
);
},
{
closed = 1;
nodes = (
"379 349 CURVE",
"379 0 LINE",
"384 0 LINE",
"384 328 LINE",
"384 453 OFFCURVE",
"359 540 OFFCURVE",
"214 540 CURVE SMOOTH",
"131 540 OFFCURVE",
"61 495 OFFCURVE",
"31 451 CURVE",
"31 371 LINE",
"61 411 OFFCURVE",
"129 465 OFFCURVE",
"212 465 CURVE SMOOTH",
"315 465 OFFCURVE",
"379 424 OFFCURVE"
);
}
);
};
guideLines = (
{
position = "{190, 540}";
}
);
layerId = "DC46B086-4DC3-4260-9EBF-C204FB70037C";
name = Bold;
paths = (
{
closed = 1;
nodes = (
"346 135 LINE",
"321 120 OFFCURVE",
"272 110 OFFCURVE",
"233 110 CURVE SMOOTH",
"197 110 OFFCURVE",
"172 121 OFFCURVE",
"172 151 CURVE",
"172 184 OFFCURVE",
"212 198 OFFCURVE",
"271 198 CURVE",
"301 198 OFFCURVE",
"336 192 OFFCURVE",
"358 184 CURVE",
"352 278 LINE",
"333 289 OFFCURVE",
"293 303 OFFCURVE",
"236 303 CURVE",
"121 303 OFFCURVE",
"25 242 OFFCURVE",
"25 142 CURVE SMOOTH",
"25 42 OFFCURVE",
"96 -10 OFFCURVE",
"201 -10 CURVE",
"276 -10 OFFCURVE",
"332 25 OFFCURVE",
"357 58 CURVE"
);
},
{
closed = 1;
nodes = (
"339 293 CURVE",
"339 103 LINE",
"349 89 LINE",
"349 0 LINE",
"499 0 LINE",
"499 302 LINE",
"499 473 OFFCURVE",
"393 540 OFFCURVE",
"261 540 CURVE SMOOTH",
"159 540 OFFCURVE",
"72.435 498.411 OFFCURVE",
"36 464 CURVE",
"36 301 LINE",
"81.604 344.577 OFFCURVE",
"163.796 380 OFFCURVE",
"238 380 CURVE SMOOTH",
"296.523 380 OFFCURVE",
"339 353 OFFCURVE"
);
}
);
width = 546;
}
);
unicode = 0061;
userData = {
com.typemytype.robofont.guides = (
{
angle = 0;
isGlobal = 0;
magnetic = 5;
x = 190;
y = 540;
}
);
com.typemytype.robofont.layerData = {
background = {
anchors = (
);
components = (
);
contours = (
{
points = (
{
segmentType = line;
smooth = 0;
x = 446;
y = 146;
},
{
smooth = 0;
x = 407.125;
y = 88.711;
},
{
smooth = 0;
x = 295.68;
y = 60;
},
{
segmentType = curve;
smooth = 1;
x = 225;
y = 60;
},
{
smooth = 0;
x = 149.516;
y = 60;
},
{
smooth = 0;
x = 69;
y = 82;
},
{
segmentType = curve;
smooth = 1;
x = 69;
y = 133;
},
{
smooth = 0;
x = 69;
y = 183;
},
{
smooth = 0;
x = 151;
y = 232;
},
{
segmentType = curve;
smooth = 1;
x = 351;
y = 232;
},
{
smooth = 0;
x = 380.091;
y = 232;
},
{
smooth = 0;
x = 412.154;
y = 232.904;
},
{
segmentType = curve;
smooth = 0;
x = 447;
y = 230;
},
{
segmentType = line;
smooth = 0;
x = 448;
y = 292;
},
{
smooth = 0;
x = 412.177;
y = 294.756;
},
{
smooth = 0;
x = 369.354;
y = 295;
},
{
segmentType = curve;
smooth = 1;
x = 339;
y = 295;
},
{
smooth = 0;
x = 140;
y = 295;
},
{
smooth = 0;
x = 64;
y = 208;
},
{
segmentType = curve;
smooth = 1;
x = 64;
y = 125;
},
{
smooth = 0;
x = 64;
y = 39;
},
{
smooth = 0;
x = 150.458;
y = -10;
},
{
segmentType = curve;
smooth = 0;
x = 239;
y = -10;
},
{
smooth = 0;
x = 331.874;
y = -10;
},
{
smooth = 0;
x = 411;
y = 42;
},
{
segmentType = curve;
smooth = 0;
x = 447;
y = 143;
}
);
},
{
points = (
{
segmentType = curve;
smooth = 0;
x = 445;
y = 349;
},
{
segmentType = line;
smooth = 0;
x = 445;
y = 0;
},
{
segmentType = line;
smooth = 0;
x = 450;
y = 0;
},
{
segmentType = line;
smooth = 0;
x = 450;
y = 328;
},
{
smooth = 0;
x = 450;
y = 453;
},
{
smooth = 0;
x = 421;
y = 540;
},
{
segmentType = curve;
smooth = 1;
x = 268;
y = 540;
},
{
smooth = 0;
x = 177;
y = 540;
},
{
smooth = 0;
x = 106;
y = 501;
},
{
segmentType = curve;
smooth = 0;
x = 67;
y = 461;
},
{
segmentType = line;
smooth = 0;
x = 67;
y = 371;
},
{
smooth = 0;
x = 108;
y = 413;
},
{
smooth = 0;
x = 190;
y = 465;
},
{
segmentType = curve;
smooth = 1;
x = 276;
y = 465;
},
{
smooth = 0;
x = 381;
y = 465;
},
{
smooth = 0;
x = 445;
y = 424;
}
);
}
);
lib = {
};
name = a;
unicodes = (
);
width = 539;
};
};
com.typesupply.AccentFactory.yCoordinates = {
bottom = {
name = origin;
type = glyphMetric;
};
top = {
name = xHeight;
type = fontInfo;
};
};
};
},
{
glyphname = ae;
lastChange = "2015-12-30 05:56:37 +0000";
layers = (
{
layerId = "6FDD6D71-1703-4D62-BB36-645A25EBC0A3";
name = Light;
paths = (
{
closed = 1;
nodes = (
"435 235 CURVE",
"436 263 LINE",
"409 272 OFFCURVE",
"358 283 OFFCURVE",
"294 283 CURVE",
"129 283 OFFCURVE",
"59 211 OFFCURVE",
"59 126 CURVE",
"59 49 OFFCURVE",
"110 -10 OFFCURVE",
"223 -10 CURVE",
"328 -10 OFFCURVE",
"407 43 OFFCURVE",
"462 124 CURVE",
"450 144 LINE",
"388 57 OFFCURVE",
"315 18 OFFCURVE",
"223 18 CURVE",
"149 18 OFFCURVE",
"89 50 OFFCURVE",
"89 126 CURVE",
"89 199 OFFCURVE",
"148 257 OFFCURVE",
"306 257 CURVE",
"357 257 OFFCURVE",
"411 245 OFFCURVE"
);
},
{
closed = 1;
nodes = (
"425 349 CURVE",
"425 257 LINE",
"455 257 LINE",
"455 344 LINE",
"455 488 OFFCURVE",
"368 540 OFFCURVE",
"265 540 CURVE",
"169 540 OFFCURVE",
"102 488 OFFCURVE",
"70 451 CURVE",
"70 416 LINE",
"114 465 OFFCURVE",
"171 512 OFFCURVE",
"265 512 CURVE",
"352 512 OFFCURVE",
"425 469 OFFCURVE"
);
},
{
closed = 1;
nodes = (
"455 270 LINE SMOOTH",
"455 430 OFFCURVE",
"548 512 OFFCURVE",
"663 512 CURVE",
"783 512 OFFCURVE",
"851 431 OFFCURVE",
"855 278 CURVE",
"442 278 LINE",
"442 249 LINE",
"885 249 LINE",
"885 265 LINE",
"885 445 OFFCURVE",
"804 542 OFFCURVE",
"663 542 CURVE",
"527 542 OFFCURVE",
"425 445 OFFCURVE",
"425 265 CURVE SMOOTH",
"425 80 OFFCURVE",
"540 -10 OFFCURVE",
"690 -10 CURVE SMOOTH",
"750 -10 OFFCURVE",
"827 1 OFFCURVE",
"868 27 CURVE",
"868 58 LINE",
"833 33 OFFCURVE",
"753 20 OFFCURVE",
"690 20 CURVE SMOOTH",
"564 20 OFFCURVE",
"455 95 OFFCURVE",
"455 259 CURVE SMOOTH"
);
}
);
width = 947;
},
{
layerId = "DC46B086-4DC3-4260-9EBF-C204FB70037C";
name = Bold;
paths = (
{
closed = 1;
nodes = (
"358 184 CURVE",
"352 278 LINE",
"332 290 OFFCURVE",
"289 303 OFFCURVE",
"228 303 CURVE",
"117 303 OFFCURVE",
"25 242 OFFCURVE",
"25 142 CURVE SMOOTH",
"25 48 OFFCURVE",
"96 -10 OFFCURVE",
"205 -10 CURVE",
"305 -10 OFFCURVE",
"387 37 OFFCURVE",
"418 78 CURVE",
"374 146 LINE",
"342 126 OFFCURVE",
"294 110 OFFCURVE",
"236 110 CURVE",
"198 110 OFFCURVE",
"172 121 OFFCURVE",
"172 151 CURVE",
"172 184 OFFCURVE",
"212 198 OFFCURVE",
"271 198 CURVE",
"301 198 OFFCURVE",
"336 192 OFFCURVE"
);
},
{
closed = 1;
nodes = (
"339 293 CURVE",
"339 240 LINE",
"499 240 LINE",
"499 302 LINE",
"499 473 OFFCURVE",
"393 540 OFFCURVE",
"261 540 CURVE SMOOTH",
"161 540 OFFCURVE",
"77 498 OFFCURVE",
"41 464 CURVE",
"41 301 LINE",
"85 347 OFFCURVE",
"163 380 OFFCURVE",
"233 380 CURVE SMOOTH",
"294 380 OFFCURVE",
"339 353 OFFCURVE"
);
},
{
closed = 1;
nodes = (
"499 307 LINE SMOOTH",
"499 360 OFFCURVE",
"527 406 OFFCURVE",
"593 406 CURVE",
"658 406 OFFCURVE",
"682 368 OFFCURVE",
"682 322 CURVE",
"495 322 LINE",
"495 222 LINE",
"839 222 LINE",
"839 295 LINE",
"839 446 OFFCURVE",
"753 540 OFFCURVE",
"603 540 CURVE SMOOTH",
"443 540 OFFCURVE",
"339 430 OFFCURVE",
"339 265 CURVE",
"339 90 OFFCURVE",
"453 -10 OFFCURVE",
"627 -10 CURVE",
"714 -10 OFFCURVE",
"798 17 OFFCURVE",
"834 47 CURVE",
"834 185 LINE",
"791 165 OFFCURVE",
"724 140 OFFCURVE",
"646 140 CURVE SMOOTH",
"535 140 OFFCURVE",
"499 178 OFFCURVE",
"499 251 CURVE SMOOTH"
);
}
);
width = 874;
}
);
unicode = 00E6;
userData = {
com.typesupply.AccentFactory.yCoordinates = {
bottom = {
name = origin;
type = glyphMetric;
};
top = {
name = xHeight;
type = fontInfo;
};
};
};
},
{
glyphname = b;
lastChange = "2015-12-30 05:56:37 +0000";
layers = (
{
background = {
paths = (
{
closed = 1;
nodes = (
"169 60 LINE",
"169 770 LINE",
"89 750 LINE",
"89 27 LINE",
"144 7 OFFCURVE",
"210 -10 OFFCURVE",
"294 -10 CURVE",
"459 -10 OFFCURVE",
"560 119 OFFCURVE",
"560 275 CURVE",
"560 436 OFFCURVE",
"475 540 OFFCURVE",
"324 540 CURVE SMOOTH",
"240 540 OFFCURVE",
"172 499 OFFCURVE",
"144 467 CURVE",
"144 377 LINE",
"183 429 OFFCURVE",
"244 465 OFFCURVE",
"314 465 CURVE SMOOTH",
"421 465 OFFCURVE",
"478 391 OFFCURVE",
"478 275 CURVE",
"478 160 OFFCURVE",
"409 66 OFFCURVE",
"286 66 CURVE SMOOTH",
"231 66 OFFCURVE",
"180 79 OFFCURVE",
"144 91 CURVE"
);
}
);
};
layerId = "6FDD6D71-1703-4D62-BB36-645A25EBC0A3";
name = Light;
paths = (
{
closed = 1;
nodes = (
"119 698 LINE",
"119 27 LINE",
"99 53 LINE",
"150 35 OFFCURVE",
"208 18 OFFCURVE",
"284 18 CURVE SMOOTH",
"419 18 OFFCURVE",
"508 109 OFFCURVE",
"508 275 CURVE SMOOTH",
"508 416 OFFCURVE",
"431 512 OFFCURVE",
"307 512 CURVE",
"212 512 OFFCURVE",
"141 459 OFFCURVE",
"109 426 CURVE",
"109 457 LINE",
"137 487 OFFCURVE",
"212 540 OFFCURVE",
"307 540 CURVE",
"447 540 OFFCURVE",
"538 436 OFFCURVE",
"538 275 CURVE SMOOTH",
"538 91 OFFCURVE",
"432 -10 OFFCURVE",
"284 -10 CURVE SMOOTH",
"204 -10 OFFCURVE",
"142 8 OFFCURVE",
"89 27 CURVE",
"89 688 LINE"
);
}
);
width = 597;
},
{
background = {
paths = (
{
closed = 1;
nodes = (
"-40 60 LINE",
"-40 770 LINE",
"-120 750 LINE",
"-120 27 LINE",
"-65 7 OFFCURVE",
"1 -10 OFFCURVE",
"95 -10 CURVE",
"251 -10 OFFCURVE",
"341 119 OFFCURVE",
"341 275 CURVE",
"341 431 OFFCURVE",
"261 540 OFFCURVE",
"115 540 CURVE SMOOTH",
"31 540 OFFCURVE",
"-39 498 OFFCURVE",
"-65 447 CURVE",
"-65 357 LINE",
"-28 428 OFFCURVE",
"35 467 OFFCURVE",
"105 465 CURVE SMOOTH",
"206 462 OFFCURVE",
"259 386 OFFCURVE",
"259 275 CURVE",
"259 160 OFFCURVE",
"201 66 OFFCURVE",
"87 66 CURVE SMOOTH",
"24 66 OFFCURVE",
"-29 79 OFFCURVE",
"-65 91 CURVE"
);
}
);
};
layerId = "DC46B086-4DC3-4260-9EBF-C204FB70037C";
name = Bold;
paths = (
{
closed = 1;
nodes = (
"210 708 LINE",
"210 128 LINE",
"185 149 LINE",
"207 141 OFFCURVE",
"236 133 OFFCURVE",
"271 133 CURVE SMOOTH",
"344 133 OFFCURVE",
"409 155 OFFCURVE",
"409 267 CURVE",
"409 363 OFFCURVE",
"354 394 OFFCURVE",
"299 394 CURVE SMOOTH",
"254 394 OFFCURVE",
"211 383 OFFCURVE",
"185 369 CURVE",
"185 487 LINE",
"222 516 OFFCURVE",
"281 540 OFFCURVE",
"351 540 CURVE SMOOTH",
"468 540 OFFCURVE",
"575 461 OFFCURVE",
"575 277 CURVE",
"575 71 OFFCURVE",
"425 -10 OFFCURVE",
"280 -10 CURVE",
"176 -10 OFFCURVE",
"105 17 OFFCURVE",
"50 37 CURVE",
"50 688 LINE"
);
}
);
width = 605;
}
);
unicode = 0062;
userData = {
com.typemytype.robofont.layerData = {
background = {
anchors = (
);
components = (
);
contours = (
{
points = (
{
segmentType = line;
smooth = 0;
x = 169;
y = 60;
},
{
segmentType = line;
smooth = 0;
x = 169;
y = 770;
},
{
segmentType = line;
smooth = 0;
x = 89;
y = 750;
},
{
segmentType = line;
smooth = 0;
x = 89;
y = 27;
},
{
smooth = 0;
x = 144;
y = 7;
},
{
smooth = 0;
x = 210;
y = -10;
},
{
segmentType = curve;
smooth = 0;
x = 294;
y = -10;
},
{
smooth = 0;
x = 459;
y = -10;
},
{
smooth = 0;
x = 560;
y = 119;
},
{
segmentType = curve;
smooth = 0;
x = 560;
y = 275;
},
{
smooth = 0;
x = 560;
y = 436;
},
{
smooth = 0;
x = 475;
y = 540;
},
{
segmentType = curve;
smooth = 1;
x = 324;
y = 540;
},
{
smooth = 0;
x = 240;
y = 540;
},
{
smooth = 0;
x = 172;
y = 499;
},
{
segmentType = curve;
smooth = 0;
x = 144;
y = 467;
},
{
segmentType = line;
smooth = 0;
x = 144;
y = 377;
},
{
smooth = 0;
x = 183;
y = 429;
},
{
smooth = 0;
x = 244;
y = 465;
},
{
segmentType = curve;
smooth = 1;
x = 314;
y = 465;
},
{
smooth = 0;
x = 421;
y = 465;
},
{
smooth = 0;
x = 478;
y = 391;
},
{
segmentType = curve;
smooth = 0;
x = 478;
y = 275;
},
{
smooth = 0;
x = 478;
y = 160;
},
{
smooth = 0;
x = 409;
y = 66;
},
{
segmentType = curve;
smooth = 1;
x = 286;
y = 66;
},
{
smooth = 0;
x = 231;
y = 66;
},
{
smooth = 0;
x = 180;
y = 79;
},
{
segmentType = curve;
smooth = 0;
x = 144;
y = 91;
}
);
}
);
lib = {
};
name = b;
unicodes = (
);
width = 597;
};
};
com.typesupply.AccentFactory.yCoordinates = {
bottom = {
name = origin;
type = glyphMetric;
};
top = {
name = ascender;
type = fontInfo;
};
};
};
},
{
glyphname = c;
lastChange = "2015-12-30 05:56:37 +0000";
layers = (
{
anchors = (
{
name = center;
position = "{320, 266}";
}
);
guideLines = (
{
angle = 90;
position = "{463, 199}";
}
);
layerId = "6FDD6D71-1703-4D62-BB36-645A25EBC0A3";
name = Light;
paths = (
{
closed = 1;
nodes = (
"482 506 LINE",
"448 529 OFFCURVE",
"398 542 OFFCURVE",
"344 542 CURVE SMOOTH",
"183 542 OFFCURVE",
"59 435 OFFCURVE",
"59 265 CURVE SMOOTH",
"59 99 OFFCURVE",
"183 -10 OFFCURVE",
"344 -10 CURVE SMOOTH",
"398 -10 OFFCURVE",
"448 5 OFFCURVE",
"482 27 CURVE",
"482 58 LINE",
"453 37 OFFCURVE",
"401 20 OFFCURVE",
"344 20 CURVE SMOOTH",
"200 20 OFFCURVE",
"89 117 OFFCURVE",
"89 265 CURVE SMOOTH",
"89 416 OFFCURVE",
"200 512 OFFCURVE",
"344 512 CURVE SMOOTH",
"401 512 OFFCURVE",
"454 497 OFFCURVE",
"482 475 CURVE"
);
}
);
width = 531;
},
{
anchors = (
{
name = center;
position = "{323, 265}";
}
);
background = {
paths = (
{
closed = 1;
nodes = (
"60 265 CURVE",
"60 99 OFFCURVE",
"180 -10 OFFCURVE",
"335 -10 CURVE",
"401 -10 OFFCURVE",
"461 11 OFFCURVE",
"493 35 CURVE",
"493 113 LINE",
"456 86 OFFCURVE",
"396 69 OFFCURVE",
"335 69 CURVE SMOOTH",
"223 69 OFFCURVE",
"140 144 OFFCURVE",
"140 266 CURVE",
"140 390 OFFCURVE",
"223 467 OFFCURVE",
"335 467 CURVE SMOOTH",
"396 467 OFFCURVE",
"456 452 OFFCURVE",
"493 423 CURVE",
"493 497 LINE",
"461 523 OFFCURVE",
"401 542 OFFCURVE",
"335 542 CURVE SMOOTH",
"180 542 OFFCURVE",
"60 435 OFFCURVE"
);
}
);
};
guideLines = (
{
angle = 90;
position = "{463, 199}";
},
{
position = "{496, 265}";
}
);
layerId = "DC46B086-4DC3-4260-9EBF-C204FB70037C";
name = Bold;
paths = (
{
closed = 1;
nodes = (
"496 493 LINE",
"450 525 OFFCURVE",
"386 540 OFFCURVE",
"317 540 CURVE",
"154 540 OFFCURVE",
"30 426 OFFCURVE",
"30 265 CURVE SMOOTH",
"30 109 OFFCURVE",
"152 -10 OFFCURVE",
"315 -10 CURVE",
"385 -10 OFFCURVE",
"450 6 OFFCURVE",
"496 37 CURVE",
"496 196 LINE",
"444 160 OFFCURVE",
"384 140 OFFCURVE",
"322 140 CURVE",
"242 140 OFFCURVE",
"192 191 OFFCURVE",
"192 265 CURVE SMOOTH",
"192 342 OFFCURVE",
"242 390 OFFCURVE",
"323 390 CURVE",
"384 390 OFFCURVE",
"444 370 OFFCURVE",
"496 334 CURVE"
);
}
);
width = 526;
}
);
unicode = 0063;
userData = {
com.typemytype.robofont.guides = (
{
angle = 90;
isGlobal = 0;
magnetic = 5;
x = 463;
y = 199;
}
);
com.typesupply.AccentFactory.yCoordinates = {
bottom = {
name = origin;
type = glyphMetric;
};
top = {
name = xHeight;
type = fontInfo;
};
};
};
},
{
glyphname = d;
lastChange = "2015-12-30 05:56:37 +0000";
layers = (
{
background = {
paths = (
{
closed = 1;
nodes = (
"495 0 LINE",
"495 770 LINE",
"415 750 LINE",
"415 111 LINE",
"420 96 LINE",
"420 0 LINE"
);
},
{
closed = 1;
nodes = (
"465 507 LINE",
"434 521 OFFCURVE",
"386 542 OFFCURVE",
"308 542 CURVE SMOOTH",
"152 542 OFFCURVE",
"24 448 OFFCURVE",
"24 244 CURVE SMOOTH",
"24 78 OFFCURVE",
"122 -10 OFFCURVE",
"254 -10 CURVE SMOOTH",
"348 -10 OFFCURVE",
"414 42 OFFCURVE",
"440 93 CURVE",
"440 183 LINE",
"403 113 OFFCURVE",
"343 65 OFFCURVE",
"263 65 CURVE SMOOTH",
"167 65 OFFCURVE",
"106 133 OFFCURVE",
"106 244 CURVE SMOOTH",
"106 392 OFFCURVE",
"187 466 OFFCURVE",
"303 466 CURVE SMOOTH",
"361 466 OFFCURVE",
"414 451 OFFCURVE",
"440 439 CURVE"
);
}
);
};
layerId = "6FDD6D71-1703-4D62-BB36-645A25EBC0A3";
name = Light;
paths = (
{
closed = 1;
nodes = (
"328 512 CURVE",
"400 512 OFFCURVE",
"443 494 OFFCURVE",
"488 477 CURVE",
"498 503 LINE",
"451 521 OFFCURVE",
"404 540 OFFCURVE",
"328 540 CURVE",
"170 540 OFFCURVE",
"59 434 OFFCURVE",
"59 250 CURVE SMOOTH",
"59 89 OFFCURVE",
"150 -10 OFFCURVE",
"290 -10 CURVE",
"385 -10 OFFCURVE",
"460 43 OFFCURVE",
"488 73 CURVE",
"488 104 LINE",
"456 71 OFFCURVE",
"385 18 OFFCURVE",
"290 18 CURVE",
"166 18 OFFCURVE",
"89 109 OFFCURVE",
"89 250 CURVE SMOOTH",
"89 416 OFFCURVE",
"183 512 OFFCURVE"
);
},
{
closed = 1;
nodes = (
"478 88 LINE",
"480 84 LINE",
"480 0 LINE",
"508 0 LINE",
"508 698 LINE",
"478 688 LINE"
);
}
);
width = 597;
},
{
background = {
paths = (
{
closed = 1;
nodes = (
"516 0 LINE",
"516 770 LINE",
"436 750 LINE",
"436 0 LINE"
);
},
{
closed = 1;
nodes = (
"486 507 LINE",
"455 521 OFFCURVE",
"407 542 OFFCURVE",
"329 542 CURVE SMOOTH",
"182 542 OFFCURVE",
"55 448 OFFCURVE",
"55 244 CURVE SMOOTH",
"55 78 OFFCURVE",
"143 -10 OFFCURVE",
"275 -10 CURVE SMOOTH",
"369 -10 OFFCURVE",
"435 42 OFFCURVE",
"461 93 CURVE",
"461 183 LINE",
"424 113 OFFCURVE",
"364 65 OFFCURVE",
"284 65 CURVE SMOOTH",
"188 65 OFFCURVE",
"137 133 OFFCURVE",
"137 244 CURVE SMOOTH",
"137 392 OFFCURVE",
"217 466 OFFCURVE",
"324 466 CURVE SMOOTH",
"382 466 OFFCURVE",
"435 451 OFFCURVE",
"461 439 CURVE"
);
}
);
};
guideLines = (
{
position = "{291, 913}";
}
);
layerId = "DC46B086-4DC3-4260-9EBF-C204FB70037C";
name = Bold;
paths = (
{
closed = 1;
nodes = (
"344 397 CURVE SMOOTH",
"379 397 OFFCURVE",
"412 389 OFFCURVE",
"430 381 CURVE",
"477 519 LINE",
"435 531 OFFCURVE",
"396 540 OFFCURVE",
"335 540 CURVE",
"190 540 OFFCURVE",
"30 459 OFFCURVE",
"30 253 CURVE",
"30 60 OFFCURVE",
"159 -10 OFFCURVE",
"265 -10 CURVE",
"345 -10 OFFCURVE",
"393 15 OFFCURVE",
"430 53 CURVE",
"420 161 LINE",
"408 151 OFFCURVE",
"360 133 OFFCURVE",
"316 133 CURVE",
"246 133 OFFCURVE",
"196 172 OFFCURVE",
"196 265 CURVE",
"196 370 OFFCURVE",
"271 397 OFFCURVE"
);
},
{
closed = 1;
nodes = (
"395 116 LINE",
"405 98 LINE",
"405 0 LINE",
"555 0 LINE",
"555 708 LINE",
"395 688 LINE"
);
}
);
width = 605;
}
);
unicode = 0064;
userData = {
com.typemytype.robofont.layerData = {
background = {
anchors = (
);
components = (
);
contours = (
{
points = (
{
segmentType = line;
smooth = 0;
x = 495;
y = 0;
},
{
segmentType = line;
smooth = 0;
x = 495;
y = 770;
},
{
segmentType = line;
smooth = 0;
x = 415;
y = 750;
},
{
segmentType = line;
smooth = 0;
x = 415;
y = 111;
},
{
segmentType = line;
smooth = 0;
x = 420;
y = 96;
},
{
segmentType = line;
smooth = 0;
x = 420;
y = 0;
}
);
},
{
points = (
{
segmentType = line;
smooth = 0;
x = 465;
y = 507;
},
{
smooth = 0;
x = 434;
y = 521;
},
{
smooth = 0;
x = 386;
y = 542;
},
{
segmentType = curve;
smooth = 1;
x = 308;
y = 542;
},
{
smooth = 0;
x = 152;
y = 542;
},
{
smooth = 0;
x = 24;
y = 448;
},
{
segmentType = curve;
smooth = 1;
x = 24;
y = 244;
},
{
smooth = 0;
x = 24;
y = 78;
},
{
smooth = 0;
x = 122;
y = -10;
},
{
segmentType = curve;
smooth = 1;
x = 254;
y = -10;
},
{
smooth = 0;
x = 348;
y = -10;
},
{
smooth = 0;
x = 414;
y = 42;
},
{
segmentType = curve;
smooth = 0;
x = 440;
y = 93;
},
{
segmentType = line;
smooth = 0;
x = 440;
y = 183;
},
{
smooth = 0;
x = 403;
y = 113;
},
{
smooth = 0;
x = 343;
y = 65;
},
{
segmentType = curve;
smooth = 1;
x = 263;
y = 65;
},
{
smooth = 0;
x = 167;
y = 65;
},
{
smooth = 0;
x = 106;
y = 133;
},
{
segmentType = curve;
smooth = 1;
x = 106;
y = 244;
},
{
smooth = 0;
x = 106;
y = 392;
},
{
smooth = 0;
x = 187;
y = 466;
},
{
segmentType = curve;
smooth = 1;
x = 303;
y = 466;
},
{
smooth = 0;
x = 361;
y = 466;
},
{
smooth = 0;
x = 414;
y = 451;
},
{
segmentType = curve;
smooth = 0;
x = 440;
y = 439;
}
);
}
);
lib = {
};
name = d;
unicodes = (
);
width = 597;
};
};
com.typesupply.AccentFactory.yCoordinates = {
bottom = {
name = origin;
type = glyphMetric;
};
top = {
name = ascender;
type = fontInfo;
};
};
};
},
{
glyphname = eth;
lastChange = "2015-12-30 05:56:37 +0000";
layers = (
{
layerId = "6FDD6D71-1703-4D62-BB36-645A25EBC0A3";
name = Light;
paths = (
{
closed = 1;
nodes = (
"291 442 CURVE",
"170 442 OFFCURVE",
"59 368 OFFCURVE",
"59 226 CURVE",
"59 77 OFFCURVE",
"164 -10 OFFCURVE",
"303 -10 CURVE",
"441 -10 OFFCURVE",
"557 74 OFFCURVE",
"557 266 CURVE",
"557 466 OFFCURVE",
"374 635 OFFCURVE",
"275 688 CURVE",
"228 688 LINE",
"311 645 OFFCURVE",
"497 500 OFFCURVE",
"525 313 CURVE",
"525 303 LINE",
"526 291 OFFCURVE",
"527 278 OFFCURVE",
"527 266 CURVE",
"527 92 OFFCURVE",
"426 18 OFFCURVE",
"303 18 CURVE",
"178 18 OFFCURVE",
"89 95 OFFCURVE",
"89 226 CURVE",
"89 349 OFFCURVE",
"184 414 OFFCURVE",
"291 414 CURVE",
"406 414 OFFCURVE",
"481 356 OFFCURVE",
"532 286 CURVE",
"537 305 LINE",
"500 374 OFFCURVE",
"414 442 OFFCURVE"
);
},
{
closed = 1;
nodes = (
"186 507 LINE",
"231 507 LINE",
"538 688 LINE",
"493 688 LINE"
);
}
);
width = 616;
},
{
layerId = "DC46B086-4DC3-4260-9EBF-C204FB70037C";
name = Bold;
paths = (
{
closed = 1;
nodes = (
"258 447 CURVE",
"117 447 OFFCURVE",
"30 348 OFFCURVE",
"30 233 CURVE SMOOTH",
"30 84 OFFCURVE",
"141 -10 OFFCURVE",
"316 -10 CURVE SMOOTH",
"499 -10 OFFCURVE",
"600 103 OFFCURVE",
"600 267 CURVE",
"600 465 OFFCURVE",
"454 619 OFFCURVE",
"348 688 CURVE",
"115 688 LINE",
"196 633 OFFCURVE",
"341 514 OFFCURVE",
"410 396 CURVE",
"391 376 LINE",
"410 337 OFFCURVE",
"420 308 OFFCURVE",
"420 271 CURVE",
"420 196 OFFCURVE",
"375 151 OFFCURVE",
"309 151 CURVE",
"251 151 OFFCURVE",
"209 182 OFFCURVE",
"209 233 CURVE SMOOTH",
"209 276 OFFCURVE",
"245 310 OFFCURVE",
"310 310 CURVE",
"371 310 OFFCURVE",
"435 281 OFFCURVE",
"467 250 CURVE",
"459 351 LINE",
"434 388 OFFCURVE",
"367 447 OFFCURVE"
);
},
{
closed = 1;
nodes = (
"56 484 LINE",
"194 484 LINE",
"611 688 LINE",
"472 688 LINE"
);
}
);
width = 641;
}
);
unicode = 00F0;
},
{
glyphname = dcroat;
lastChange = "2015-12-30 05:56:37 +0000";
layers = (
{
layerId = "6FDD6D71-1703-4D62-BB36-645A25EBC0A3";
name = Light;
paths = (
{
closed = 1;
nodes = (
"328 482 CURVE",
"400 482 OFFCURVE",
"443 464 OFFCURVE",
"488 447 CURVE",
"498 473 LINE",
"451 491 OFFCURVE",
"404 510 OFFCURVE",
"328 510 CURVE",
"170 510 OFFCURVE",
"59 411 OFFCURVE",
"59 240 CURVE SMOOTH",
"59 85 OFFCURVE",
"150 -10 OFFCURVE",
"290 -10 CURVE",
"385 -10 OFFCURVE",
"460 43 OFFCURVE",
"488 73 CURVE",
"488 104 LINE",
"456 71 OFFCURVE",
"385 18 OFFCURVE",
"290 18 CURVE",
"166 18 OFFCURVE",
"89 105 OFFCURVE",
"89 240 CURVE SMOOTH",
"89 393 OFFCURVE",
"183 482 OFFCURVE"
);
},
{
closed = 1;
nodes = (
"478 88 LINE",
"480 84 LINE",
"480 0 LINE",
"508 0 LINE",
"508 698 LINE",
"478 688 LINE"
);
},
{
closed = 1;
nodes = (
"288 585 LINE",
"608 585 LINE",
"608 613 LINE",
"288 613 LINE"
);
}
);
width = 622;
},
{
layerId = "DC46B086-4DC3-4260-9EBF-C204FB70037C";
name = Bold;
paths = (
{
closed = 1;
nodes = (
"344 377 CURVE SMOOTH",
"379 377 OFFCURVE",
"412 369 OFFCURVE",
"430 361 CURVE",
"477 499 LINE",
"435 511 OFFCURVE",
"396 520 OFFCURVE",
"335 520 CURVE",
"190 520 OFFCURVE",
"30 442 OFFCURVE",
"30 243 CURVE",
"30 57 OFFCURVE",
"159 -10 OFFCURVE",
"265 -10 CURVE",
"345 -10 OFFCURVE",
"393 15 OFFCURVE",
"430 53 CURVE",
"420 161 LINE",
"408 151 OFFCURVE",
"360 133 OFFCURVE",
"316 133 CURVE",
"246 133 OFFCURVE",
"196 169 OFFCURVE",
"196 255 CURVE",
"196 352 OFFCURVE",
"271 377 OFFCURVE"
);
},
{
closed = 1;
nodes = (
"395 116 LINE",
"405 98 LINE",
"405 0 LINE",
"555 0 LINE",
"555 708 LINE",
"395 688 LINE"
);
},
{
closed = 1;
nodes = (
"213 557 LINE",
"625 557 LINE",
"625 638 LINE",
"213 638 LINE"
);
}
);
width = 635;
}
);
unicode = 0111;
},
{
glyphname = e;
lastChange = "2015-12-30 05:56:37 +0000";
layers = (
{
background = {
paths = (
{
closed = 1;
nodes = (
"313 -10 CURVE SMOOTH",
"373 -10 OFFCURVE",
"450 1 OFFCURVE",
"491 27 CURVE",
"491 58 LINE",
"456 33 OFFCURVE",
"376 20 OFFCURVE",
"313 20 CURVE SMOOTH",
"184 20 OFFCURVE",
"85 93 OFFCURVE",
"78 249 CURVE",
"508 249 LINE",
"508 265 LINE",
"508 445 OFFCURVE",
"427 542 OFFCURVE",
"286 542 CURVE",
"150 542 OFFCURVE",
"48 445 OFFCURVE",
"48 265 CURVE SMOOTH",
"48 80 OFFCURVE",
"163 -10 OFFCURVE"
);
},
{
closed = 1;
nodes = (
"286 512 CURVE",
"406 512 OFFCURVE",
"474 431 OFFCURVE",
"478 278 CURVE",
"78 278 LINE",
"83 431 OFFCURVE",
"168 512 OFFCURVE"
);
}
);
};
layerId = "6FDD6D71-1703-4D62-BB36-645A25EBC0A3";
name = Light;
paths = (
{
closed = 1;
nodes = (
"89 270 LINE SMOOTH",
"89 430 OFFCURVE",
"182 512 OFFCURVE",
"297 512 CURVE",
"417 512 OFFCURVE",
"485 431 OFFCURVE",
"489 278 CURVE",
"76 278 LINE",
"76 249 LINE",
"519 249 LINE",
"519 265 LINE",
"519 445 OFFCURVE",
"438 542 OFFCURVE",
"297 542 CURVE",
"161 542 OFFCURVE",
"59 445 OFFCURVE",
"59 265 CURVE SMOOTH",
"59 80 OFFCURVE",
"174 -10 OFFCURVE",
"324 -10 CURVE SMOOTH",
"384 -10 OFFCURVE",
"461 1 OFFCURVE",
"502 27 CURVE",
"502 58 LINE",
"467 33 OFFCURVE",
"387 20 OFFCURVE",
"324 20 CURVE SMOOTH",
"198 20 OFFCURVE",
"89 95 OFFCURVE",
"89 259 CURVE SMOOTH"
);
}
);
width = 581;
},
{
background = {
paths = (
{
closed = 1;
nodes = (
"101 220 LINE",
"515 220 LINE",
"515 290 LINE SMOOTH",
"515 450 OFFCURVE",
"428 540 OFFCURVE",
"290 540 CURVE SMOOTH",
"155 540 OFFCURVE",
"50 441 OFFCURVE",
"50 265 CURVE",
"50 69 OFFCURVE",
"165 -10 OFFCURVE",
"320 -10 CURVE",
"396 -10 OFFCURVE",
"475 16 OFFCURVE",
"507 45 CURVE",
"507 123 LINE",
"471 96 OFFCURVE",
"394 69 OFFCURVE",
"324 69 CURVE SMOOTH",
"212 69 OFFCURVE",
"129 121 OFFCURVE",
"129 250 CURVE",
"129 260 LINE",
"129 403 OFFCURVE",
"194 464 OFFCURVE",
"290 464 CURVE SMOOTH",
"385 464 OFFCURVE",
"434 400 OFFCURVE",
"434 290 CURVE",
"101 290 LINE"
);
}
);
};
layerId = "DC46B086-4DC3-4260-9EBF-C204FB70037C";
name = Bold;
paths = (
{
closed = 1;
nodes = (
"192 307 LINE SMOOTH",
"192 360 OFFCURVE",
"218 406 OFFCURVE",
"284 406 CURVE",
"349 406 OFFCURVE",
"373 368 OFFCURVE",
"373 322 CURVE",
"186 322 LINE",
"186 222 LINE",
"530 222 LINE",
"530 295 LINE",
"530 446 OFFCURVE",
"444 540 OFFCURVE",
"294 540 CURVE SMOOTH",
"134 540 OFFCURVE",
"30 430 OFFCURVE",
"30 265 CURVE",
"30 90 OFFCURVE",
"144 -10 OFFCURVE",
"318 -10 CURVE",
"405 -10 OFFCURVE",
"489 17 OFFCURVE",
"525 47 CURVE",
"525 185 LINE",
"482 165 OFFCURVE",
"415 140 OFFCURVE",
"337 140 CURVE SMOOTH",
"226 140 OFFCURVE",
"192 178 OFFCURVE",
"192 251 CURVE SMOOTH"
);
}
);
width = 565;
}
);
unicode = 0065;
userData = {
com.typemytype.robofont.layerData = {
background = {
anchors = (
);
components = (
);
contours = (
{
points = (
{
segmentType = curve;
smooth = 1;
x = 313;
y = -10;
},
{
smooth = 0;
x = 373;
y = -10;
},
{
smooth = 0;
x = 450;
y = 1;
},
{
segmentType = curve;
smooth = 0;
x = 491;
y = 27;
},
{
segmentType = line;
smooth = 0;
x = 491;
y = 58;
},
{
smooth = 0;
x = 456;
y = 33;
},
{
smooth = 0;
x = 376;
y = 20;
},
{
segmentType = curve;
smooth = 1;
x = 313;
y = 20;
},
{
smooth = 0;
x = 184;
y = 20;
},
{
smooth = 0;
x = 85;
y = 93;
},
{
segmentType = curve;
smooth = 0;
x = 78;
y = 249;
},
{
segmentType = line;
smooth = 0;
x = 508;
y = 249;
},
{
segmentType = line;
smooth = 0;
x = 508;
y = 265;
},
{
smooth = 0;
x = 508;
y = 445;
},
{
smooth = 0;
x = 427;
y = 542;
},
{
segmentType = curve;
smooth = 0;
x = 286;
y = 542;
},
{
smooth = 0;
x = 150;
y = 542;
},
{
smooth = 0;
x = 48;
y = 445;
},
{
segmentType = curve;
smooth = 1;
x = 48;
y = 265;
},
{
smooth = 0;
x = 48;
y = 80;
},
{
smooth = 0;
x = 163;
y = -10;
}
);
},
{
points = (
{
segmentType = curve;
smooth = 0;
x = 286;
y = 512;
},
{
smooth = 0;
x = 406;
y = 512;
},
{
smooth = 0;
x = 474;
y = 431;
},
{
segmentType = curve;
smooth = 0;
x = 478;
y = 278;
},
{
segmentType = line;
smooth = 0;
x = 78;
y = 278;
},
{
smooth = 0;
x = 83;
y = 431;
},
{
smooth = 0;
x = 168;
y = 512;
}
);
}
);
lib = {
};
name = e;
unicodes = (
);
width = 581;
};
};
com.typesupply.AccentFactory.yCoordinates = {
bottom = {
name = origin;
type = glyphMetric;
};
top = {
name = xHeight;
type = fontInfo;
};
};
};
},
{
glyphname = f;
lastChange = "2015-12-30 05:56:37 +0000";
layers = (
{
layerId = "6FDD6D71-1703-4D62-BB36-645A25EBC0A3";
name = Light;
paths = (
{
closed = 1;
nodes = (
"365 663 LINE",
"348 677 OFFCURVE",
"308 698 OFFCURVE",
"256 698 CURVE",
"192 698 OFFCURVE",
"121 659 OFFCURVE",
"121 551 CURVE",
"121 0 LINE",
"151 0 LINE",
"151 553 LINE",
"151 622 OFFCURVE",
"186 669 OFFCURVE",
"256 669 CURVE",
"301 669 OFFCURVE",
"339 652 OFFCURVE",
"365 632 CURVE"
);
},
{
closed = 1;
nodes = (
"38 502 LINE",
"308 502 LINE",
"308 530 LINE",
"38 530 LINE"
);
}
);
width = 344;
},
{
background = {
paths = (
{
closed = 1;
nodes = (
"32 455 LINE",
"352 455 LINE",
"352 530 LINE",
"32 530 LINE"
);
},
{
closed = 1;
nodes = (
"359 733 LINE",
"342 748 OFFCURVE",
"303 760 OFFCURVE",
"263 760 CURVE SMOOTH",
"186 760 OFFCURVE",
"115 709 OFFCURVE",
"115 571 CURVE",
"115 0 LINE",
"195 0 LINE",
"195 580 LINE",
"195 647 OFFCURVE",
"223 680 OFFCURVE",
"279 680 CURVE SMOOTH",
"310 680 OFFCURVE",
"338 669 OFFCURVE",
"359 653 CURVE"
);
}
);
};
layerId = "DC46B086-4DC3-4260-9EBF-C204FB70037C";
name = Bold;
paths = (
{
closed = 1;
nodes = (
"407 683 LINE",
"389 694 OFFCURVE",
"349 710 OFFCURVE",
"295 710 CURVE SMOOTH",
"169 710 OFFCURVE",
"80 642 OFFCURVE",
"80 510 CURVE",
"80 0 LINE",
"240 0 LINE",
"240 510 LINE",
"240 561 OFFCURVE",
"277 581 OFFCURVE",
"317 581 CURVE SMOOTH",
"352 581 OFFCURVE",
"390 568 OFFCURVE",
"407 555 CURVE"
);
},
{
closed = 1;
nodes = (
"10 390 LINE",
"365 390 LINE",
"365 530 LINE",
"10 530 LINE"
);
}
);
width = 397;
}
);
unicode = 0066;
userData = {
com.typesupply.AccentFactory.yCoordinates = {
bottom = {
name = origin;
type = glyphMetric;
};
top = {
name = ascender;
type = fontInfo;
};
};
};
},
{
glyphname = g;
lastChange = "2015-12-30 05:56:37 +0000";
layers = (
{
anchors = (
{
name = center;
position = "{313, 186}";
}
);
background = {
paths = (
{
closed = 1;
nodes = (
"245 204 CURVE",
"163 204 OFFCURVE",
"113 264 OFFCURVE",
"113 336 CURVE",
"113 409 OFFCURVE",
"163 468 OFFCURVE",
"245 468 CURVE",
"327 468 OFFCURVE",
"377 409 OFFCURVE",
"377 336 CURVE",
"377 264 OFFCURVE",
"327 204 OFFCURVE"
);
},
{
closed = 1;
nodes = (
"245 132 CURVE",
"371 132 OFFCURVE",
"454 224 OFFCURVE",
"454 336 CURVE",
"454 449 OFFCURVE",
"371 541 OFFCURVE",
"245 541 CURVE",
"117 541 OFFCURVE",
"36 449 OFFCURVE",
"36 336 CURVE",
"36 224 OFFCURVE",
"117 132 OFFCURVE"
);
},
{
closed = 1;
nodes = (
"447 -255 OFFCURVE",
"496 -144 OFFCURVE",
"496 -68 CURVE SMOOTH",
"496 -8 OFFCURVE",
"459 37 OFFCURVE",
"367 49 CURVE SMOOTH",
"177 73 LINE SMOOTH",
"149 77 OFFCURVE",
"127 83 OFFCURVE",
"127 106 CURVE SMOOTH",
"127 139 OFFCURVE",
"161 160 OFFCURVE",
"161 160 CURVE",
"107 180 LINE",
"79 163 OFFCURVE",
"49 122 OFFCURVE",
"48 81 CURVE SMOOTH",
"48 42 OFFCURVE",
"69 6 OFFCURVE",
"143 -3 CURVE SMOOTH",
"337 -27 LINE SMOOTH",
"394 -34 OFFCURVE",
"411 -57 OFFCURVE",
"411 -85 CURVE SMOOTH",
"411 -141 OFFCURVE",
"352 -180 OFFCURVE",
"236 -180 CURVE SMOOTH",
"146 -180 OFFCURVE",
"81 -143 OFFCURVE",
"81 -92 CURVE SMOOTH",
"81 -44 OFFCURVE",
"115 -13 OFFCURVE",
"155 9 CURVE",
"124 24 LINE",
"52 -3 OFFCURVE",
"0 -49 OFFCURVE",
"0 -114 CURVE SMOOTH",
"0 -188 OFFCURVE",
"81 -255 OFFCURVE",
"232 -255 CURVE SMOOTH"
);
},
{
closed = 1;
nodes = (
"360 500 CURVE",
"405 464 LINE",
"428 496 OFFCURVE",
"464 504 OFFCURVE",
"500 500 CURVE",
"500 585 LINE",
"435 586 OFFCURVE",
"387 554 OFFCURVE"
);
}
);
};
layerId = "6FDD6D71-1703-4D62-BB36-645A25EBC0A3";
name = Light;
paths = (
{
closed = 1;
nodes = (
"508 52 CURVE",
"508 498 LINE",
"462 518 OFFCURVE",
"404 540 OFFCURVE",
"328 540 CURVE",
"170 540 OFFCURVE",
"59 437 OFFCURVE",
"59 259 CURVE SMOOTH",
"59 105 OFFCURVE",
"150 20 OFFCURVE",
"290 20 CURVE",
"385 20 OFFCURVE",
"460 73 OFFCURVE",
"488 103 CURVE",
"488 134 LINE",
"456 101 OFFCURVE",
"385 48 OFFCURVE",
"290 48 CURVE",
"167 48 OFFCURVE",
"89 126 OFFCURVE",
"89 259 CURVE SMOOTH",
"89 419 OFFCURVE",
"184 512 OFFCURVE",
"328 512 CURVE",
"400 512 OFFCURVE",
"445 494 OFFCURVE",
"488 477 CURVE",
"478 498 LINE",
"478 52 LINE",
"478 -78 OFFCURVE",
"394 -140 OFFCURVE",
"282 -140 CURVE SMOOTH",
"193 -140 OFFCURVE",
"126 -105 OFFCURVE",
"78 -76 CURVE",
"78 -110 LINE",
"122 -136 OFFCURVE",
"195 -168 OFFCURVE",
"282 -168 CURVE SMOOTH",
"410 -168 OFFCURVE",
"508 -98 OFFCURVE"
);
}
);
width = 597;
},
{
anchors = (
{
name = center;
position = "{328, 186}";
}
);
background = {
paths = (
{
closed = 1;
nodes = (
"262 204 CURVE",
"180 204 OFFCURVE",
"130 264 OFFCURVE",
"130 336 CURVE",
"130 409 OFFCURVE",
"180 468 OFFCURVE",
"262 468 CURVE",
"344 468 OFFCURVE",
"394 409 OFFCURVE",
"394 336 CURVE",
"394 264 OFFCURVE",
"344 204 OFFCURVE"
);
},
{
closed = 1;
nodes = (
"262 132 CURVE",
"388 132 OFFCURVE",
"471 224 OFFCURVE",
"471 336 CURVE",
"471 449 OFFCURVE",
"388 541 OFFCURVE",
"262 541 CURVE",
"134 541 OFFCURVE",
"53 449 OFFCURVE",
"53 336 CURVE",
"53 224 OFFCURVE",
"134 132 OFFCURVE"
);
},
{
closed = 1;
nodes = (
"464 -255 OFFCURVE",
"513 -144 OFFCURVE",
"513 -68 CURVE SMOOTH",
"513 -8 OFFCURVE",
"476 37 OFFCURVE",
"384 49 CURVE SMOOTH",
"194 73 LINE SMOOTH",
"166 77 OFFCURVE",
"144 83 OFFCURVE",
"144 106 CURVE SMOOTH",
"144 139 OFFCURVE",
"178 160 OFFCURVE",
"178 160 CURVE",
"124 180 LINE",
"96 163 OFFCURVE",
"66 122 OFFCURVE",
"65 81 CURVE SMOOTH",
"65 42 OFFCURVE",
"86 6 OFFCURVE",
"160 -3 CURVE SMOOTH",
"354 -27 LINE SMOOTH",
"411 -34 OFFCURVE",
"428 -57 OFFCURVE",
"428 -85 CURVE SMOOTH",
"428 -141 OFFCURVE",
"369 -180 OFFCURVE",
"253 -180 CURVE SMOOTH",
"163 -180 OFFCURVE",
"98 -143 OFFCURVE",
"98 -92 CURVE SMOOTH",
"98 -44 OFFCURVE",
"132 -13 OFFCURVE",
"172 9 CURVE",
"141 24 LINE",
"69 -3 OFFCURVE",
"17 -49 OFFCURVE",
"17 -114 CURVE SMOOTH",
"17 -188 OFFCURVE",
"98 -255 OFFCURVE",
"249 -255 CURVE SMOOTH"
);
},
{
closed = 1;
nodes = (
"377 500 CURVE",
"422 464 LINE",
"445 496 OFFCURVE",
"481 504 OFFCURVE",
"517 500 CURVE",
"517 585 LINE",
"452 586 OFFCURVE",
"404 554 OFFCURVE"
);
}
);
};
layerId = "DC46B086-4DC3-4260-9EBF-C204FB70037C";
name = Bold;
paths = (
{
closed = 1;
nodes = (
"547 115 CURVE SMOOTH",
"547 493 LINE",
"494 514 OFFCURVE",
"423 540 OFFCURVE",
"323 540 CURVE",
"179 540 OFFCURVE",
"30 460 OFFCURVE",
"30 275 CURVE",
"30 141 OFFCURVE",
"126 57 OFFCURVE",
"251 57 CURVE SMOOTH",
"321 57 OFFCURVE",
"370 81 OFFCURVE",
"407 110 CURVE",
"407 228 LINE",
"380 214 OFFCURVE",
"338 201 OFFCURVE",
"298 201 CURVE SMOOTH",
"245 201 OFFCURVE",
"196 224 OFFCURVE",
"196 297 CURVE",
"196 367 OFFCURVE",
"254 397 OFFCURVE",
"322 397 CURVE SMOOTH",
"357 397 OFFCURVE",
"388 389 OFFCURVE",
"410 381 CURVE",
"387 398 LINE",
"387 90 LINE SMOOTH",
"387 28 OFFCURVE",
"357 -18 OFFCURVE",
"251 -18 CURVE",
"183 -18 OFFCURVE",
"118 7 OFFCURVE",
"69 44 CURVE",
"69 -117 LINE",
"113 -144 OFFCURVE",
"185 -168 OFFCURVE",
"269 -168 CURVE SMOOTH",
"418 -168 OFFCURVE",
"547 -94 OFFCURVE"
);
}
);
width = 595;
}
);
unicode = 0067;
userData = {
com.typemytype.robofont.guides = (
);
com.typemytype.robofont.layerData = {
background = {
anchors = (
);
components = (
);
contours = (
{
points = (
{
segmentType = curve;
smooth = 0;
x = 245;
y = 204;
},
{
smooth = 0;
x = 163;
y = 204;
},
{
smooth = 0;
x = 113;
y = 264;
},
{
segmentType = curve;
smooth = 0;
x = 113;
y = 336;
},
{
smooth = 0;
x = 113;
y = 409;
},
{
smooth = 0;
x = 163;
y = 468;
},
{
segmentType = curve;
smooth = 0;
x = 245;
y = 468;
},
{
smooth = 0;
x = 327;
y = 468;
},
{
smooth = 0;
x = 377;
y = 409;
},
{
segmentType = curve;
smooth = 0;
x = 377;
y = 336;
},
{
smooth = 0;
x = 377;
y = 264;
},
{
smooth = 0;
x = 327;
y = 204;
}
);
},
{
points = (
{
segmentType = curve;
smooth = 0;
x = 245;
y = 132;
},
{
smooth = 0;
x = 371;
y = 132;
},
{
smooth = 0;
x = 454;
y = 224;
},
{
segmentType = curve;
smooth = 0;
x = 454;
y = 336;
},
{
smooth = 0;
x = 454;
y = 449;
},
{
smooth = 0;
x = 371;
y = 541;
},
{
segmentType = curve;
smooth = 0;
x = 245;
y = 541;
},
{
smooth = 0;
x = 117;
y = 541;
},
{
smooth = 0;
x = 36;
y = 449;
},
{
segmentType = curve;
smooth = 0;
x = 36;
y = 336;
},
{
smooth = 0;
x = 36;
y = 224;
},
{
smooth = 0;
x = 117;
y = 132;
}
);
},
{
points = (
{
smooth = 0;
x = 447;
y = -255;
},
{
smooth = 0;
x = 496;
y = -144;
},
{
segmentType = curve;
smooth = 1;
x = 496;
y = -68;
},
{
smooth = 0;
x = 496;
y = -8;
},
{
smooth = 0;
x = 459;
y = 37;
},
{
segmentType = curve;
smooth = 1;
x = 367;
y = 49;
},
{
segmentType = line;
smooth = 1;
x = 177;
y = 73;
},
{
smooth = 0;
x = 149;
y = 77;
},
{
smooth = 0;
x = 127;
y = 83;
},
{
segmentType = curve;
smooth = 1;
x = 127;
y = 106;
},
{
smooth = 0;
x = 127;
y = 139;
},
{
smooth = 0;
x = 161;
y = 160;
},
{
segmentType = curve;
smooth = 0;
x = 161;
y = 160;
},
{
segmentType = line;
smooth = 0;
x = 107;
y = 180;
},
{
smooth = 0;
x = 79;
y = 163;
},
{
smooth = 0;
x = 49;
y = 122;
},
{
segmentType = curve;
smooth = 1;
x = 48;
y = 81;
},
{
smooth = 0;
x = 48;
y = 42;
},
{
smooth = 0;
x = 69;
y = 6;
},
{
segmentType = curve;
smooth = 1;
x = 143;
y = -3;
},
{
segmentType = line;
smooth = 1;
x = 337;
y = -27;
},
{
smooth = 0;
x = 394;
y = -34;
},
{
smooth = 0;
x = 411;
y = -57;
},
{
segmentType = curve;
smooth = 1;
x = 411;
y = -85;
},
{
smooth = 0;
x = 411;
y = -141;
},
{
smooth = 0;
x = 352;
y = -180;
},
{
segmentType = curve;
smooth = 1;
x = 236;
y = -180;
},
{
smooth = 0;
x = 146;
y = -180;
},
{
smooth = 0;
x = 81;
y = -143;
},
{
segmentType = curve;
smooth = 1;
x = 81;
y = -92;
},
{
smooth = 0;
x = 81;
y = -44;
},
{
smooth = 0;
x = 115;
y = -13;
},
{
segmentType = curve;
smooth = 0;
x = 155;
y = 9;
},
{
segmentType = line;
smooth = 0;
x = 124;
y = 24;
},
{
smooth = 0;
x = 52;
y = -3;
},
{
smooth = 0;
x = 0;
y = -49;
},
{
segmentType = curve;
smooth = 1;
x = 0;
y = -114;
},
{
smooth = 0;
x = 0;
y = -188;
},
{
smooth = 0;
x = 81;
y = -255;
},
{
segmentType = curve;
smooth = 1;
x = 232;
y = -255;
}
);
},
{
points = (
{
segmentType = curve;
smooth = 0;
x = 360;
y = 500;
},
{
segmentType = line;
smooth = 0;
x = 405;
y = 464;
},
{
smooth = 0;
x = 428;
y = 496;
},
{
smooth = 0;
x = 464;
y = 504;
},
{
segmentType = curve;
smooth = 0;
x = 500;
y = 500;
},
{
segmentType = line;
smooth = 0;
x = 500;
y = 585;
},
{
smooth = 0;
x = 435;
y = 586;
},
{
smooth = 0;
x = 387;
y = 554;
}
);
}
);
lib = {
};
name = g;
unicodes = (
);
width = 597;
};
};
com.typesupply.AccentFactory.yCoordinates = {
top = {
name = xHeight;
type = fontInfo;
};
};
};
},
{
glyphname = h;
lastChange = "2015-12-30 05:56:37 +0000";
layers = (
{
layerId = "6FDD6D71-1703-4D62-BB36-645A25EBC0A3";
name = Light;
paths = (
{
closed = 1;
nodes = (
"89 688 LINE",
"89 0 LINE",
"119 0 LINE",
"119 698 LINE"
);
},
{
closed = 1;
nodes = (
"326 512 CURVE SMOOTH",
"414 512 OFFCURVE",
"485 461 OFFCURVE",
"485 340 CURVE SMOOTH",
"485 0 LINE",
"515 0 LINE",
"515 340 LINE SMOOTH",
"515 483 OFFCURVE",
"429 540 OFFCURVE",
"326 540 CURVE SMOOTH",
"229 540 OFFCURVE",
"160 492 OFFCURVE",
"112 456 CURVE",
"115 430 LINE",
"157 461 OFFCURVE",
"239 512 OFFCURVE"
);
}
);
width = 599;
},
{
layerId = "DC46B086-4DC3-4260-9EBF-C204FB70037C";
name = Bold;
paths = (
{
closed = 1;
nodes = (
"50 688 LINE",
"50 0 LINE",
"210 0 LINE",
"210 708 LINE"
);
},
{
closed = 1;
nodes = (
"319 385 CURVE",
"387 385 OFFCURVE",
"410 348 OFFCURVE",
"410 297 CURVE",
"410 0 LINE",
"570 0 LINE",
"570 340 LINE",
"570 456 OFFCURVE",
"523 540 OFFCURVE",
"392 540 CURVE",
"300 540 OFFCURVE",
"225 496 OFFCURVE",
"185 452 CURVE",
"185 352 LINE",
"213 369 OFFCURVE",
"265 385 OFFCURVE"
);
}
);
width = 617;
}
);
unicode = 0068;
userData = {
com.typesupply.AccentFactory.yCoordinates = {
bottom = {
name = origin;
type = glyphMetric;
};
top = {
name = ascender;
type = fontInfo;
};
};
};
},
{
glyphname = hbar;
lastChange = "2015-12-30 05:56:37 +0000";
layers = (
{
layerId = "6FDD6D71-1703-4D62-BB36-645A25EBC0A3";
name = Light;
paths = (
{
closed = 1;
nodes = (
"114 688 LINE",
"114 0 LINE",
"144 0 LINE",
"144 698 LINE"
);
},
{
closed = 1;
nodes = (
"351 482 CURVE SMOOTH",
"439 482 OFFCURVE",
"510 431 OFFCURVE",
"510 310 CURVE SMOOTH",
"510 0 LINE",
"540 0 LINE",
"540 310 LINE SMOOTH",
"540 453 OFFCURVE",
"454 510 OFFCURVE",
"351 510 CURVE SMOOTH",
"254 510 OFFCURVE",
"185 462 OFFCURVE",
"137 426 CURVE",
"140 400 LINE",
"182 431 OFFCURVE",
"264 482 OFFCURVE"
);
},
{
closed = 1;
nodes = (
"14 585 LINE",
"334 585 LINE",
"334 613 LINE",
"14 613 LINE"
);
}
);
width = 624;
},
{
layerId = "DC46B086-4DC3-4260-9EBF-C204FB70037C";
name = Bold;
paths = (
{
closed = 1;
nodes = (
"80 688 LINE",
"80 0 LINE",
"240 0 LINE",
"240 708 LINE"
);
},
{
closed = 1;
nodes = (
"349 365 CURVE",
"417 365 OFFCURVE",
"440 328 OFFCURVE",
"440 277 CURVE",
"440 0 LINE",
"600 0 LINE",
"600 320 LINE",
"600 436 OFFCURVE",
"553 520 OFFCURVE",
"422 520 CURVE",
"330 520 OFFCURVE",
"255 476 OFFCURVE",
"215 432 CURVE",
"215 332 LINE",
"243 349 OFFCURVE",
"295 365 OFFCURVE"
);
},
{
closed = 1;
nodes = (
"10 557 LINE",
"422 557 LINE",
"422 638 LINE",
"10 638 LINE"
);
}
);
width = 647;
}
);
unicode = 0127;
},
{
glyphname = hcircumflex;
lastChange = "2015-12-30 05:56:37 +0000";
layers = (
{
components = (
{
name = circumflex.uc;
transform = "{1, 0, 0, 1, -94, 0}";
}
);
layerId = "6FDD6D71-1703-4D62-BB36-645A25EBC0A3";
name = Light;
paths = (
{
closed = 1;
nodes = (
"89 688 LINE",
"89 0 LINE",
"119 0 LINE",
"119 698 LINE"
);
},
{
closed = 1;
nodes = (
"326 512 CURVE SMOOTH",
"414 512 OFFCURVE",
"485 461 OFFCURVE",
"485 340 CURVE SMOOTH",
"485 0 LINE",
"515 0 LINE",
"515 340 LINE SMOOTH",
"515 483 OFFCURVE",
"429 540 OFFCURVE",
"326 540 CURVE SMOOTH",
"229 540 OFFCURVE",
"160 492 OFFCURVE",
"112 456 CURVE",
"115 430 LINE",
"157 461 OFFCURVE",
"239 512 OFFCURVE"
);
}
);
width = 599;
},
{
components = (
{
name = circumflex.uc;
transform = "{1, 0, 0, 1, -84, 0}";
}
);
layerId = "DC46B086-4DC3-4260-9EBF-C204FB70037C";
name = Bold;
paths = (
{
closed = 1;
nodes = (
"50 688 LINE",
"50 0 LINE",
"210 0 LINE",
"210 708 LINE"
);
},
{
closed = 1;
nodes = (
"319 385 CURVE",
"387 385 OFFCURVE",
"410 348 OFFCURVE",
"410 297 CURVE",
"410 0 LINE",
"570 0 LINE",
"570 340 LINE",
"570 456 OFFCURVE",
"523 540 OFFCURVE",
"392 540 CURVE",
"300 540 OFFCURVE",
"225 496 OFFCURVE",
"185 452 CURVE",
"185 352 LINE",
"213 369 OFFCURVE",
"265 385 OFFCURVE"
);
}
);
width = 617;
}
);
unicode = 0125;
},
{
glyphname = i;
lastChange = "2015-12-30 05:56:37 +0000";
layers = (
{
layerId = "6FDD6D71-1703-4D62-BB36-645A25EBC0A3";
name = Light;
paths = (
{
closed = 1;
nodes = (
"89 530 LINE",
"89 0 LINE",
"119 0 LINE",
"119 530 LINE"
);
},
{
closed = 1;
nodes = (
"104 628 CURVE SMOOTH",
"121 628 OFFCURVE",
"135 642 OFFCURVE",
"135 659 CURVE SMOOTH",
"135 676 OFFCURVE",
"121 690 OFFCURVE",
"104 690 CURVE SMOOTH",
"87 690 OFFCURVE",
"73 676 OFFCURVE",
"73 659 CURVE SMOOTH",
"73 642 OFFCURVE",
"87 628 OFFCURVE"
);
}
);
width = 208;
},
{
guideLines = (
{
angle = 90;
position = "{215, -32}";
},
{
angle = 90;
position = "{224, -25}";
}
);
layerId = "DC46B086-4DC3-4260-9EBF-C204FB70037C";
name = Bold;
paths = (
{
closed = 1;
nodes = (
"55 530 LINE",
"55 0 LINE",
"215 0 LINE",
"215 530 LINE"
);
},
{
closed = 1;
nodes = (
"136 579 CURVE",
"203 579 OFFCURVE",
"241 609 OFFCURVE",
"241 660 CURVE",
"241 711 OFFCURVE",
"203 740 OFFCURVE",
"136 740 CURVE",
"70 740 OFFCURVE",
"30 711 OFFCURVE",
"30 660 CURVE",
"30 609 OFFCURVE",
"70 579 OFFCURVE"
);
}
);
width = 271;
}
);
unicode = 0069;
userData = {
com.typesupply.AccentFactory.yCoordinates = {
bottom = {
name = origin;
type = glyphMetric;
};
};
};
},
{
glyphname = dotlessi;
lastChange = "2015-12-30 05:56:37 +0000";
layers = (
{
layerId = "6FDD6D71-1703-4D62-BB36-645A25EBC0A3";
name = Light;
paths = (
{
closed = 1;
nodes = (
"119 0 LINE",
"119 530 LINE",
"89 530 LINE",
"89 0 LINE"
);
}
);
width = 208;
},
{
layerId = "DC46B086-4DC3-4260-9EBF-C204FB70037C";
name = Bold;
paths = (
{
closed = 1;
nodes = (
"210 0 LINE",
"210 530 LINE",
"50 530 LINE",
"50 0 LINE"
);
}
);
width = 260;
}
);
unicode = 0131;
userData = {
com.typesupply.AccentFactory.yCoordinates = {
bottom = {
name = origin;
type = glyphMetric;
};
top = {
name = xHeight;
type = fontInfo;
};
};
};
},
{
glyphname = ij;
lastChange = "2015-12-30 05:56:37 +0000";
layers = (
{
layerId = "6FDD6D71-1703-4D62-BB36-645A25EBC0A3";
name = Light;
paths = (
{
closed = 1;
nodes = (
"89 530 LINE",
"89 0 LINE",
"119 0 LINE",
"119 530 LINE"
);
},
{
closed = 1;
nodes = (
"104 628 CURVE SMOOTH",
"121 628 OFFCURVE",
"135 642 OFFCURVE",
"135 659 CURVE SMOOTH",
"135 676 OFFCURVE",
"121 690 OFFCURVE",
"104 690 CURVE SMOOTH",
"87 690 OFFCURVE",
"73 676 OFFCURVE",
"73 659 CURVE SMOOTH",
"73 642 OFFCURVE",
"87 628 OFFCURVE"
);
},
{
closed = 1;
nodes = (
"254 -168 LINE",
"297 -145 OFFCURVE",
"333 -107 OFFCURVE",
"333 -38 CURVE",
"333 530 LINE",
"303 530 LINE",
"303 -40 LINE",
"303 -89 OFFCURVE",
"280 -122 OFFCURVE",
"236 -143 CURVE"
);
},
{
closed = 1;
nodes = (
"318 627 CURVE SMOOTH",
"335 627 OFFCURVE",
"349 641 OFFCURVE",
"349 658 CURVE SMOOTH",
"349 675 OFFCURVE",
"335 689 OFFCURVE",
"318 689 CURVE SMOOTH",
"301 689 OFFCURVE",
"287 675 OFFCURVE",
"287 658 CURVE SMOOTH",
"287 641 OFFCURVE",
"301 627 OFFCURVE"
);
}
);
width = 422;
},
{
guideLines = (
{
angle = 90;
position = "{215, -9}";
}
);
layerId = "DC46B086-4DC3-4260-9EBF-C204FB70037C";
name = Bold;
paths = (
{
closed = 1;
nodes = (
"55 530 LINE",
"55 0 LINE",
"215 0 LINE",
"215 530 LINE"
);
},
{
closed = 1;
nodes = (
"136 579 CURVE",
"203 579 OFFCURVE",
"241 609 OFFCURVE",
"241 660 CURVE",
"241 711 OFFCURVE",
"203 740 OFFCURVE",
"136 740 CURVE",
"70 740 OFFCURVE",
"30 711 OFFCURVE",
"30 660 CURVE",
"30 609 OFFCURVE",
"70 579 OFFCURVE"
);
},
{
closed = 1;
nodes = (
"263 -168 LINE",
"388 -156 OFFCURVE",
"479 -86 OFFCURVE",
"479 57 CURVE",
"479 530 LINE",
"319 530 LINE",
"319 66 LINE",
"319 1 OFFCURVE",
"294 -23 OFFCURVE",
"224 -39 CURVE"
);
},
{
closed = 1;
nodes = (
"400 579 CURVE",
"467 579 OFFCURVE",
"505 609 OFFCURVE",
"505 660 CURVE",
"505 711 OFFCURVE",
"467 740 OFFCURVE",
"400 740 CURVE",
"334 740 OFFCURVE",
"294 711 OFFCURVE",
"294 660 CURVE",
"294 609 OFFCURVE",
"334 579 OFFCURVE"
);
}
);
width = 500;
}
);
unicode = 0133;
},
{
glyphname = j;
lastChange = "2015-12-30 05:56:37 +0000";
layers = (
{
background = {
paths = (
{
closed = 1;
nodes = (
"105 642 CURVE",
"136 642 OFFCURVE",
"161 668 OFFCURVE",
"161 699 CURVE",
"161 729 OFFCURVE",
"136 755 OFFCURVE",
"105 755 CURVE",
"74 755 OFFCURVE",
"50 729 OFFCURVE",
"50 699 CURVE",
"50 668 OFFCURVE",
"74 642 OFFCURVE"
);
},
{
closed = 1;
nodes = (
"145 -31 CURVE",
"145 530 LINE",
"65 530 LINE",
"65 -21 LINE",
"65 -96 OFFCURVE",
"44 -133 OFFCURVE",
"-18 -164 CURVE",
"33 -230 LINE",
"106 -190 OFFCURVE",
"145 -134 OFFCURVE"
);
}
);
};
layerId = "6FDD6D71-1703-4D62-BB36-645A25EBC0A3";
name = Light;
paths = (
{
closed = 1;
nodes = (
"39 -168 LINE",
"82 -145 OFFCURVE",
"118 -107 OFFCURVE",
"118 -38 CURVE",
"118 530 LINE",
"88 530 LINE",
"88 -40 LINE",
"88 -89 OFFCURVE",
"65 -122 OFFCURVE",
"21 -143 CURVE"
);
},
{
closed = 1;
nodes = (
"103 627 CURVE SMOOTH",
"120 627 OFFCURVE",
"134 641 OFFCURVE",
"134 658 CURVE SMOOTH",
"134 675 OFFCURVE",
"120 689 OFFCURVE",
"103 689 CURVE SMOOTH",
"86 689 OFFCURVE",
"72 675 OFFCURVE",
"72 658 CURVE SMOOTH",
"72 641 OFFCURVE",
"86 627 OFFCURVE"
);
}
);
width = 207;
},
{
background = {
paths = (
{
closed = 1;
nodes = (
"122 642 CURVE",
"153 642 OFFCURVE",
"178 668 OFFCURVE",
"178 699 CURVE",
"178 729 OFFCURVE",
"153 755 OFFCURVE",
"122 755 CURVE",
"91 755 OFFCURVE",
"67 729 OFFCURVE",
"67 699 CURVE",
"67 668 OFFCURVE",
"91 642 OFFCURVE"
);
},
{
closed = 1;
nodes = (
"162 -50 CURVE",
"162 530 LINE",
"82 530 LINE",
"82 -40 LINE",
"82 -115 OFFCURVE",
"61 -152 OFFCURVE",
"-1 -183 CURVE",
"50 -249 LINE",
"123 -209 OFFCURVE",
"162 -153 OFFCURVE"
);
}
);
};
layerId = "DC46B086-4DC3-4260-9EBF-C204FB70037C";
name = Bold;
paths = (
{
closed = 1;
nodes = (
"-8 -168 LINE",
"117 -156 OFFCURVE",
"208 -86 OFFCURVE",
"208 57 CURVE",
"208 530 LINE",
"48 530 LINE",
"48 66 LINE",
"48 1 OFFCURVE",
"23 -23 OFFCURVE",
"-47 -39 CURVE"
);
},
{
closed = 1;
nodes = (
"129 579 CURVE",
"196 579 OFFCURVE",
"234 609 OFFCURVE",
"234 660 CURVE",
"234 711 OFFCURVE",
"196 740 OFFCURVE",
"129 740 CURVE",
"63 740 OFFCURVE",
"23 711 OFFCURVE",
"23 660 CURVE",
"23 609 OFFCURVE",
"63 579 OFFCURVE"
);
}
);
width = 264;
}
);
unicode = 006A;
userData = {
com.typemytype.robofont.layerData = {
background = {
anchors = (
);
components = (
);
contours = (
{
points = (
{
segmentType = curve;
smooth = 0;
x = 105;
y = 642;
},
{
smooth = 0;
x = 136;
y = 642;
},
{
smooth = 0;
x = 161;
y = 668;
},
{
segmentType = curve;
smooth = 0;
x = 161;
y = 699;
},
{
smooth = 0;
x = 161;
y = 729;
},
{
smooth = 0;
x = 136;
y = 755;
},
{
segmentType = curve;
smooth = 0;
x = 105;
y = 755;
},
{
smooth = 0;
x = 74;
y = 755;
},
{
smooth = 0;
x = 50;
y = 729;
},
{
segmentType = curve;
smooth = 0;
x = 50;
y = 699;
},
{
smooth = 0;
x = 50;
y = 668;
},
{
smooth = 0;
x = 74;
y = 642;
}
);
},
{
points = (
{
segmentType = curve;
smooth = 0;
x = 145;
y = -31;
},
{
segmentType = line;
smooth = 0;
x = 145;
y = 530;
},
{
segmentType = line;
smooth = 0;
x = 65;
y = 530;
},
{
segmentType = line;
smooth = 0;
x = 65;
y = -21;
},
{
smooth = 0;
x = 65;
y = -96;
},
{
smooth = 0;
x = 44;
y = -133;
},
{
segmentType = curve;
smooth = 0;
x = -18;
y = -164;
},
{
segmentType = line;
smooth = 0;
x = 33;
y = -230;
},
{
smooth = 0;
x = 106;
y = -190;
},
{
smooth = 0;
x = 145;
y = -134;
}
);
}
);
lib = {
};
name = j;
unicodes = (
);
width = 207;
};
};
com.typesupply.AccentFactory.yCoordinates = {
bottom = {
name = origin;
type = glyphMetric;
};
};
};
},
{
glyphname = jcircumflex;
lastChange = "2015-12-30 05:56:37 +0000";
layers = (
{
components = (
{
name = circumflex;
transform = "{1, 0, 0, 1, -100, 0}";
}
);
layerId = "6FDD6D71-1703-4D62-BB36-645A25EBC0A3";
name = Light;
paths = (
{
closed = 1;
nodes = (
"39 -168 LINE",
"82 -145 OFFCURVE",
"118 -107 OFFCURVE",
"118 -38 CURVE",
"118 530 LINE",
"88 530 LINE",
"88 -40 LINE",
"88 -89 OFFCURVE",
"65 -122 OFFCURVE",
"21 -143 CURVE"
);
}
);
width = 207;
},
{
components = (
{
name = circumflex;
transform = "{1, 0, 0, 1, -89, 0}";
}
);
layerId = "DC46B086-4DC3-4260-9EBF-C204FB70037C";
name = Bold;
paths = (
{
closed = 1;
nodes = (
"-8 -168 LINE",
"117 -156 OFFCURVE",
"208 -86 OFFCURVE",
"208 57 CURVE",
"208 530 LINE",
"48 530 LINE",
"48 66 LINE",
"48 1 OFFCURVE",
"23 -23 OFFCURVE",
"-47 -39 CURVE"
);
}
);
width = 260;
}
);
unicode = 0135;
},
{
glyphname = k;
lastChange = "2015-12-30 05:56:37 +0000";
layers = (
{
anchors = (
{
name = center;
position = "{260, 349}";
}
);
background = {
paths = (
{
closed = 1;
nodes = (
"39 750 LINE",
"39 0 LINE",
"119 0 LINE",
"119 770 LINE"
);
},
{
closed = 1;
nodes = (
"131 302 LINE",
"346 0 LINE",
"445 0 LINE",
"219 300 LINE",
"445 530 LINE",
"346 530 LINE"
);
}
);
};
layerId = "6FDD6D71-1703-4D62-BB36-645A25EBC0A3";
name = Light;
paths = (
{
closed = 1;
nodes = (
"89 688 LINE",
"89 0 LINE",
"119 0 LINE",
"119 698 LINE"
);
},
{
closed = 1;
nodes = (
"225 305 LINE",
"435 0 LINE",
"470 0 LINE",
"261 303 LINE",
"472 530 LINE",
"434 530 LINE"
);
},
{
closed = 1;
nodes = (
"101 290 LINE",
"249 290 LINE",
"249 318 LINE",
"101 318 LINE"
);
}
);
width = 496;
},
{
anchors = (
{
name = center;
position = "{304, 354}";
}
);
layerId = "DC46B086-4DC3-4260-9EBF-C204FB70037C";
name = Bold;
paths = (
{
closed = 1;
nodes = (
"50 688 LINE",
"50 0 LINE",
"210 0 LINE",
"210 708 LINE"
);
},
{
closed = 1;
nodes = (
"228 279 LINE",
"415 0 LINE",
"599 0 LINE",
"395 283 LINE",
"597 530 LINE",
"414 530 LINE"
);
},
{
closed = 1;
nodes = (
"157 200 LINE",
"379 200 LINE",
"379 350 LINE",
"157 350 LINE"
);
}
);
width = 604;
}
);
unicode = 006B;
userData = {
com.typemytype.robofont.layerData = {
background = {
anchors = (
);
components = (
);
contours = (
{
points = (
{
segmentType = line;
smooth = 0;
x = 39;
y = 750;
},
{
segmentType = line;
smooth = 0;
x = 39;
y = 0;
},
{
segmentType = line;
smooth = 0;
x = 119;
y = 0;
},
{
segmentType = line;
smooth = 0;
x = 119;
y = 770;
}
);
},
{
points = (
{
segmentType = line;
smooth = 0;
x = 131;
y = 302;
},
{
segmentType = line;
smooth = 0;
x = 346;
y = 0;
},
{
segmentType = line;
smooth = 0;
x = 445;
y = 0;
},
{
segmentType = line;
smooth = 0;
x = 219;
y = 300;
},
{
segmentType = line;
smooth = 0;
x = 445;
y = 530;
},
{
segmentType = line;
smooth = 0;
x = 346;
y = 530;
}
);
}
);
lib = {
};
name = k;
unicodes = (
);
width = 496;
};
};
com.typesupply.AccentFactory.yCoordinates = {
bottom = {
name = origin;
type = glyphMetric;
};
top = {
name = ascender;
type = fontInfo;
};
};
};
},
{
glyphname = l;
lastChange = "2015-12-30 05:56:37 +0000";
layers = (
{
layerId = "6FDD6D71-1703-4D62-BB36-645A25EBC0A3";
name = Light;
paths = (
{
closed = 1;
nodes = (
"89 688 LINE",
"89 0 LINE",
"119 0 LINE",
"119 698 LINE"
);
}
);
width = 208;
},
{
guideLines = (
{
position = "{178, -158}";
}
);
layerId = "DC46B086-4DC3-4260-9EBF-C204FB70037C";
name = Bold;
paths = (
{
closed = 1;
nodes = (
"50 688 LINE",
"50 0 LINE",
"210 0 LINE",
"210 708 LINE"
);
}
);
width = 260;
}
);
unicode = 006C;
userData = {
com.typesupply.AccentFactory.yCoordinates = {
bottom = {
name = origin;
type = glyphMetric;
};
top = {
name = ascender;
type = fontInfo;
};
};
};
},
{
glyphname = lslash;
lastChange = "2015-12-30 05:56:37 +0000";
layers = (
{
layerId = "6FDD6D71-1703-4D62-BB36-645A25EBC0A3";
name = Light;
paths = (
{
closed = 1;
nodes = (
"129 688 LINE",
"129 0 LINE",
"159 0 LINE",
"159 698 LINE"
);
},
{
closed = 1;
nodes = (
"24 356 LINE",
"274 516 LINE",
"274 549 LINE",
"24 389 LINE"
);
}
);
width = 298;
},
{
layerId = "DC46B086-4DC3-4260-9EBF-C204FB70037C";
name = Bold;
paths = (
{
closed = 1;
nodes = (
"96 688 LINE",
"96 0 LINE",
"256 0 LINE",
"256 708 LINE"
);
},
{
closed = 1;
nodes = (
"10 295 LINE",
"352 410 LINE",
"352 540 LINE",
"10 425 LINE"
);
}
);
width = 362;
}
);
unicode = 0142;
},
{
glyphname = m;
lastChange = "2015-12-30 05:56:37 +0000";
layers = (
{
background = {
paths = (
{
closed = 1;
nodes = (
"99 530 LINE",
"99 0 LINE",
"179 0 LINE",
"179 456 LINE",
"174 470 LINE",
"174 530 LINE"
);
},
{
closed = 1;
nodes = (
"425 342 CURVE",
"425 0 LINE",
"505 0 LINE",
"505 345 LINE",
"505 480 OFFCURVE",
"435 540 OFFCURVE",
"332 540 CURVE SMOOTH",
"251 540 OFFCURVE",
"190 496 OFFCURVE",
"157 453 CURVE",
"157 376 LINE",
"195 423 OFFCURVE",
"248 466 OFFCURVE",
"319 466 CURVE SMOOTH",
"389 466 OFFCURVE",
"425 430 OFFCURVE"
);
},
{
closed = 1;
nodes = (
"751 342 CURVE",
"751 0 LINE",
"831 0 LINE",
"831 345 LINE",
"831 480 OFFCURVE",
"761 540 OFFCURVE",
"658 540 CURVE SMOOTH",
"577 540 OFFCURVE",
"506 496 OFFCURVE",
"473 453 CURVE",
"483 376 LINE",
"521 423 OFFCURVE",
"574 466 OFFCURVE",
"645 466 CURVE SMOOTH",
"715 466 OFFCURVE",
"751 430 OFFCURVE"
);
}
);
};
layerId = "6FDD6D71-1703-4D62-BB36-645A25EBC0A3";
name = Light;
paths = (
{
closed = 1;
nodes = (
"89 530 LINE",
"89 0 LINE",
"119 0 LINE",
"119 444 LINE",
"117 458 LINE",
"117 530 LINE"
);
},
{
closed = 1;
nodes = (
"316 512 CURVE SMOOTH",
"398 512 OFFCURVE",
"465 463 OFFCURVE",
"465 347 CURVE SMOOTH",
"465 0 LINE",
"495 0 LINE",
"495 357 LINE SMOOTH",
"495 485 OFFCURVE",
"414 540 OFFCURVE",
"316 540 CURVE SMOOTH",
"224 540 OFFCURVE",
"159 491 OFFCURVE",
"112 456 CURVE",
"115 430 LINE",
"156 460 OFFCURVE",
"233 512 OFFCURVE"
);
},
{
closed = 1;
nodes = (
"692 512 CURVE SMOOTH",
"774 512 OFFCURVE",
"841 463 OFFCURVE",
"841 347 CURVE SMOOTH",
"841 0 LINE",
"871 0 LINE",
"871 347 LINE SMOOTH",
"871 485 OFFCURVE",
"790 540 OFFCURVE",
"692 540 CURVE SMOOTH",
"591 540 OFFCURVE",
"520 488 OFFCURVE",
"468 446 CURVE",
"471 420 LINE",
"516 456 OFFCURVE",
"601 512 OFFCURVE"
);
}
);
width = 955;
},
{
background = {
paths = (
{
closed = 1;
nodes = (
"80 530 LINE",
"80 0 LINE",
"160 0 LINE",
"160 530 LINE"
);
},
{
closed = 1;
nodes = (
"406 347 CURVE",
"406 0 LINE",
"486 0 LINE",
"486 408 LINE",
"477 422 LINE",
"455 505 OFFCURVE",
"394 540 OFFCURVE",
"312 540 CURVE SMOOTH",
"213 540 OFFCURVE",
"163 490 OFFCURVE",
"138 423 CURVE",
"138 336 LINE",
"158 398 OFFCURVE",
"216 464 OFFCURVE",
"294 466 CURVE SMOOTH",
"364 468 OFFCURVE",
"406 436 OFFCURVE"
);
},
{
closed = 1;
nodes = (
"725 347 CURVE",
"725 0 LINE",
"805 0 LINE",
"805 348 LINE",
"805 484 OFFCURVE",
"734 540 OFFCURVE",
"631 540 CURVE SMOOTH",
"542 540 OFFCURVE",
"482 490 OFFCURVE",
"457 423 CURVE",
"457 316 LINE",
"487 398 OFFCURVE",
"535 464 OFFCURVE",
"613 466 CURVE SMOOTH",
"683 468 OFFCURVE",
"725 436 OFFCURVE"
);
}
);
};
layerId = "DC46B086-4DC3-4260-9EBF-C204FB70037C";
name = Bold;
paths = (
{
closed = 1;
nodes = (
"50 530 LINE",
"50 0 LINE",
"210 0 LINE",
"210 397 LINE",
"200 415 LINE",
"200 530 LINE"
);
},
{
closed = 1;
nodes = (
"309 385 CURVE",
"370 385 OFFCURVE",
"390 349 OFFCURVE",
"390 297 CURVE",
"390 0 LINE",
"550 0 LINE",
"550 340 LINE",
"550 456 OFFCURVE",
"506 540 OFFCURVE",
"382 540 CURVE",
"294 540 OFFCURVE",
"224 495 OFFCURVE",
"185 452 CURVE",
"185 352 LINE",
"211 367 OFFCURVE",
"259 385 OFFCURVE"
);
},
{
closed = 1;
nodes = (
"649 385 CURVE",
"710 385 OFFCURVE",
"730 349 OFFCURVE",
"730 297 CURVE",
"730 0 LINE",
"890 0 LINE",
"890 340 LINE",
"890 456 OFFCURVE",
"846 540 OFFCURVE",
"722 540 CURVE",
"634 540 OFFCURVE",
"564 495 OFFCURVE",
"525 452 CURVE",
"525 352 LINE",
"551 367 OFFCURVE",
"599 385 OFFCURVE"
);
}
);
width = 937;
}
);
unicode = 006D;
userData = {
com.typemytype.robofont.layerData = {
background = {
anchors = (
);
components = (
);
contours = (
{
points = (
{
segmentType = line;
smooth = 0;
x = 99;
y = 530;
},
{
segmentType = line;
smooth = 0;
x = 99;
y = 0;
},
{
segmentType = line;
smooth = 0;
x = 179;
y = 0;
},
{
segmentType = line;
smooth = 0;
x = 179;
y = 456;
},
{
segmentType = line;
smooth = 0;
x = 174;
y = 470;
},
{
segmentType = line;
smooth = 0;
x = 174;
y = 530;
}
);
},
{
points = (
{
segmentType = curve;
smooth = 0;
x = 425;
y = 342;
},
{
segmentType = line;
smooth = 0;
x = 425;
y = 0;
},
{
segmentType = line;
smooth = 0;
x = 505;
y = 0;
},
{
segmentType = line;
smooth = 0;
x = 505;
y = 345;
},
{
smooth = 0;
x = 505;
y = 480;
},
{
smooth = 0;
x = 435;
y = 540;
},
{
segmentType = curve;
smooth = 1;
x = 332;
y = 540;
},
{
smooth = 0;
x = 251;
y = 540;
},
{
smooth = 0;
x = 190;
y = 496;
},
{
segmentType = curve;
smooth = 0;
x = 157;
y = 453;
},
{
segmentType = line;
smooth = 0;
x = 157;
y = 376;
},
{
smooth = 0;
x = 195;
y = 423;
},
{
smooth = 0;
x = 248;
y = 466;
},
{
segmentType = curve;
smooth = 1;
x = 319;
y = 466;
},
{
smooth = 0;
x = 389;
y = 466;
},
{
smooth = 0;
x = 425;
y = 430;
}
);
},
{
points = (
{
segmentType = curve;
smooth = 0;
x = 751;
y = 342;
},
{
segmentType = line;
smooth = 0;
x = 751;
y = 0;
},
{
segmentType = line;
smooth = 0;
x = 831;
y = 0;
},
{
segmentType = line;
smooth = 0;
x = 831;
y = 345;
},
{
smooth = 0;
x = 831;
y = 480;
},
{
smooth = 0;
x = 761;
y = 540;
},
{
segmentType = curve;
smooth = 1;
x = 658;
y = 540;
},
{
smooth = 0;
x = 577;
y = 540;
},
{
smooth = 0;
x = 506;
y = 496;
},
{
segmentType = curve;
smooth = 0;
x = 473;
y = 453;
},
{
segmentType = line;
smooth = 0;
x = 483;
y = 376;
},
{
smooth = 0;
x = 521;
y = 423;
},
{
smooth = 0;
x = 574;
y = 466;
},
{
segmentType = curve;
smooth = 1;
x = 645;
y = 466;
},
{
smooth = 0;
x = 715;
y = 466;
},
{
smooth = 0;
x = 751;
y = 430;
}
);
}
);
lib = {
};
name = m;
unicodes = (
);
width = 955;
};
};
com.typesupply.AccentFactory.yCoordinates = {
bottom = {
name = origin;
type = glyphMetric;
};
top = {
name = xHeight;
type = fontInfo;
};
};
};
},
{
glyphname = n;
lastChange = "2015-12-30 05:56:37 +0000";
layers = (
{
background = {
paths = (
{
closed = 1;
nodes = (
"112 453 LINE",
"158 497 OFFCURVE",
"229 540 OFFCURVE",
"326 540 CURVE SMOOTH",
"429 540 OFFCURVE",
"515 483 OFFCURVE",
"515 340 CURVE SMOOTH",
"515 0 LINE",
"485 0 LINE",
"485 340 LINE SMOOTH",
"485 460 OFFCURVE",
"414 510 OFFCURVE",
"326 510 CURVE SMOOTH",
"239 510 OFFCURVE",
"157 462 OFFCURVE",
"115 422 CURVE"
);
}
);
};
layerId = "6FDD6D71-1703-4D62-BB36-645A25EBC0A3";
name = Light;
paths = (
{
closed = 1;
nodes = (
"89 530 LINE",
"89 0 LINE",
"119 0 LINE",
"119 444 LINE",
"117 458 LINE",
"117 530 LINE"
);
},
{
closed = 1;
nodes = (
"326 512 CURVE SMOOTH",
"414 512 OFFCURVE",
"485 461 OFFCURVE",
"485 340 CURVE SMOOTH",
"485 0 LINE",
"515 0 LINE",
"515 340 LINE SMOOTH",
"515 483 OFFCURVE",
"429 540 OFFCURVE",
"326 540 CURVE SMOOTH",
"229 540 OFFCURVE",
"160 492 OFFCURVE",
"112 456 CURVE",
"115 430 LINE",
"157 461 OFFCURVE",
"239 512 OFFCURVE"
);
}
);
width = 599;
},
{
background = {
paths = (
{
closed = 1;
nodes = (
"75 530 LINE",
"75 0 LINE",
"155 0 LINE",
"155 530 LINE"
);
},
{
closed = 1;
nodes = (
"421 337 CURVE",
"421 0 LINE",
"501 0 LINE",
"501 338 LINE",
"501 480 OFFCURVE",
"420 540 OFFCURVE",
"317 540 CURVE SMOOTH",
"234 540 OFFCURVE",
"158 480 OFFCURVE",
"133 413 CURVE",
"133 336 LINE",
"163 398 OFFCURVE",
"221 466 OFFCURVE",
"309 466 CURVE SMOOTH",
"379 466 OFFCURVE",
"421 432 OFFCURVE"
);
}
);
};
layerId = "DC46B086-4DC3-4260-9EBF-C204FB70037C";
name = Bold;
paths = (
{
closed = 1;
nodes = (
"50 530 LINE",
"50 0 LINE",
"210 0 LINE",
"210 397 LINE",
"200 415 LINE",
"200 530 LINE"
);
},
{
closed = 1;
nodes = (
"319 385 CURVE",
"387 385 OFFCURVE",
"410 348 OFFCURVE",
"410 297 CURVE",
"410 0 LINE",
"570 0 LINE",
"570 340 LINE",
"570 456 OFFCURVE",
"523 540 OFFCURVE",
"392 540 CURVE",
"300 540 OFFCURVE",
"225 496 OFFCURVE",
"185 452 CURVE",
"185 352 LINE",
"213 369 OFFCURVE",
"265 385 OFFCURVE"
);
}
);
width = 617;
}
);
unicode = 006E;
userData = {
com.typemytype.robofont.layerData = {
background = {
anchors = (
);
components = (
);
contours = (
{
points = (
{
segmentType = line;
smooth = 0;
x = 112;
y = 453;
},
{
smooth = 0;
x = 158;
y = 497;
},
{
smooth = 0;
x = 229;
y = 540;
},
{
segmentType = curve;
smooth = 1;
x = 326;
y = 540;
},
{
smooth = 0;
x = 429;
y = 540;
},
{
smooth = 0;
x = 515;
y = 483;
},
{
segmentType = curve;
smooth = 1;
x = 515;
y = 340;
},
{
segmentType = line;
smooth = 0;
x = 515;
y = 0;
},
{
segmentType = line;
smooth = 0;
x = 485;
y = 0;
},
{
segmentType = line;
smooth = 1;
x = 485;
y = 340;
},
{
smooth = 0;
x = 485;
y = 460;
},
{
smooth = 0;
x = 414;
y = 510;
},
{
segmentType = curve;
smooth = 1;
x = 326;
y = 510;
},
{
smooth = 0;
x = 239;
y = 510;
},
{
smooth = 0;
x = 157;
y = 462;
},
{
segmentType = curve;
smooth = 0;
x = 115;
y = 422;
}
);
}
);
lib = {
};
name = n;
unicodes = (
);
width = 599;
};
};
com.typesupply.AccentFactory.yCoordinates = {
bottom = {
name = origin;
type = glyphMetric;
};
top = {
name = xHeight;
type = fontInfo;
};
};
};
},
{
glyphname = eng;
lastChange = "2015-12-30 05:56:37 +0000";
layers = (
{
layerId = "6FDD6D71-1703-4D62-BB36-645A25EBC0A3";
name = Light;
paths = (
{
closed = 1;
nodes = (
"119 0 LINE",
"119 444 LINE",
"117 458 LINE",
"117 530 LINE",
"89 530 LINE",
"89 0 LINE"
);
},
{
closed = 1;
nodes = (
"515 -38 CURVE",
"515 340 LINE",
"515 483 OFFCURVE",
"429 540 OFFCURVE",
"326 540 CURVE SMOOTH",
"229 540 OFFCURVE",
"160 492 OFFCURVE",
"112 456 CURVE",
"115 430 LINE",
"157 461 OFFCURVE",
"239 512 OFFCURVE",
"326 512 CURVE SMOOTH",
"414 512 OFFCURVE",
"485 461 OFFCURVE",
"485 340 CURVE",
"485 -40 LINE",
"485 -89 OFFCURVE",
"462 -122 OFFCURVE",
"418 -143 CURVE",
"436 -168 LINE",
"479 -145 OFFCURVE",
"515 -107 OFFCURVE"
);
}
);
width = 599;
},
{
layerId = "DC46B086-4DC3-4260-9EBF-C204FB70037C";
name = Bold;
paths = (
{
closed = 1;
nodes = (
"210 0 LINE",
"210 397 LINE",
"200 415 LINE",
"200 530 LINE",
"50 530 LINE",
"50 0 LINE"
);
},
{
closed = 1;
nodes = (
"570 57 CURVE",
"570 340 LINE",
"570 456 OFFCURVE",
"523 540 OFFCURVE",
"392 540 CURVE",
"300 540 OFFCURVE",
"225 496 OFFCURVE",
"185 452 CURVE",
"185 352 LINE",
"213 369 OFFCURVE",
"265 385 OFFCURVE",
"319 385 CURVE",
"387 385 OFFCURVE",
"410 348 OFFCURVE",
"410 297 CURVE",
"410 66 LINE",
"410 1 OFFCURVE",
"385 -23 OFFCURVE",
"315 -39 CURVE",
"354 -168 LINE",
"479 -156 OFFCURVE",
"570 -86 OFFCURVE"
);
}
);
width = 617;
}
);
unicode = 014B;
},
{
glyphname = o;
lastChange = "2015-12-30 05:56:37 +0000";
layers = (
{
guideLines = (
{
position = "{356, 450}";
},
{
position = "{346, 81}";
},
{
angle = 90;
position = "{343, 260}";
},
{
position = "{359, 265}";
}
);
layerId = "6FDD6D71-1703-4D62-BB36-645A25EBC0A3";
name = Light;
paths = (
{
closed = 1;
nodes = (
"324 -10 CURVE SMOOTH",
"170 -10 OFFCURVE",
"59 109 OFFCURVE",
"59 265 CURVE SMOOTH",
"59 421 OFFCURVE",
"170 540 OFFCURVE",
"324 540 CURVE SMOOTH",
"479 540 OFFCURVE",
"590 421 OFFCURVE",
"590 265 CURVE SMOOTH",
"590 109 OFFCURVE",
"479 -10 OFFCURVE"
);
},
{
closed = 1;
nodes = (
"324 18 CURVE SMOOTH",
"464 18 OFFCURVE",
"560 126 OFFCURVE",
"560 265 CURVE SMOOTH",
"560 404 OFFCURVE",
"464 512 OFFCURVE",
"324 512 CURVE SMOOTH",
"186 512 OFFCURVE",
"89 404 OFFCURVE",
"89 265 CURVE SMOOTH",
"89 126 OFFCURVE",
"186 18 OFFCURVE"
);
}
);
width = 649;
},
{
layerId = "DC46B086-4DC3-4260-9EBF-C204FB70037C";
name = Bold;
paths = (
{
closed = 1;
nodes = (
"315 -10 CURVE SMOOTH",
"152 -10 OFFCURVE",
"30 109 OFFCURVE",
"30 265 CURVE SMOOTH",
"30 426 OFFCURVE",
"152 540 OFFCURVE",
"315 540 CURVE SMOOTH",
"479 540 OFFCURVE",
"601 426 OFFCURVE",
"601 265 CURVE SMOOTH",
"601 109 OFFCURVE",
"479 -10 OFFCURVE"
);
},
{
closed = 1;
nodes = (
"315 140 CURVE SMOOTH",
"384 140 OFFCURVE",
"441 190 OFFCURVE",
"441 265 CURVE SMOOTH",
"441 342 OFFCURVE",
"384 390 OFFCURVE",
"315 390 CURVE SMOOTH",
"247 390 OFFCURVE",
"190 342 OFFCURVE",
"190 265 CURVE SMOOTH",
"190 191 OFFCURVE",
"247 140 OFFCURVE"
);
}
);
width = 631;
}
);
unicode = 006F;
userData = {
com.typemytype.robofont.guides = (
{
angle = 0;
isGlobal = 0;
magnetic = 5;
x = 356;
y = 450;
},
{
angle = 0;
isGlobal = 0;
magnetic = 5;
x = 346;
y = 81;
},
{
angle = 90;
isGlobal = 0;
magnetic = 5;
x = 343;
y = 260;
},
{
angle = 0;
isGlobal = 0;
magnetic = 5;
x = 359;
y = 265;
}
);
com.typesupply.AccentFactory.yCoordinates = {
bottom = {
name = origin;
type = glyphMetric;
};
top = {
name = xHeight;
type = fontInfo;
};
};
};
},
{
glyphname = oslash;
lastChange = "2015-12-30 05:56:37 +0000";
layers = (
{
guideLines = (
{
angle = 90;
position = "{70, 265}";
},
{
angle = 90;
position = "{601, 277}";
},
{
position = "{385, 540}";
},
{
position = "{422, -10}";
}
);
layerId = "6FDD6D71-1703-4D62-BB36-645A25EBC0A3";
name = Light;
paths = (
{
closed = 1;
nodes = (
"333 -10 CURVE SMOOTH",
"179 -10 OFFCURVE",
"68 109 OFFCURVE",
"68 265 CURVE SMOOTH",
"68 421 OFFCURVE",
"179 540 OFFCURVE",
"333 540 CURVE SMOOTH",
"488 540 OFFCURVE",
"599 421 OFFCURVE",
"599 265 CURVE SMOOTH",
"599 109 OFFCURVE",
"488 -10 OFFCURVE"
);
},
{
closed = 1;
nodes = (
"333 18 CURVE SMOOTH",
"473 18 OFFCURVE",
"569 126 OFFCURVE",
"569 265 CURVE SMOOTH",
"569 404 OFFCURVE",
"473 512 OFFCURVE",
"333 512 CURVE SMOOTH",
"195 512 OFFCURVE",
"98 404 OFFCURVE",
"98 265 CURVE SMOOTH",
"98 126 OFFCURVE",
"195 18 OFFCURVE"
);
},
{
closed = 1;
nodes = (
"608 530 LINE",
"96 0 LINE",
"59 0 LINE",
"571 530 LINE"
);
}
);
width = 667;
},
{
background = {
paths = (
{
closed = 1;
nodes = (
"603 587 LINE",
"658 528 LINE",
"28 -57 LINE",
"-27 2 LINE"
);
}
);
};
guideLines = (
{
angle = 90;
position = "{30, 224}";
},
{
angle = 90;
position = "{601, 233}";
}
);
layerId = "DC46B086-4DC3-4260-9EBF-C204FB70037C";
name = Bold;
paths = (
{
closed = 1;
nodes = (
"315 -10 CURVE SMOOTH",
"152 -10 OFFCURVE",
"30 109 OFFCURVE",
"30 265 CURVE SMOOTH",
"30 426 OFFCURVE",
"152 540 OFFCURVE",
"315 540 CURVE SMOOTH",
"479 540 OFFCURVE",
"601 426 OFFCURVE",
"601 265 CURVE SMOOTH",
"601 109 OFFCURVE",
"479 -10 OFFCURVE"
);
},
{
closed = 1;
nodes = (
"315 140 CURVE SMOOTH",
"384 140 OFFCURVE",
"441 190 OFFCURVE",
"441 265 CURVE SMOOTH",
"441 342 OFFCURVE",
"384 390 OFFCURVE",
"315 390 CURVE SMOOTH",
"247 390 OFFCURVE",
"190 342 OFFCURVE",
"190 265 CURVE SMOOTH",
"190 191 OFFCURVE",
"247 140 OFFCURVE"
);
},
{
closed = 1;
nodes = (
"660 530 LINE",
"89 0 LINE",
"-29 0 LINE",
"541 530 LINE"
);
}
);
width = 631;
}
);
unicode = 00F8;
userData = {
com.typemytype.robofont.guides = (
{
angle = 90;
isGlobal = 0;
magnetic = 5;
x = 70;
y = 265;
},
{
angle = 90;
isGlobal = 0;
magnetic = 5;
x = 601;
y = 277;
},
{
angle = 0;
isGlobal = 0;
magnetic = 5;
x = 385;
y = 540;
},
{
angle = 0;
isGlobal = 0;
magnetic = 5;
x = 422;
y = -10;
}
);
};
},
{
glyphname = oslashacute;
lastChange = "2015-12-30 05:56:37 +0000";
layers = (
{
components = (
{
name = acute;
transform = "{1, 0, 0, 1, 251, 0}";
}
);
layerId = "6FDD6D71-1703-4D62-BB36-645A25EBC0A3";
name = Light;
paths = (
{
closed = 1;
nodes = (
"333 -10 CURVE SMOOTH",
"179 -10 OFFCURVE",
"68 109 OFFCURVE",
"68 265 CURVE SMOOTH",
"68 421 OFFCURVE",
"179 540 OFFCURVE",
"333 540 CURVE SMOOTH",
"488 540 OFFCURVE",
"599 421 OFFCURVE",
"599 265 CURVE SMOOTH",
"599 109 OFFCURVE",
"488 -10 OFFCURVE"
);
},
{
closed = 1;
nodes = (
"333 18 CURVE SMOOTH",
"473 18 OFFCURVE",
"569 126 OFFCURVE",
"569 265 CURVE SMOOTH",
"569 404 OFFCURVE",
"473 512 OFFCURVE",
"333 512 CURVE SMOOTH",
"195 512 OFFCURVE",
"98 404 OFFCURVE",
"98 265 CURVE SMOOTH",
"98 126 OFFCURVE",
"195 18 OFFCURVE"
);
},
{
closed = 1;
nodes = (
"608 530 LINE",
"96 0 LINE",
"59 0 LINE",
"571 530 LINE"
);
}
);
width = 667;
},
{
components = (
{
name = acute;
transform = "{1, 0, 0, 1, 207, 0}";
}
);
layerId = "DC46B086-4DC3-4260-9EBF-C204FB70037C";
name = Bold;
paths = (
{
closed = 1;
nodes = (
"315 -10 CURVE SMOOTH",
"152 -10 OFFCURVE",
"30 109 OFFCURVE",
"30 265 CURVE SMOOTH",
"30 426 OFFCURVE",
"152 540 OFFCURVE",
"315 540 CURVE SMOOTH",
"479 540 OFFCURVE",
"601 426 OFFCURVE",
"601 265 CURVE SMOOTH",
"601 109 OFFCURVE",
"479 -10 OFFCURVE"
);
},
{
closed = 1;
nodes = (
"315 140 CURVE SMOOTH",
"384 140 OFFCURVE",
"441 190 OFFCURVE",
"441 265 CURVE SMOOTH",
"441 342 OFFCURVE",
"384 390 OFFCURVE",
"315 390 CURVE SMOOTH",
"247 390 OFFCURVE",
"190 342 OFFCURVE",
"190 265 CURVE SMOOTH",
"190 191 OFFCURVE",
"247 140 OFFCURVE"
);
},
{
closed = 1;
nodes = (
"660 530 LINE",
"89 0 LINE",
"-29 0 LINE",
"541 530 LINE"
);
}
);
width = 631;
}
);
unicode = 01FF;
},
{
glyphname = oe;
lastChange = "2015-12-30 05:56:37 +0000";
layers = (
{
layerId = "6FDD6D71-1703-4D62-BB36-645A25EBC0A3";
name = Light;
paths = (
{
closed = 1;
nodes = (
"324 -10 CURVE SMOOTH",
"474 -10 OFFCURVE",
"590 109 OFFCURVE",
"590 265 CURVE SMOOTH",
"590 421 OFFCURVE",
"474 540 OFFCURVE",
"324 540 CURVE SMOOTH",
"175 540 OFFCURVE",
"59 421 OFFCURVE",
"59 265 CURVE SMOOTH",
"59 109 OFFCURVE",
"175 -10 OFFCURVE"
);
},
{
closed = 1;
nodes = (
"324 18 CURVE SMOOTH",
"191 18 OFFCURVE",
"89 126 OFFCURVE",
"89 265 CURVE SMOOTH",
"89 404 OFFCURVE",
"191 512 OFFCURVE",
"324 512 CURVE SMOOTH",
"459 512 OFFCURVE",
"560 404 OFFCURVE",
"560 265 CURVE SMOOTH",
"560 126 OFFCURVE",
"459 18 OFFCURVE"
);
},
{
closed = 1;
nodes = (
"590 270 LINE SMOOTH",
"590 430 OFFCURVE",
"683 512 OFFCURVE",
"798 512 CURVE",
"918 512 OFFCURVE",
"986 431 OFFCURVE",
"990 278 CURVE",
"577 278 LINE",
"577 249 LINE",
"1020 249 LINE",
"1020 265 LINE",
"1020 445 OFFCURVE",
"939 542 OFFCURVE",
"798 542 CURVE",
"662 542 OFFCURVE",
"560 445 OFFCURVE",
"560 265 CURVE SMOOTH",
"560 80 OFFCURVE",
"675 -10 OFFCURVE",
"825 -10 CURVE SMOOTH",
"885 -10 OFFCURVE",
"962 1 OFFCURVE",
"1003 27 CURVE",
"1003 58 LINE",
"968 33 OFFCURVE",
"888 20 OFFCURVE",
"825 20 CURVE SMOOTH",
"699 20 OFFCURVE",
"590 95 OFFCURVE",
"590 259 CURVE SMOOTH"
);
}
);
width = 1082;
},
{
layerId = "DC46B086-4DC3-4260-9EBF-C204FB70037C";
name = Bold;
paths = (
{
closed = 1;
nodes = (
"315 -10 CURVE SMOOTH",
"479 -10 OFFCURVE",
"601 109 OFFCURVE",
"601 265 CURVE SMOOTH",
"601 426 OFFCURVE",
"479 540 OFFCURVE",
"315 540 CURVE SMOOTH",
"152 540 OFFCURVE",
"30 426 OFFCURVE",
"30 265 CURVE SMOOTH",
"30 109 OFFCURVE",
"152 -10 OFFCURVE"
);
},
{
closed = 1;
nodes = (
"315 140 CURVE SMOOTH",
"247 140 OFFCURVE",
"190 191 OFFCURVE",
"190 265 CURVE SMOOTH",
"190 342 OFFCURVE",
"247 390 OFFCURVE",
"315 390 CURVE SMOOTH",
"384 390 OFFCURVE",
"441 342 OFFCURVE",
"441 265 CURVE SMOOTH",
"441 190 OFFCURVE",
"384 140 OFFCURVE"
);
},
{
closed = 1;
nodes = (
"601 307 LINE SMOOTH",
"601 360 OFFCURVE",
"627 406 OFFCURVE",
"693 406 CURVE",
"758 406 OFFCURVE",
"783 368 OFFCURVE",
"783 322 CURVE",
"596 322 LINE",
"596 222 LINE",
"940 222 LINE",
"940 295 LINE",
"940 446 OFFCURVE",
"854 540 OFFCURVE",
"704 540 CURVE SMOOTH",
"544 540 OFFCURVE",
"440 430 OFFCURVE",
"440 265 CURVE",
"440 90 OFFCURVE",
"554 -10 OFFCURVE",
"728 -10 CURVE",
"815 -10 OFFCURVE",
"899 17 OFFCURVE",
"935 47 CURVE",
"935 185 LINE",
"892 165 OFFCURVE",
"825 140 OFFCURVE",
"747 140 CURVE SMOOTH",
"636 140 OFFCURVE",
"601 178 OFFCURVE",
"601 251 CURVE SMOOTH"
);
}
);
width = 975;
}
);
unicode = 0153;
userData = {
com.typesupply.AccentFactory.yCoordinates = {
bottom = {
name = origin;
type = glyphMetric;
};
top = {
name = xHeight;
type = fontInfo;
};
};
};
},
{
glyphname = p;
lastChange = "2015-12-30 05:56:37 +0000";
layers = (
{
guideLines = (
{
position = "{95, -220}";
},
{
position = "{183, -220}";
}
);
layerId = "6FDD6D71-1703-4D62-BB36-645A25EBC0A3";
name = Light;
paths = (
{
closed = 1;
nodes = (
"99 27 LINE",
"146 9 OFFCURVE",
"193 -10 OFFCURVE",
"269 -10 CURVE",
"427 -10 OFFCURVE",
"538 96 OFFCURVE",
"538 280 CURVE SMOOTH",
"538 441 OFFCURVE",
"447 540 OFFCURVE",
"307 540 CURVE",
"212 540 OFFCURVE",
"137 487 OFFCURVE",
"109 457 CURVE",
"109 426 LINE",
"141 459 OFFCURVE",
"212 512 OFFCURVE",
"307 512 CURVE",
"431 512 OFFCURVE",
"508 421 OFFCURVE",
"508 280 CURVE SMOOTH",
"508 114 OFFCURVE",
"414 18 OFFCURVE",
"269 18 CURVE",
"197 18 OFFCURVE",
"154 36 OFFCURVE",
"109 53 CURVE"
);
},
{
closed = 1;
nodes = (
"119 442 LINE",
"117 446 LINE",
"117 530 LINE",
"89 530 LINE",
"89 -158 LINE",
"119 -158 LINE"
);
}
);
width = 597;
},
{
background = {
paths = (
{
closed = 1;
nodes = (
"88 530 LINE",
"88 -220 LINE",
"168 -220 LINE",
"168 530 LINE"
);
},
{
closed = 1;
nodes = (
"118 23 LINE",
"154 7 OFFCURVE",
"199 -18 OFFCURVE",
"303 -10 CURVE SMOOTH",
"449 1 OFFCURVE",
"549 109 OFFCURVE",
"549 285 CURVE",
"549 441 OFFCURVE",
"469 540 OFFCURVE",
"333 540 CURVE",
"229 540 OFFCURVE",
"169 488 OFFCURVE",
"143 437 CURVE",
"143 357 LINE",
"180 428 OFFCURVE",
"243 467 OFFCURVE",
"313 465 CURVE SMOOTH",
"414 462 OFFCURVE",
"467 387 OFFCURVE",
"467 276 CURVE",
"467 154 OFFCURVE",
"404 75 OFFCURVE",
"303 66 CURVE SMOOTH",
"226 59 OFFCURVE",
"180 77 OFFCURVE",
"143 91 CURVE"
);
}
);
};
guideLines = (
{
position = "{95, -220}";
},
{
position = "{183, -220}";
}
);
layerId = "DC46B086-4DC3-4260-9EBF-C204FB70037C";
name = Bold;
paths = (
{
closed = 1;
nodes = (
"128 11 LINE",
"170 -1 OFFCURVE",
"209 -10 OFFCURVE",
"270 -10 CURVE",
"415.383 -10 OFFCURVE",
"575 71 OFFCURVE",
"575 277 CURVE",
"575 470 OFFCURVE",
"446.261 540 OFFCURVE",
"340 540 CURVE",
"260 540 OFFCURVE",
"212 515 OFFCURVE",
"175 477 CURVE",
"185 369 LINE",
"206 382 OFFCURVE",
"243 397 OFFCURVE",
"286 397 CURVE",
"356 397 OFFCURVE",
"409 358 OFFCURVE",
"409 265 CURVE",
"409 160 OFFCURVE",
"334 133 OFFCURVE",
"261 133 CURVE SMOOTH",
"226 133 OFFCURVE",
"193 141 OFFCURVE",
"175 149 CURVE"
);
},
{
closed = 1;
nodes = (
"210 414 LINE",
"200 432 LINE",
"200 530 LINE",
"50 530 LINE",
"50 -158 LINE",
"210 -158 LINE"
);
}
);
width = 605;
}
);
unicode = 0070;
userData = {
com.typemytype.robofont.guides = (
{
angle = 0;
isGlobal = 0;
magnetic = 5;
x = 95;
y = -220;
},
{
angle = 0;
isGlobal = 0;
magnetic = 5;
x = 183;
y = -220;
}
);
com.typesupply.AccentFactory.yCoordinates = {
top = {
name = xHeight;
type = fontInfo;
};
};
};
},
{
glyphname = thorn;
lastChange = "2015-12-30 05:56:37 +0000";
layers = (
{
layerId = "6FDD6D71-1703-4D62-BB36-645A25EBC0A3";
name = Light;
paths = (
{
closed = 1;
nodes = (
"119 -158 LINE",
"119 698 LINE",
"89 688 LINE",
"89 -158 LINE"
);
},
{
closed = 1;
nodes = (
"99 27 LINE",
"146 9 OFFCURVE",
"193 -10 OFFCURVE",
"269 -10 CURVE",
"427 -10 OFFCURVE",
"538 96 OFFCURVE",
"538 280 CURVE SMOOTH",
"538 441 OFFCURVE",
"447 540 OFFCURVE",
"307 540 CURVE",
"212 540 OFFCURVE",
"137 487 OFFCURVE",
"109 457 CURVE",
"109 426 LINE",
"141 459 OFFCURVE",
"212 512 OFFCURVE",
"307 512 CURVE",
"431 512 OFFCURVE",
"508 421 OFFCURVE",
"508 280 CURVE SMOOTH",
"508 114 OFFCURVE",
"414 18 OFFCURVE",
"269 18 CURVE",
"197 18 OFFCURVE",
"154 36 OFFCURVE",
"109 53 CURVE"
);
}
);
width = 597;
},
{
layerId = "DC46B086-4DC3-4260-9EBF-C204FB70037C";
name = Bold;
paths = (
{
closed = 1;
nodes = (
"210 -158 LINE",
"210 708 LINE",
"50 688 LINE",
"50 -158 LINE"
);
},
{
closed = 1;
nodes = (
"128 11 LINE",
"170 -1 OFFCURVE",
"209 -10 OFFCURVE",
"270 -10 CURVE",
"415.383 -10 OFFCURVE",
"575 71 OFFCURVE",
"575 277 CURVE",
"575 470 OFFCURVE",
"446.261 540 OFFCURVE",
"340 540 CURVE",
"260 540 OFFCURVE",
"212 515 OFFCURVE",
"175 477 CURVE",
"185 369 LINE",
"206 382 OFFCURVE",
"243 397 OFFCURVE",
"286 397 CURVE",
"356 397 OFFCURVE",
"409 358 OFFCURVE",
"409 265 CURVE",
"409 160 OFFCURVE",
"334 133 OFFCURVE",
"261 133 CURVE SMOOTH",
"226 133 OFFCURVE",
"193 141 OFFCURVE",
"175 149 CURVE"
);
}
);
width = 605;
}
);
unicode = 00FE;
},
{
glyphname = q;
lastChange = "2015-12-30 05:56:37 +0000";
layers = (
{
background = {
paths = (
{
closed = 1;
nodes = (
"488 -220 LINE",
"488 503 LINE",
"508 377 LINE",
"455 396 OFFCURVE",
"393 412 OFFCURVE",
"313 412 CURVE SMOOTH",
"178 412 OFFCURVE",
"89 356.119 OFFCURVE",
"89 255 CURVE SMOOTH",
"89 168 OFFCURVE",
"166 108 OFFCURVE",
"290 108 CURVE",
"390 108 OFFCURVE",
"465 160 OFFCURVE",
"498 194 CURVE",
"498 73 LINE",
"469 42 OFFCURVE",
"390 -10 OFFCURVE",
"290 -10 CURVE",
"150 -10 OFFCURVE",
"59 94 OFFCURVE",
"59 255 CURVE SMOOTH",
"59 439 OFFCURVE",
"165 540 OFFCURVE",
"313 540 CURVE SMOOTH",
"397 540 OFFCURVE",
"463 523 OFFCURVE",
"518 503 CURVE",
"518 -220 LINE"
);
}
);
};
layerId = "6FDD6D71-1703-4D62-BB36-645A25EBC0A3";
name = Light;
paths = (
{
closed = 1;
nodes = (
"488 -158 LINE",
"488 503 LINE",
"508 477 LINE",
"455 496 OFFCURVE",
"393 512 OFFCURVE",
"313 512 CURVE SMOOTH",
"178 512 OFFCURVE",
"89 421 OFFCURVE",
"89 255 CURVE SMOOTH",
"89 114 OFFCURVE",
"166 18 OFFCURVE",
"290 18 CURVE",
"390 18 OFFCURVE",
"465 70 OFFCURVE",
"498 104 CURVE",
"498 73 LINE",
"469 42 OFFCURVE",
"390 -10 OFFCURVE",
"290 -10 CURVE",
"150 -10 OFFCURVE",
"59 94 OFFCURVE",
"59 255 CURVE SMOOTH",
"59 439 OFFCURVE",
"165 540 OFFCURVE",
"313 540 CURVE SMOOTH",
"397 540 OFFCURVE",
"463 523 OFFCURVE",
"518 503 CURVE",
"518 -158 LINE"
);
}
);
width = 607;
},
{
layerId = "DC46B086-4DC3-4260-9EBF-C204FB70037C";
name = Bold;
paths = (
{
closed = 1;
nodes = (
"395 -158 LINE",
"395 402 LINE",
"420 381 LINE",
"398 389 OFFCURVE",
"369 397 OFFCURVE",
"334 397 CURVE SMOOTH",
"261 397 OFFCURVE",
"196 365 OFFCURVE",
"196 263 CURVE",
"196 169 OFFCURVE",
"251 136 OFFCURVE",
"306 136 CURVE SMOOTH",
"351 136 OFFCURVE",
"394 147 OFFCURVE",
"420 161 CURVE",
"420 43 LINE",
"383 14 OFFCURVE",
"324 -10 OFFCURVE",
"254 -10 CURVE SMOOTH",
"137 -10 OFFCURVE",
"30 69 OFFCURVE",
"30 253 CURVE",
"30 459 OFFCURVE",
"180 540 OFFCURVE",
"325 540 CURVE",
"429 540 OFFCURVE",
"500 513 OFFCURVE",
"555 493 CURVE",
"555 -158 LINE"
);
}
);
width = 605;
}
);
unicode = 0071;
userData = {
com.typemytype.robofont.layerData = {
background = {
anchors = (
);
components = (
);
contours = (
{
points = (
{
segmentType = line;
smooth = 0;
x = 488;
y = -220;
},
{
segmentType = line;
smooth = 0;
x = 488;
y = 503;
},
{
segmentType = line;
smooth = 0;
x = 508;
y = 377;
},
{
smooth = 0;
x = 455;
y = 396;
},
{
smooth = 0;
x = 393;
y = 412;
},
{
segmentType = curve;
smooth = 1;
x = 313;
y = 412;
},
{
smooth = 0;
x = 178;
y = 412;
},
{
smooth = 0;
x = 89;
y = 356.119;
},
{
segmentType = curve;
smooth = 1;
x = 89;
y = 255;
},
{
smooth = 0;
x = 89;
y = 168;
},
{
smooth = 0;
x = 166;
y = 108;
},
{
segmentType = curve;
smooth = 0;
x = 290;
y = 108;
},
{
smooth = 0;
x = 390;
y = 108;
},
{
smooth = 0;
x = 465;
y = 160;
},
{
segmentType = curve;
smooth = 0;
x = 498;
y = 194;
},
{
segmentType = line;
smooth = 0;
x = 498;
y = 73;
},
{
smooth = 0;
x = 469;
y = 42;
},
{
smooth = 0;
x = 390;
y = -10;
},
{
segmentType = curve;
smooth = 0;
x = 290;
y = -10;
},
{
smooth = 0;
x = 150;
y = -10;
},
{
smooth = 0;
x = 59;
y = 94;
},
{
segmentType = curve;
smooth = 1;
x = 59;
y = 255;
},
{
smooth = 0;
x = 59;
y = 439;
},
{
smooth = 0;
x = 165;
y = 540;
},
{
segmentType = curve;
smooth = 1;
x = 313;
y = 540;
},
{
smooth = 0;
x = 397;
y = 540;
},
{
smooth = 0;
x = 463;
y = 523;
},
{
segmentType = curve;
smooth = 0;
x = 518;
y = 503;
},
{
segmentType = line;
smooth = 0;
x = 518;
y = -220;
}
);
}
);
lib = {
};
name = q;
unicodes = (
);
width = 607;
};
};
com.typesupply.AccentFactory.yCoordinates = {
top = {
name = xHeight;
type = fontInfo;
};
};
};
},
{
glyphname = r;
lastChange = "2015-12-30 05:56:37 +0000";
layers = (
{
background = {
paths = (
{
closed = 1;
nodes = (
"89 530 LINE",
"89 0 LINE",
"169 0 LINE",
"169 432 LINE",
"164 446 LINE",
"164 530 LINE"
);
},
{
closed = 1;
nodes = (
"388 533 LINE",
"368 538 OFFCURVE",
"348 540 OFFCURVE",
"329 540 CURVE SMOOTH",
"240 540 OFFCURVE",
"173 491 OFFCURVE",
"147 423 CURVE",
"147 306 LINE",
"163 411 OFFCURVE",
"242 463 OFFCURVE",
"316 463 CURVE SMOOTH",
"342 463 OFFCURVE",
"367 458 OFFCURVE",
"388 449 CURVE"
);
}
);
};
layerId = "6FDD6D71-1703-4D62-BB36-645A25EBC0A3";
name = Light;
paths = (
{
closed = 1;
nodes = (
"89 530 LINE",
"89 0 LINE",
"119 0 LINE",
"119 424 LINE",
"117 438 LINE",
"117 530 LINE"
);
},
{
closed = 1;
nodes = (
"302 540 CURVE",
"225 540 OFFCURVE",
"157 483 OFFCURVE",
"112 436 CURVE",
"115 410 LINE",
"154 452 OFFCURVE",
"235 512 OFFCURVE",
"300 512 CURVE",
"334 512 OFFCURVE",
"358 502 OFFCURVE",
"379 487 CURVE",
"379 517 LINE",
"357 532 OFFCURVE",
"331 540 OFFCURVE"
);
}
);
width = 403;
},
{
background = {
paths = (
{
closed = 1;
nodes = (
"60 530 LINE",
"60 0 LINE",
"140 0 LINE",
"140 530 LINE"
);
},
{
closed = 1;
nodes = (
"359 533 LINE",
"339 538 OFFCURVE",
"319 540 OFFCURVE",
"300 540 CURVE SMOOTH",
"211 540 OFFCURVE",
"144 491 OFFCURVE",
"118 423 CURVE",
"118 316 LINE",
"134 421 OFFCURVE",
"213 463 OFFCURVE",
"287 463 CURVE SMOOTH",
"313 463 OFFCURVE",
"338 458 OFFCURVE",
"359 449 CURVE"
);
}
);
};
layerId = "DC46B086-4DC3-4260-9EBF-C204FB70037C";
name = Bold;
paths = (
{
closed = 1;
nodes = (
"50 530 LINE",
"50 0 LINE",
"210 0 LINE",
"210 397 LINE",
"200 415 LINE",
"200 530 LINE"
);
},
{
closed = 1;
nodes = (
"370 540 CURVE SMOOTH",
"292 540 OFFCURVE",
"221 492 OFFCURVE",
"185 452 CURVE",
"185 352 LINE",
"213 368 OFFCURVE",
"260 385 OFFCURVE",
"314 385 CURVE",
"356 385 OFFCURVE",
"395 374 OFFCURVE",
"420 361 CURVE",
"420 532 LINE",
"404 537 OFFCURVE",
"387 540 OFFCURVE"
);
}
);
width = 430;
}
);
unicode = 0072;
userData = {
com.typemytype.robofont.layerData = {
background = {
anchors = (
);
components = (
);
contours = (
{
points = (
{
segmentType = line;
smooth = 0;
x = 89;
y = 530;
},
{
segmentType = line;
smooth = 0;
x = 89;
y = 0;
},
{
segmentType = line;
smooth = 0;
x = 169;
y = 0;
},
{
segmentType = line;
smooth = 0;
x = 169;
y = 432;
},
{
segmentType = line;
smooth = 0;
x = 164;
y = 446;
},
{
segmentType = line;
smooth = 0;
x = 164;
y = 530;
}
);
},
{
points = (
{
segmentType = line;
smooth = 0;
x = 388;
y = 533;
},
{
smooth = 0;
x = 368;
y = 538;
},
{
smooth = 0;
x = 348;
y = 540;
},
{
segmentType = curve;
smooth = 1;
x = 329;
y = 540;
},
{
smooth = 0;
x = 240;
y = 540;
},
{
smooth = 0;
x = 173;
y = 491;
},
{
segmentType = curve;
smooth = 0;
x = 147;
y = 423;
},
{
segmentType = line;
smooth = 0;
x = 147;
y = 306;
},
{
smooth = 0;
x = 163;
y = 411;
},
{
smooth = 0;
x = 242;
y = 463;
},
{
segmentType = curve;
smooth = 1;
x = 316;
y = 463;
},
{
smooth = 0;
x = 342;
y = 463;
},
{
smooth = 0;
x = 367;
y = 458;
},
{
segmentType = curve;
smooth = 0;
x = 388;
y = 449;
}
);
}
);
lib = {
};
name = r;
unicodes = (
);
width = 403;
};
};
com.typesupply.AccentFactory.yCoordinates = {
bottom = {
name = origin;
type = glyphMetric;
};
top = {
name = xHeight;
type = fontInfo;
};
};
};
},
{
glyphname = s;
lastChange = "2015-12-30 05:56:37 +0000";
layers = (
{
layerId = "6FDD6D71-1703-4D62-BB36-645A25EBC0A3";
name = Light;
paths = (
{
closed = 1;
nodes = (
"298 257 CURVE SMOOTH",
"211 285 LINE SMOOTH",
"137 309 OFFCURVE",
"82 335 OFFCURVE",
"82 406 CURVE",
"82 478 OFFCURVE",
"150 514 OFFCURVE",
"225 514 CURVE",
"296 514 OFFCURVE",
"364 485 OFFCURVE",
"404 456 CURVE",
"404 491 LINE",
"363 518 OFFCURVE",
"297 542 OFFCURVE",
"224 542 CURVE",
"118 542 OFFCURVE",
"52 480 OFFCURVE",
"52 406 CURVE",
"52 322 OFFCURVE",
"112 286 OFFCURVE",
"181 264 CURVE SMOOTH",
"276 234 LINE SMOOTH",
"350 211 OFFCURVE",
"399 187 OFFCURVE",
"399 117 CURVE",
"399 39 OFFCURVE",
"342 11 OFFCURVE",
"259 11 CURVE",
"173 11 OFFCURVE",
"89 47 OFFCURVE",
"44 78 CURVE",
"44 43 LINE",
"90 15 OFFCURVE",
"170 -17 OFFCURVE",
"260 -17 CURVE",
"368 -17 OFFCURVE",
"429 31 OFFCURVE",
"429 117 CURVE",
"429 201 OFFCURVE",
"366 235 OFFCURVE"
);
}
);
width = 473;
},
{
anchors = (
{
name = center;
position = "{257, 265}";
}
);
background = {
paths = (
{
closed = 1;
nodes = (
"161.14 331 OFFCURVE",
"124.14 346 OFFCURVE",
"124.14 395 CURVE SMOOTH",
"124.14 442 OFFCURVE",
"160.14 467 OFFCURVE",
"222.14 467 CURVE SMOOTH",
"312.14 467 OFFCURVE",
"376.14 423 OFFCURVE",
"409.14 388 CURVE",
"409.14 475 LINE",
"377.14 506 OFFCURVE",
"306.14 542 OFFCURVE",
"227.14 542 CURVE SMOOTH",
"114.14 542 OFFCURVE",
"44.14 472 OFFCURVE",
"44.14 388 CURVE SMOOTH",
"44.14 301 OFFCURVE",
"104.14 265 OFFCURVE",
"190.14 241 CURVE SMOOTH",
"254.14 223 LINE SMOOTH",
"318.14 205 OFFCURVE",
"355.14 186 OFFCURVE",
"355.14 142 CURVE SMOOTH",
"355.14 92 OFFCURVE",
"321.14 69 OFFCURVE",
"253.14 69 CURVE SMOOTH",
"166.14 69 OFFCURVE",
"93.14 112 OFFCURVE",
"55.14 155 CURVE",
"55.14 72 LINE",
"96.14 30 OFFCURVE",
"170.14 -6 OFFCURVE",
"250.14 -6 CURVE SMOOTH",
"378.14 -6 OFFCURVE",
"436.14 63 OFFCURVE",
"436.14 145 CURVE SMOOTH",
"436.14 229 OFFCURVE",
"379.14 266 OFFCURVE",
"288.14 293 CURVE SMOOTH",
"229.14 311 LINE SMOOTH"
);
}
);
};
layerId = "DC46B086-4DC3-4260-9EBF-C204FB70037C";
name = Bold;
paths = (
{
closed = 1;
nodes = (
"316 318 CURVE SMOOTH",
"275 328 LINE SMOOTH",
"213 343 OFFCURVE",
"180 350 OFFCURVE",
"180 374 CURVE",
"180 391 OFFCURVE",
"202 398 OFFCURVE",
"238 398 CURVE SMOOTH",
"317 398 OFFCURVE",
"410 367 OFFCURVE",
"447 337 CURVE",
"447 493 LINE",
"414 515 OFFCURVE",
"327 540 OFFCURVE",
"248 540 CURVE SMOOTH",
"107 540 OFFCURVE",
"25 470 OFFCURVE",
"25 367 CURVE SMOOTH",
"25 266 OFFCURVE",
"99 225 OFFCURVE",
"190 206 CURVE SMOOTH",
"228 198 LINE SMOOTH",
"288 185 OFFCURVE",
"319 178 OFFCURVE",
"319 157 CURVE",
"319 137 OFFCURVE",
"300 129 OFFCURVE",
"256 129 CURVE SMOOTH",
"179 129 OFFCURVE",
"97 157 OFFCURVE",
"43 188 CURVE",
"43 37 LINE",
"77 16 OFFCURVE",
"167 -10 OFFCURVE",
"247 -10 CURVE SMOOTH",
"379 -10 OFFCURVE",
"469 47 OFFCURVE",
"469 162 CURVE",
"469 241 OFFCURVE",
"420 293 OFFCURVE"
);
}
);
width = 494;
}
);
unicode = 0073;
userData = {
com.typesupply.AccentFactory.yCoordinates = {
bottom = {
name = origin;
type = glyphMetric;
};
top = {
name = xHeight;
type = fontInfo;
};
};
};
},
{
glyphname = germandbls;
lastChange = "2015-12-30 05:56:37 +0000";
layers = (
{
layerId = "6FDD6D71-1703-4D62-BB36-645A25EBC0A3";
name = Light;
paths = (
{
closed = 1;
nodes = (
"38 502 LINE",
"135 502 LINE",
"135 530 LINE",
"38 530 LINE"
);
},
{
closed = 1;
nodes = (
"371 303 CURVE",
"371 252 OFFCURVE",
"411 228 OFFCURVE",
"456 206 CURVE SMOOTH",
"489 190 LINE SMOOTH",
"540 165 OFFCURVE",
"564 143 OFFCURVE",
"564 101 CURVE",
"564 35 OFFCURVE",
"508 18 OFFCURVE",
"455 18 CURVE",
"387 18 OFFCURVE",
"308 48 OFFCURVE",
"269 75 CURVE",
"269 40 LINE",
"308 17 OFFCURVE",
"383 -10 OFFCURVE",
"456 -10 CURVE",
"533 -10 OFFCURVE",
"594 26 OFFCURVE",
"594 101 CURVE",
"594 155 OFFCURVE",
"555 188 OFFCURVE",
"508 212 CURVE SMOOTH",
"472 230 LINE SMOOTH",
"434 249 OFFCURVE",
"401 271 OFFCURVE",
"401 305 CURVE",
"401 331 OFFCURVE",
"417 351 OFFCURVE",
"443 380 CURVE SMOOTH",
"483 425 LINE SMOOTH",
"510 455 OFFCURVE",
"528 494 OFFCURVE",
"528 540 CURVE",
"528 641 OFFCURVE",
"449 698 OFFCURVE",
"344 698 CURVE",
"220 698 OFFCURVE",
"121 629 OFFCURVE",
"121 471 CURVE",
"121 0 LINE",
"151 0 LINE",
"151 473 LINE",
"151 592 OFFCURVE",
"214 669 OFFCURVE",
"344 669 CURVE",
"447 669 OFFCURVE",
"498 608 OFFCURVE",
"498 540 CURVE",
"498 505 OFFCURVE",
"486 473 OFFCURVE",
"463 446 CURVE SMOOTH",
"419 395 LINE SMOOTH",
"391 363 OFFCURVE",
"371 340 OFFCURVE"
);
}
);
width = 653;
},
{
background = {
paths = (
{
closed = 1;
nodes = (
"10 380 LINE",
"167 380 LINE",
"167 530 LINE",
"10 530 LINE"
);
},
{
closed = 1;
nodes = (
"384 698 CURVE",
"195 698 OFFCURVE",
"105 580 OFFCURVE",
"105 448 CURVE",
"105 0 LINE",
"265 0 LINE",
"265 449 LINE",
"265 518 OFFCURVE",
"310 553 OFFCURVE",
"377 553 CURVE",
"429 553 OFFCURVE",
"450 528 OFFCURVE",
"450 499 CURVE SMOOTH",
"450 478 OFFCURVE",
"435 458 OFFCURVE",
"423 438 CURVE SMOOTH",
"399 398 LINE SMOOTH",
"380 366 OFFCURVE",
"364 340 OFFCURVE",
"364 304 CURVE SMOOTH",
"364 262 OFFCURVE",
"388 228 OFFCURVE",
"439 203 CURVE SMOOTH",
"483 181 LINE SMOOTH",
"529 158 OFFCURVE",
"545 149 OFFCURVE",
"545 133 CURVE",
"545 120 OFFCURVE",
"531 116 OFFCURVE",
"513 116 CURVE SMOOTH",
"465 116 OFFCURVE",
"386 139 OFFCURVE",
"338 164 CURVE",
"338 27 LINE",
"386 4 OFFCURVE",
"446 -10 OFFCURVE",
"514 -10 CURVE SMOOTH",
"641 -10 OFFCURVE",
"696 55 OFFCURVE",
"696 132 CURVE SMOOTH",
"696 203 OFFCURVE",
"653 236 OFFCURVE",
"609 263 CURVE SMOOTH",
"556 296 LINE SMOOTH",
"532 311 OFFCURVE",
"521 319 OFFCURVE",
"521 332 CURVE",
"521 342 OFFCURVE",
"528 355 OFFCURVE",
"549 382 CURVE SMOOTH",
"574 415 LINE SMOOTH",
"597 446 OFFCURVE",
"614 484 OFFCURVE",
"614 527 CURVE",
"614 628 OFFCURVE",
"525 698 OFFCURVE"
);
}
);
};
layerId = "DC46B086-4DC3-4260-9EBF-C204FB70037C";
name = Bold;
paths = (
{
closed = 1;
nodes = (
"10 380 LINE",
"167 380 LINE",
"167 530 LINE",
"10 530 LINE"
);
},
{
closed = 1;
nodes = (
"363 306 CURVE SMOOTH",
"363 259.061 OFFCURVE",
"388.27 233.386 OFFCURVE",
"430 206 CURVE SMOOTH",
"462 185 LINE SMOOTH",
"504 158 OFFCURVE",
"519 148 OFFCURVE",
"519 133 CURVE",
"519 120 OFFCURVE",
"506 116 OFFCURVE",
"489 116 CURVE SMOOTH",
"445 116 OFFCURVE",
"374 140 OFFCURVE",
"330 164 CURVE",
"330 27 LINE",
"375.268 4.892 OFFCURVE",
"431.169 -10 OFFCURVE",
"494 -10 CURVE",
"617.422 -10 OFFCURVE",
"671 52 OFFCURVE",
"671 136 CURVE",
"671 193 OFFCURVE",
"635.224 235.566 OFFCURVE",
"599 262 CURVE SMOOTH",
"562 289 LINE SMOOTH",
"530.444 312.028 OFFCURVE",
"519 319.894 OFFCURVE",
"519 333 CURVE SMOOTH",
"519 343.732 OFFCURVE",
"528.977 358.117 OFFCURVE",
"542 377 CURVE SMOOTH",
"562 406 LINE SMOOTH",
"583.39 437.016 OFFCURVE",
"602 476 OFFCURVE",
"602 515 CURVE",
"602 609 OFFCURVE",
"525 698 OFFCURVE",
"380 698 CURVE",
"193.321 698 OFFCURVE",
"105 580 OFFCURVE",
"105 448 CURVE",
"105 0 LINE",
"265 0 LINE",
"265 449 LINE",
"265 518 OFFCURVE",
"307 553 OFFCURVE",
"369 553 CURVE",
"421 553 OFFCURVE",
"443 531 OFFCURVE",
"443 499 CURVE",
"443 479 OFFCURVE",
"428 453 OFFCURVE",
"413 426 CURVE SMOOTH",
"394 392 LINE SMOOTH",
"379.072 365.286 OFFCURVE",
"363 336.295 OFFCURVE"
);
}
);
width = 691;
}
);
unicode = 00DF;
},
{
glyphname = t;
lastChange = "2015-12-30 05:56:37 +0000";
layers = (
{
background = {
paths = (
{
closed = 1;
nodes = (
"376 19 CURVE",
"376 99 LINE",
"355 83 OFFCURVE",
"322 67 OFFCURVE",
"276 67 CURVE SMOOTH",
"212 67 OFFCURVE",
"192 103 OFFCURVE",
"192 170 CURVE",
"192 455 LINE",
"369 455 LINE",
"369 530 LINE",
"192 530 LINE",
"192 639 LINE",
"182 639 LINE",
"29 465 LINE",
"29 455 LINE",
"112 455 LINE",
"112 145 LINE",
"112 27 OFFCURVE",
"183 -10 OFFCURVE",
"269 -10 CURVE SMOOTH",
"315 -10 OFFCURVE",
"359 4 OFFCURVE"
);
}
);
};
layerId = "6FDD6D71-1703-4D62-BB36-645A25EBC0A3";
name = Light;
paths = (
{
closed = 1;
nodes = (
"356 24 CURVE",
"356 56 LINE",
"330 36 OFFCURVE",
"293 19 OFFCURVE",
"248 19 CURVE",
"180 19 OFFCURVE",
"142 53 OFFCURVE",
"142 128 CURVE",
"142 502 LINE",
"349 502 LINE",
"349 530 LINE",
"142 530 LINE",
"142 630 LINE",
"132 630 LINE",
"29 512 LINE",
"29 502 LINE",
"112 502 LINE",
"112 130 LINE",
"112 16 OFFCURVE",
"183 -10 OFFCURVE",
"247 -10 CURVE",
"299 -10 OFFCURVE",
"336 8 OFFCURVE"
);
}
);
width = 395;
},
{
background = {
paths = (
{
closed = 1;
nodes = (
"347 19 CURVE",
"347 99 LINE",
"326 83 OFFCURVE",
"293 67 OFFCURVE",
"247 67 CURVE SMOOTH",
"183 67 OFFCURVE",
"163 103 OFFCURVE",
"163 170 CURVE",
"163 455 LINE",
"340 455 LINE",
"340 530 LINE",
"163 530 LINE",
"163 639 LINE",
"153 639 LINE",
"0 465 LINE",
"0 455 LINE",
"83 455 LINE",
"83 145 LINE",
"83 27 OFFCURVE",
"154 -10 OFFCURVE",
"240 -10 CURVE SMOOTH",
"286 -10 OFFCURVE",
"330 4 OFFCURVE"
);
}
);
};
guideLines = (
{
angle = 90;
position = "{417, 88}";
},
{
position = "{340, 390}";
}
);
layerId = "DC46B086-4DC3-4260-9EBF-C204FB70037C";
name = Bold;
paths = (
{
closed = 1;
nodes = (
"417 21 CURVE",
"417 154 LINE",
"395 144 OFFCURVE",
"355 134 OFFCURVE",
"315 134 CURVE SMOOTH",
"276 134 OFFCURVE",
"250 146 OFFCURVE",
"250 193 CURVE",
"250 390 LINE",
"417 390 LINE",
"417 530 LINE",
"250 530 LINE",
"250 629 LINE",
"215 629 LINE",
"10 429 LINE",
"10 390 LINE",
"90 390 LINE",
"90 170 LINE",
"90 29 OFFCURVE",
"166 -11 OFFCURVE",
"269 -11 CURVE SMOOTH",
"335 -11 OFFCURVE",
"384 3 OFFCURVE"
);
}
);
width = 442;
}
);
unicode = 0074;
userData = {
com.typemytype.robofont.layerData = {
background = {
anchors = (
);
components = (
);
contours = (
{
points = (
{
segmentType = curve;
smooth = 0;
x = 376;
y = 19;
},
{
segmentType = line;
smooth = 0;
x = 376;
y = 99;
},
{
smooth = 0;
x = 355;
y = 83;
},
{
smooth = 0;
x = 322;
y = 67;
},
{
segmentType = curve;
smooth = 1;
x = 276;
y = 67;
},
{
smooth = 0;
x = 212;
y = 67;
},
{
smooth = 0;
x = 192;
y = 103;
},
{
segmentType = curve;
smooth = 0;
x = 192;
y = 170;
},
{
segmentType = line;
smooth = 0;
x = 192;
y = 455;
},
{
segmentType = line;
smooth = 0;
x = 369;
y = 455;
},
{
segmentType = line;
smooth = 0;
x = 369;
y = 530;
},
{
segmentType = line;
smooth = 0;
x = 192;
y = 530;
},
{
segmentType = line;
smooth = 0;
x = 192;
y = 639;
},
{
segmentType = line;
smooth = 0;
x = 182;
y = 639;
},
{
segmentType = line;
smooth = 0;
x = 29;
y = 465;
},
{
segmentType = line;
smooth = 0;
x = 29;
y = 455;
},
{
segmentType = line;
smooth = 0;
x = 112;
y = 455;
},
{
segmentType = line;
smooth = 0;
x = 112;
y = 145;
},
{
smooth = 0;
x = 112;
y = 27;
},
{
smooth = 0;
x = 183;
y = -10;
},
{
segmentType = curve;
smooth = 1;
x = 269;
y = -10;
},
{
smooth = 0;
x = 315;
y = -10;
},
{
smooth = 0;
x = 359;
y = 4;
}
);
}
);
lib = {
};
name = t;
unicodes = (
);
width = 395;
};
};
com.typesupply.AccentFactory.yCoordinates = {
bottom = {
name = origin;
type = glyphMetric;
};
};
};
},
{
glyphname = tbar;
lastChange = "2015-12-30 05:56:37 +0000";
layers = (
{
layerId = "6FDD6D71-1703-4D62-BB36-645A25EBC0A3";
name = Light;
paths = (
{
closed = 1;
nodes = (
"29 320 LINE",
"29 292 LINE",
"349 292 LINE",
"349 320 LINE"
);
},
{
closed = 1;
nodes = (
"356 24 CURVE",
"356 56 LINE",
"330 36 OFFCURVE",
"293 19 OFFCURVE",
"248 19 CURVE",
"180 19 OFFCURVE",
"142 53 OFFCURVE",
"142 128 CURVE",
"142 502 LINE",
"349 502 LINE",
"349 530 LINE",
"142 530 LINE",
"142 630 LINE",
"132 630 LINE",
"29 512 LINE",
"29 502 LINE",
"112 502 LINE",
"112 130 LINE",
"112 16 OFFCURVE",
"183 -10 OFFCURVE",
"247 -10 CURVE",
"299 -10 OFFCURVE",
"336 8 OFFCURVE"
);
}
);
width = 395;
},
{
layerId = "DC46B086-4DC3-4260-9EBF-C204FB70037C";
name = Bold;
paths = (
{
closed = 1;
nodes = (
"30 335 LINE",
"30 195 LINE",
"437 195 LINE",
"437 335 LINE"
);
},
{
closed = 1;
nodes = (
"437 21 CURVE",
"437 154 LINE",
"415 144 OFFCURVE",
"375 134 OFFCURVE",
"335 134 CURVE SMOOTH",
"296 134 OFFCURVE",
"270 146 OFFCURVE",
"270 193 CURVE",
"270 390 LINE",
"437 390 LINE",
"437 530 LINE",
"270 530 LINE",
"270 629 LINE",
"235 629 LINE",
"30 429 LINE",
"30 390 LINE",
"110 390 LINE",
"110 170 LINE",
"110 29 OFFCURVE",
"186 -11 OFFCURVE",
"289 -11 CURVE SMOOTH",
"355 -11 OFFCURVE",
"404 3 OFFCURVE"
);
}
);
width = 477;
}
);
unicode = 0167;
},
{
glyphname = u;
lastChange = "2015-12-30 05:56:37 +0000";
layers = (
{
background = {
paths = (
{
closed = 1;
nodes = (
"510 0 LINE",
"510 530 LINE",
"430 530 LINE",
"430 74 LINE",
"435 60 LINE",
"435 0 LINE"
);
},
{
closed = 1;
nodes = (
"164 193 CURVE",
"164 530 LINE",
"84 530 LINE",
"84 190 LINE",
"84 47 OFFCURVE",
"170 -10 OFFCURVE",
"273 -10 CURVE SMOOTH",
"354 -10 OFFCURVE",
"419 34 OFFCURVE",
"452 77 CURVE",
"452 154 LINE",
"414 107 OFFCURVE",
"357 64 OFFCURVE",
"286 64 CURVE SMOOTH",
"216 64 OFFCURVE",
"164 97 OFFCURVE"
);
}
);
};
guideLines = (
{
position = "{467, 530}";
}
);
layerId = "6FDD6D71-1703-4D62-BB36-645A25EBC0A3";
name = Light;
paths = (
{
closed = 1;
nodes = (
"510 0 LINE",
"510 530 LINE",
"480 530 LINE",
"480 86 LINE",
"482 72 LINE",
"482 0 LINE"
);
},
{
closed = 1;
nodes = (
"273 18 CURVE SMOOTH",
"185 18 OFFCURVE",
"114 69 OFFCURVE",
"114 190 CURVE SMOOTH",
"114 530 LINE",
"84 530 LINE",
"84 190 LINE SMOOTH",
"84 47 OFFCURVE",
"170 -10 OFFCURVE",
"273 -10 CURVE SMOOTH",
"370 -10 OFFCURVE",
"439 38 OFFCURVE",
"487 74 CURVE",
"484 100 LINE",
"442 69 OFFCURVE",
"360 18 OFFCURVE"
);
}
);
width = 599;
},
{
layerId = "DC46B086-4DC3-4260-9EBF-C204FB70037C";
name = Bold;
paths = (
{
closed = 1;
nodes = (
"567 0 LINE",
"567 530 LINE",
"407 530 LINE",
"407 133 LINE",
"417 115 LINE",
"417 0 LINE"
);
},
{
closed = 1;
nodes = (
"298 145 CURVE",
"230 145 OFFCURVE",
"207 182 OFFCURVE",
"207 233 CURVE",
"207 530 LINE",
"47 530 LINE",
"47 190 LINE",
"47 74 OFFCURVE",
"94 -10 OFFCURVE",
"225 -10 CURVE",
"317 -10 OFFCURVE",
"392 34 OFFCURVE",
"432 78 CURVE",
"432 178 LINE",
"404 161 OFFCURVE",
"352 145 OFFCURVE"
);
}
);
width = 617;
}
);
unicode = 0075;
userData = {
com.typemytype.robofont.guides = (
{
angle = 0;
isGlobal = 0;
magnetic = 5;
x = 467;
y = 530;
}
);
com.typemytype.robofont.layerData = {
background = {
anchors = (
);
components = (
);
contours = (
{
points = (
{
segmentType = line;
smooth = 0;
x = 510;
y = 0;
},
{
segmentType = line;
smooth = 0;
x = 510;
y = 530;
},
{
segmentType = line;
smooth = 0;
x = 430;
y = 530;
},
{
segmentType = line;
smooth = 0;
x = 430;
y = 74;
},
{
segmentType = line;
smooth = 0;
x = 435;
y = 60;
},
{
segmentType = line;
smooth = 0;
x = 435;
y = 0;
}
);
},
{
points = (
{
segmentType = curve;
smooth = 0;
x = 164;
y = 193;
},
{
segmentType = line;
smooth = 0;
x = 164;
y = 530;
},
{
segmentType = line;
smooth = 0;
x = 84;
y = 530;
},
{
segmentType = line;
smooth = 0;
x = 84;
y = 190;
},
{
smooth = 0;
x = 84;
y = 47;
},
{
smooth = 0;
x = 170;
y = -10;
},
{
segmentType = curve;
smooth = 1;
x = 273;
y = -10;
},
{
smooth = 0;
x = 354;
y = -10;
},
{
smooth = 0;
x = 419;
y = 34;
},
{
segmentType = curve;
smooth = 0;
x = 452;
y = 77;
},
{
segmentType = line;
smooth = 0;
x = 452;
y = 154;
},
{
smooth = 0;
x = 414;
y = 107;
},
{
smooth = 0;
x = 357;
y = 64;
},
{
segmentType = curve;
smooth = 1;
x = 286;
y = 64;
},
{
smooth = 0;
x = 216;
y = 64;
},
{
smooth = 0;
x = 164;
y = 97;
}
);
}
);
lib = {
};
name = u;
unicodes = (
);
width = 599;
};
};
com.typesupply.AccentFactory.yCoordinates = {
bottom = {
name = origin;
type = glyphMetric;
};
top = {
name = xHeight;
type = fontInfo;
};
};
};
},
{
glyphname = v;
lastChange = "2015-12-30 05:56:37 +0000";
layers = (
{
background = {
paths = (
{
closed = 1;
nodes = (
"549 530 LINE",
"463 530 LINE",
"253 0 LINE",
"329 0 LINE"
);
}
);
};
layerId = "6FDD6D71-1703-4D62-BB36-645A25EBC0A3";
name = Light;
paths = (
{
closed = 1;
nodes = (
"240 0 LINE",
"273 0 LINE",
"503 530 LINE",
"470 530 LINE",
"257 32 LINE",
"43 530 LINE",
"10 530 LINE"
);
}
);
width = 513;
},
{
background = {
paths = (
{
closed = 1;
nodes = (
"22 530 LINE",
"242 0 LINE",
"320 0 LINE",
"110 530 LINE"
);
},
{
closed = 1;
nodes = (
"542 530 LINE",
"456 530 LINE",
"246 0 LINE",
"322 0 LINE"
);
}
);
};
layerId = "DC46B086-4DC3-4260-9EBF-C204FB70037C";
name = Bold;
paths = (
{
closed = 1;
nodes = (
"208 0 LINE",
"398 0 LINE",
"602 530 LINE",
"430 530 LINE",
"306 137 LINE",
"179 530 LINE",
"5 530 LINE"
);
}
);
width = 607;
}
);
unicode = 0076;
userData = {
com.typemytype.robofont.layerData = {
background = {
anchors = (
);
components = (
);
contours = (
{
points = (
{
segmentType = line;
smooth = 0;
x = 549;
y = 530;
},
{
segmentType = line;
smooth = 0;
x = 463;
y = 530;
},
{
segmentType = line;
smooth = 0;
x = 253;
y = 0;
},
{
segmentType = line;
smooth = 0;
x = 329;
y = 0;
}
);
}
);
lib = {
};
name = v;
unicodes = (
);
width = 513;
};
};
com.typesupply.AccentFactory.yCoordinates = {
bottom = {
name = origin;
type = glyphMetric;
};
top = {
name = xHeight;
type = fontInfo;
};
};
};
},
{
glyphname = w;
lastChange = "2015-12-30 05:56:37 +0000";
layers = (
{
background = {
paths = (
{
closed = 1;
nodes = (
"195 0 LINE",
"275 0 LINE",
"374 291 LINE SMOOTH",
"398 361 OFFCURVE",
"422 431 OFFCURVE",
"422 463 CURVE",
"422 431 OFFCURVE",
"446 361 OFFCURVE",
"470 291 CURVE SMOOTH",
"569 0 LINE",
"649 0 LINE",
"819 530 LINE",
"731 530 LINE",
"652 254 LINE SMOOTH",
"632 183 OFFCURVE",
"611 99 OFFCURVE",
"612 70 CURVE",
"611 97 OFFCURVE",
"587 181 OFFCURVE",
"562 252 CURVE SMOOTH",
"465 530 LINE",
"379 530 LINE",
"287 252 LINE SMOOTH",
"264 182 OFFCURVE",
"240 99 OFFCURVE",
"240 70 CURVE",
"240 98 OFFCURVE",
"219 182 OFFCURVE",
"197 254 CURVE SMOOTH",
"113 530 LINE",
"25 530 LINE"
);
}
);
};
layerId = "6FDD6D71-1703-4D62-BB36-645A25EBC0A3";
name = Light;
paths = (
{
closed = 1;
nodes = (
"205 0 LINE",
"238 0 LINE",
"412 489 LINE",
"585 0 LINE",
"618 0 LINE",
"798 530 LINE",
"765 530 LINE",
"601 34 LINE",
"428 530 LINE",
"395 530 LINE",
"222 34 LINE",
"58 530 LINE",
"25 530 LINE"
);
}
);
width = 823;
},
{
background = {
paths = (
{
closed = 1;
nodes = (
"185 0 LINE",
"265 0 LINE",
"364 291 LINE SMOOTH",
"388 361 OFFCURVE",
"412 431 OFFCURVE",
"412 463 CURVE",
"412 431 OFFCURVE",
"436 361 OFFCURVE",
"460 291 CURVE SMOOTH",
"559 0 LINE",
"639 0 LINE",
"809 530 LINE",
"721 530 LINE",
"642 254 LINE SMOOTH",
"622 183 OFFCURVE",
"601 99 OFFCURVE",
"602 70 CURVE",
"601 97 OFFCURVE",
"577 181 OFFCURVE",
"552 252 CURVE SMOOTH",
"455 530 LINE",
"369 530 LINE",
"277 252 LINE SMOOTH",
"254 182 OFFCURVE",
"230 99 OFFCURVE",
"230 70 CURVE",
"230 98 OFFCURVE",
"209 182 OFFCURVE",
"187 254 CURVE SMOOTH",
"103 530 LINE",
"15 530 LINE"
);
}
);
};
layerId = "DC46B086-4DC3-4260-9EBF-C204FB70037C";
name = Bold;
paths = (
{
closed = 1;
nodes = (
"154 0 LINE",
"343 0 LINE",
"444 356 LINE",
"545 0 LINE",
"734 0 LINE",
"878 530 LINE",
"706 530 LINE",
"637 147 LINE",
"537 530 LINE",
"353 530 LINE",
"251 147 LINE",
"184 530 LINE",
"10 530 LINE"
);
}
);
width = 888;
}
);
unicode = 0077;
userData = {
com.typemytype.robofont.layerData = {
background = {
anchors = (
);
components = (
);
contours = (
{
points = (
{
segmentType = line;
smooth = 0;
x = 195;
y = 0;
},
{
segmentType = line;
smooth = 0;
x = 275;
y = 0;
},
{
segmentType = line;
smooth = 1;
x = 374;
y = 291;
},
{
smooth = 0;
x = 398;
y = 361;
},
{
smooth = 0;
x = 422;
y = 431;
},
{
segmentType = curve;
smooth = 0;
x = 422;
y = 463;
},
{
smooth = 0;
x = 422;
y = 431;
},
{
smooth = 0;
x = 446;
y = 361;
},
{
segmentType = curve;
smooth = 1;
x = 470;
y = 291;
},
{
segmentType = line;
smooth = 0;
x = 569;
y = 0;
},
{
segmentType = line;
smooth = 0;
x = 649;
y = 0;
},
{
segmentType = line;
smooth = 0;
x = 819;
y = 530;
},
{
segmentType = line;
smooth = 0;
x = 731;
y = 530;
},
{
segmentType = line;
smooth = 1;
x = 652;
y = 254;
},
{
smooth = 0;
x = 632;
y = 183;
},
{
smooth = 0;
x = 611;
y = 99;
},
{
segmentType = curve;
smooth = 0;
x = 612;
y = 70;
},
{
smooth = 0;
x = 611;
y = 97;
},
{
smooth = 0;
x = 587;
y = 181;
},
{
segmentType = curve;
smooth = 1;
x = 562;
y = 252;
},
{
segmentType = line;
smooth = 0;
x = 465;
y = 530;
},
{
segmentType = line;
smooth = 0;
x = 379;
y = 530;
},
{
segmentType = line;
smooth = 1;
x = 287;
y = 252;
},
{
smooth = 0;
x = 264;
y = 182;
},
{
smooth = 0;
x = 240;
y = 99;
},
{
segmentType = curve;
smooth = 0;
x = 240;
y = 70;
},
{
smooth = 0;
x = 240;
y = 98;
},
{
smooth = 0;
x = 219;
y = 182;
},
{
segmentType = curve;
smooth = 1;
x = 197;
y = 254;
},
{
segmentType = line;
smooth = 0;
x = 113;
y = 530;
},
{
segmentType = line;
smooth = 0;
x = 25;
y = 530;
}
);
}
);
lib = {
};
name = w;
unicodes = (
);
width = 823;
};
};
com.typesupply.AccentFactory.yCoordinates = {
bottom = {
name = origin;
type = glyphMetric;
};
top = {
name = xHeight;
type = fontInfo;
};
};
};
},
{
glyphname = x;
lastChange = "2015-12-30 05:56:37 +0000";
layers = (
{
guideLines = (
{
position = "{251, 265}";
}
);
layerId = "6FDD6D71-1703-4D62-BB36-645A25EBC0A3";
name = Light;
paths = (
{
closed = 1;
nodes = (
"415 0 LINE",
"453 0 LINE",
"256 275 LINE",
"450 530 LINE",
"412 530 LINE",
"234 293 LINE",
"56 530 LINE",
"18 530 LINE",
"212 273 LINE",
"15 0 LINE",
"53 0 LINE",
"234 256 LINE"
);
}
);
width = 468;
},
{
background = {
paths = (
{
closed = 1;
nodes = (
"589 0 LINE",
"409 274 LINE",
"354 280 LINE",
"208 530 LINE",
"-2 530 LINE",
"173 258 LINE",
"235 246 LINE",
"379 0 LINE"
);
},
{
closed = 1;
nodes = (
"0 0 LINE",
"205 0 LINE",
"349 246 LINE",
"411 258 LINE",
"586 530 LINE",
"381 530 LINE",
"235 280 LINE",
"180 274 LINE"
);
}
);
};
guideLines = (
{
position = "{251, 265}";
}
);
layerId = "DC46B086-4DC3-4260-9EBF-C204FB70037C";
name = Bold;
paths = (
{
closed = 1;
nodes = (
"403 0 LINE",
"584 0 LINE",
"402 263 LINE",
"583 530 LINE",
"404 530 LINE",
"294 349 LINE",
"183 530 LINE",
"2 530 LINE",
"184 262 LINE",
"3 0 LINE",
"182 0 LINE",
"293 180 LINE"
);
}
);
width = 599;
}
);
unicode = 0078;
userData = {
com.typemytype.robofont.guides = (
{
angle = 0;
isGlobal = 0;
magnetic = 5;
x = 251;
y = 265;
}
);
com.typesupply.AccentFactory.yCoordinates = {
bottom = {
name = origin;
type = glyphMetric;
};
top = {
name = xHeight;
type = fontInfo;
};
};
};
},
{
glyphname = y;
lastChange = "2015-12-30 05:56:37 +0000";
layers = (
{
background = {
paths = (
{
closed = 1;
nodes = (
"262 -117 CURVE SMOOTH",
"539 530 LINE",
"453 530 LINE",
"207 -75 LINE SMOOTH",
"182 -136 OFFCURVE",
"161 -155 OFFCURVE",
"117 -155 CURVE SMOOTH",
"75 -155 OFFCURVE",
"35 -129 OFFCURVE",
"15 -110 CURVE",
"15 -190 LINE",
"35 -210 OFFCURVE",
"76 -230 OFFCURVE",
"117 -230 CURVE SMOOTH",
"188 -230 OFFCURVE",
"231 -190 OFFCURVE"
);
},
{
closed = 1;
nodes = (
"11 530 LINE",
"240 -13 LINE",
"309 0 LINE",
"99 530 LINE"
);
}
);
};
layerId = "6FDD6D71-1703-4D62-BB36-645A25EBC0A3";
name = Light;
paths = (
{
closed = 1;
nodes = (
"131 -168 CURVE SMOOTH",
"190 -168 OFFCURVE",
"226 -134 OFFCURVE",
"258 -61 CURVE SMOOTH",
"520 530 LINE",
"487 530 LINE",
"259 11 LINE",
"283 10 LINE",
"60 530 LINE",
"27 530 LINE",
"256 3 LINE",
"228 -61 LINE SMOOTH",
"207 -110 OFFCURVE",
"173 -140 OFFCURVE",
"130 -140 CURVE SMOOTH",
"89 -140 OFFCURVE",
"51 -113 OFFCURVE",
"34 -91 CURVE",
"34 -130 LINE",
"47 -144 OFFCURVE",
"83 -168 OFFCURVE"
);
}
);
width = 539;
},
{
layerId = "DC46B086-4DC3-4260-9EBF-C204FB70037C";
name = Bold;
paths = (
{
closed = 1;
nodes = (
"168 -168 CURVE SMOOTH",
"250 -168 OFFCURVE",
"328 -127 OFFCURVE",
"377 -15 CURVE SMOOTH",
"614 530 LINE",
"436 530 LINE",
"276 98 LINE",
"330 175 LINE",
"184 530 LINE",
"5 530 LINE",
"244 28 LINE",
"237 15 LINE SMOOTH",
"224 -8 OFFCURVE",
"195 -22 OFFCURVE",
"159 -22 CURVE",
"90 -22 OFFCURVE",
"41 15 OFFCURVE",
"20 33 CURVE",
"20 -116 LINE",
"50 -140 OFFCURVE",
"101 -168 OFFCURVE"
);
}
);
width = 596;
}
);
unicode = 0079;
userData = {
com.typemytype.robofont.layerData = {
background = {
anchors = (
);
components = (
);
contours = (
{
points = (
{
segmentType = curve;
smooth = 1;
x = 262;
y = -117;
},
{
segmentType = line;
smooth = 0;
x = 539;
y = 530;
},
{
segmentType = line;
smooth = 0;
x = 453;
y = 530;
},
{
segmentType = line;
smooth = 1;
x = 207;
y = -75;
},
{
smooth = 0;
x = 182;
y = -136;
},
{
smooth = 0;
x = 161;
y = -155;
},
{
segmentType = curve;
smooth = 1;
x = 117;
y = -155;
},
{
smooth = 0;
x = 75;
y = -155;
},
{
smooth = 0;
x = 35;
y = -129;
},
{
segmentType = curve;
smooth = 0;
x = 15;
y = -110;
},
{
segmentType = line;
smooth = 0;
x = 15;
y = -190;
},
{
smooth = 0;
x = 35;
y = -210;
},
{
smooth = 0;
x = 76;
y = -230;
},
{
segmentType = curve;
smooth = 1;
x = 117;
y = -230;
},
{
smooth = 0;
x = 188;
y = -230;
},
{
smooth = 0;
x = 231;
y = -190;
}
);
},
{
points = (
{
segmentType = line;
smooth = 0;
x = 11;
y = 530;
},
{
segmentType = line;
smooth = 0;
x = 240;
y = -13;
},
{
segmentType = line;
smooth = 0;
x = 309;
y = 0;
},
{
segmentType = line;
smooth = 0;
x = 99;
y = 530;
}
);
}
);
lib = {
};
name = y;
unicodes = (
);
width = 539;
};
};
com.typesupply.AccentFactory.yCoordinates = {
top = {
name = xHeight;
type = fontInfo;
};
};
};
},
{
glyphname = z;
lastChange = "2015-12-30 05:56:37 +0000";
layers = (
{
layerId = "6FDD6D71-1703-4D62-BB36-645A25EBC0A3";
name = Light;
paths = (
{
closed = 1;
nodes = (
"484 0 LINE",
"484 28 LINE",
"87 28 LINE",
"464 512 LINE",
"464 530 LINE",
"64 530 LINE",
"64 502 LINE",
"422 502 LINE",
"44 18 LINE",
"44 0 LINE"
);
}
);
width = 528;
},
{
anchors = (
{
name = center;
position = "{300, 265}";
}
);
layerId = "DC46B086-4DC3-4260-9EBF-C204FB70037C";
name = Bold;
paths = (
{
closed = 1;
nodes = (
"530 0 LINE",
"530 150 LINE",
"257 150 LINE",
"510 410 LINE",
"510 530 LINE",
"55 530 LINE",
"55 380 LINE",
"285 380 LINE",
"35 120 LINE",
"35 0 LINE"
);
}
);
width = 565;
}
);
unicode = 007A;
userData = {
com.typesupply.AccentFactory.yCoordinates = {
bottom = {
name = origin;
type = glyphMetric;
};
top = {
name = xHeight;
type = fontInfo;
};
};
};
},
{
glyphname = t.alt;
lastChange = "2015-12-30 05:56:37 +0000";
layers = (
{
layerId = "6FDD6D71-1703-4D62-BB36-645A25EBC0A3";
name = Light;
paths = (
{
closed = 1;
nodes = (
"356 24 CURVE",
"356 56 LINE",
"330 36 OFFCURVE",
"293 19 OFFCURVE",
"248 19 CURVE",
"180 19 OFFCURVE",
"142 53 OFFCURVE",
"142 128 CURVE",
"142 502 LINE",
"349 502 LINE",
"349 530 LINE",
"142 530 LINE",
"142 630 LINE",
"112 620 LINE",
"112 530 LINE",
"29 530 LINE",
"29 502 LINE",
"112 502 LINE",
"112 130 LINE",
"112 16 OFFCURVE",
"183 -10 OFFCURVE",
"247 -10 CURVE",
"299 -10 OFFCURVE",
"336 8 OFFCURVE"
);
}
);
width = 395;
},
{
layerId = "DC46B086-4DC3-4260-9EBF-C204FB70037C";
name = Bold;
paths = (
{
closed = 1;
nodes = (
"417 21 CURVE",
"417 154 LINE",
"395 144 OFFCURVE",
"355 134 OFFCURVE",
"315 134 CURVE SMOOTH",
"276 134 OFFCURVE",
"250 146 OFFCURVE",
"250 193 CURVE",
"250 390 LINE",
"417 390 LINE",
"417 530 LINE",
"250 530 LINE",
"250 629 LINE",
"99 609 LINE",
"99 530 LINE",
"10 530 LINE",
"10 390 LINE",
"90 390 LINE",
"90 170 LINE",
"90 29 OFFCURVE",
"166 -11 OFFCURVE",
"269 -11 CURVE SMOOTH",
"335 -11 OFFCURVE",
"384 3 OFFCURVE"
);
}
);
width = 442;
}
);
},
